<?xml version="1.0" encoding="utf-8"?>
<!-- Generator: Adobe Illustrator 18.0.0, SVG Export Plug-In . SVG Version: 6.00 Build 0)  -->
<!DOCTYPE svg PUBLIC "-//W3C//DTD SVG 1.1//EN" "http://www.w3.org/Graphics/SVG/1.1/DTD/svg11.dtd">
<svg version="1.1" id="图层_1" xmlns="http://www.w3.org/2000/svg" xmlns:xlink="http://www.w3.org/1999/xlink" x="0px" y="0px"
	 viewBox="0 0 42 42" enable-background="new 0 0 42 42" xml:space="preserve">
<g>
	<path fill-rule="evenodd" clip-rule="evenodd" fill="#F5CA1E" d="M39.6,5.4c-1,0.5-1.2-0.1-2.3,0.4C36.2,6.2,35,6.9,35,6.9
		s3.3,2.7,4.6,7.2c1.3,4.6,0.9,6.4,0.6,8.2c-0.4,1.8-1.9,4-1.9,4s-6.7-1.7-14.5-9.3c-7.8-7.6-8.2-14.7-8.2-14.7S18.5,1,21.6,1
		c6.6-0.1,11.9,4.8,11.9,4.8s3.8-3,5.2-2.9c1.4,0.1,2.2,0.5,2.3,1C41.1,4.3,40.6,4.9,39.6,5.4L39.6,5.4z M34.3,27.6
		c0,0-2.5,3.4-10.7,8.4c-7.9,4.8-6.8,4-11.5,4.8c-4.4,0.7-6.3-0.8-6.3-0.8s0,0.6-1,0.8c-0.9,0.2-2.8-1.1-2.5-1.9
		c0.3-0.8,0.8-1.1,0.8-1.1S-1.1,36,2.3,24.6C5.7,13.2,13,6.3,13,6.3s0.9,4.9,8,12C28.1,25.4,34.3,27.6,34.3,27.6L34.3,27.6z
		 M10.2,19.1c-1.6-1-4.5,4.6-5.8,9c-1.2,4.3-1.1,9.7,1.5,9.1c1.7-0.3,0.3-2.6,1.3-8.2c0.6-3.1,2.6-6.3,3.1-7.1
		C10.8,21.2,11.3,19.8,10.2,19.1L10.2,19.1z"/>
</g>
</svg>
