<?xml version="1.0" encoding="utf-8"?>
<!-- Generator: Adobe Illustrator 18.0.0, SVG Export Plug-In . SVG Version: 6.00 Build 0)  -->
<!DOCTYPE svg PUBLIC "-//W3C//DTD SVG 1.1//EN" "http://www.w3.org/Graphics/SVG/1.1/DTD/svg11.dtd">
<svg version="1.1" id="图层_1" xmlns="http://www.w3.org/2000/svg" xmlns:xlink="http://www.w3.org/1999/xlink" x="0px" y="0px"
	 viewBox="0 0 50 50" enable-background="new 0 0 50 50" xml:space="preserve">
<g>
	<g>
		<path fill="#F5CA1E" d="M7.1,27.1c0.2,3.3,0.4,6.3,0.7,9.4c0.1,1.2,0.8,2,2.1,2.6c5.7,2.4,11.3,5,17,7.5c0.7,0.3,1.4,0.6,2.5,1
			c0-4.6,0-9,0-13.7C26.7,33,23.9,32,20.9,31c0,2.8,0,5.2,0,7.9c-1.8-0.7-3.4-1.2-5-1.9c-0.4-0.2-0.6-1-0.6-1.5
			c-0.3-8,0.4-5.9-6.8-8.3C8.2,27.1,7.8,27.1,7.1,27.1z"/>
		<path fill="#F5CA1E" d="M31,47.5c4.1-2,8-3.9,11.9-5.9c0.4-0.2,0.7-0.8,0.8-1.2c0.4-3.6,0.7-7.2,1.1-11.2c-4.6,1.7-8.8,3.2-13,4.8
			c-0.3,0.1-0.7,0.8-0.7,1.2C31,39.1,31,43.1,31,47.5z"/>
		<path fill="#F5CA1E" d="M29,11.5c-0.8,0.7-1.6,1.3-2.4,1.9c5.4,2.7,10.2,1.8,14.6-1.7c-2-0.4-4-1-6.1-1.3
			c-3.9-0.7-7.9-1.1-11.8-1.8c-3.5-0.7-5.9,1.2-8.5,3.5c3.1,0.5,5.8,0.9,8.6,1.4C24.2,11.3,25.8,10.5,29,11.5z"/>
		<path fill="#F5CA1E" d="M45.5,26.7c0.5-3.3,1.2-6.5,1.5-9.8c0.2-2.6-2-4.5-4.6-3.8c-2.3,0.6-4.5,1.7-7.2,2.7c3.4,4,6.4,7.5,9.5,11
			C45,26.7,45.3,26.7,45.5,26.7z"/>
		<path fill="#F5CA1E" d="M16.2,29.6c1,0.3,1.8,0.4,2.4,0.8c0.6,0.3,1.3,0.9,1.3,1.4c0.2,1.9,0.1,3.7,0.1,5.9
			c-1.3-0.5-2.5-1-3.8-1.5C16.2,33.9,16.2,31.8,16.2,29.6z M17.8,31.8c-0.3-0.1-1.3,0.6-1.2,0.7c0.4,1.1,0.1,2.6,1.8,2.9
			C19,33.9,20,32.4,17.8,31.8z"/>
		<path fill="#F5CA1E" d="M24.5,13.9c1-0.5,1.9-1,3.3-1.8c-2.2-1-2.8,0.3-3.6,1.2C24.3,13.5,24.4,13.7,24.5,13.9z"/>
		<g>
			<path fill="#F5CA1E" d="M17.7,16.3c-0.6-1-1.3-2.1-1.9-3.2c-0.2,0.1-0.4,0.3-0.6,0.4c0.6,1.1,1.3,2.1,1.9,3.2L17.7,16.3z"/>
			<path fill="#F5CA1E" d="M43.7,27.3c0-0.1,0.1-0.2,0.1-0.3c-0.6-0.2-1.2-0.5-1.9-0.7c-3.8-1-7.6-1.9-11.4-2.9l-0.2,0.4l0,0.2
				c2.1,0.5,4.1,1,6.2,1.5c-0.1,0.3-0.1,0.7-0.2,1c-2-0.5-4.1-1-6.1-1.5L30.1,26c3.4,0.9,6.8,1.6,10.2,2.5c0.7,0.2,1.4,0.2,2.2-0.1
				c-0.9-0.4-1.9-0.7-2.8-1.1c0-0.2,0.1-0.4,0.1-0.6C41.1,26.9,42.4,27.1,43.7,27.3z"/>
			<path fill="#F5CA1E" d="M13.1,24.3c-1.6,0.5-3.1,1-4.6,1.5c0.1,0.2,0.1,0.4,0.2,0.6c1.2-0.3,2.4-0.5,3.5-1
				c0.6-0.3,1.2-0.5,1.7-0.7L13.1,24.3z"/>
		</g>
	</g>
	<g>
		<path fill="#F5CA1E" d="M31.2,18.1c-1.1,4.8-2.2,9.5-3.3,14.3c-1.9-0.9-3.7-1.8-5.5-2.6c-2.3-1.1-4.6-2.2-7-3.3
			c-0.6-0.3-0.7-0.7-0.6-1.2c0.4-2,0.9-4,1.4-6c0.1-0.3,0.5-0.7,0.8-0.8c2.2-1.1,4.4-2.2,6.7-3.3c0.3-0.2,0.8-0.3,1.2-0.2
			C26.9,16,29,17.1,31.2,18.1z M26.7,22c-2.2,1-4.1,2-6.2,3c2.1,1.7,4,3.2,6.2,4.9C26.7,27.1,26.7,24.7,26.7,22z M19.9,23.6
			c2-1,3.9-1.9,6-2.9c-1.2-0.9-2.4-1.8-3.5-2.6c-0.9-0.6-2.4,0.1-2.5,1.2C19.9,20.7,19.9,22,19.9,23.6z M23.7,16.7
			c0,0.1-0.1,0.3-0.1,0.4c1.3,0.9,2.5,1.9,3.8,2.8c0.5-0.4,0.9-0.8,1.5-1.4C27,18,25.6,16.5,23.7,16.7z M18.4,19.5
			c-0.9,0.3-1.9,3.4-1.7,5c0.4,0,0.8,0,1.1-0.1c0.2-0.1,0.6-0.4,0.6-0.6C18.4,22.4,18.4,21,18.4,19.5z M29.1,20.7
			c-1.5,1-0.7,2.3-0.8,3.6C28.6,23.1,28.8,21.9,29.1,20.7z M18.2,25.7C18.1,25.9,18,26,18,26.1c0.9,0.4,1.8,0.9,2.7,1.3
			C20,26.5,19.4,25.6,18.2,25.7z"/>
		<path fill="#F5CA1E" d="M9.5,19.4c-0.3-2.1-0.7-3.9-1-5.8c1.5-0.6,2.6-1.4,4.4-0.4c1.8,1,1.7,2.4,2.1,4
			C13.2,17.8,11.4,18.6,9.5,19.4z M12.7,16.5c-0.9-0.5-1.7-0.9-2.6-1.4c0,1.2,0,2.2,0,3.3C11,17.7,11.8,17.2,12.7,16.5z M10.6,14.4
			c0,0.1,0,0.3,0.1,0.4c0.7,0.4,1.5,0.8,2.2,1.2c0.1-0.1,0.2-0.1,0.3-0.2c-0.2-0.7-0.4-1.4-0.6-2.1C11.9,13.9,11.3,14.1,10.6,14.4z
			 M14.4,16.5c-0.2-0.9-0.4-1.6-0.6-2.2C13.3,16.1,13.3,16.1,14.4,16.5z M9.4,13.7c0.7,0.7,1.3,0.5,2.3-0.8
			C10.8,13.2,10.1,13.4,9.4,13.7z"/>
		<path fill="#F5CA1E" d="M25.7,23.5c0,0.7,0,1.2,0,1.7c-1.2,0.1-2.3,0.2-3.4,0.2c0-0.1-0.1-0.3-0.1-0.4
			C23.4,24.6,24.5,24.1,25.7,23.5z"/>
		<path fill="#F5CA1E" d="M15.6,5.6c-0.9-0.2-1.2-0.6-1.4-1.5c0-0.2-0.2-0.4-0.3-0.5c-0.1,0.2-0.3,0.4-0.3,0.5
			c-0.1,0.8-0.6,1.3-1.4,1.5c-0.1,0-0.3,0.2-0.4,0.3C11.9,6,12,6.2,12.2,6.2c0.9,0.2,1.2,0.6,1.4,1.6c0,0.2,0.2,0.3,0.3,0.5
			C14,8.1,14.2,8,14.2,7.8c0.1-0.9,0.5-1.5,1.5-1.6c0.1,0,0.3-0.2,0.5-0.3C15.9,5.8,15.8,5.6,15.6,5.6z"/>
		<path fill="#F5CA1E" d="M7.8,22c-0.7-0.1-1-0.4-1.1-1.1c0-0.2-0.2-0.3-0.3-0.4c-0.1,0.1-0.2,0.3-0.3,0.4c-0.1,0.6-0.5,1-1.1,1.1
			c-0.1,0-0.2,0.2-0.3,0.2c0.1,0.1,0.2,0.2,0.3,0.3c0.7,0.2,1,0.5,1.1,1.2c0,0.1,0.2,0.2,0.2,0.4c0.1-0.1,0.2-0.2,0.3-0.3
			c0.1-0.7,0.4-1.2,1.2-1.3c0.1,0,0.2-0.1,0.4-0.2C8,22.1,7.9,22,7.8,22z"/>
		<path fill="#F5CA1E" d="M35.1,28.6c-0.8-0.2-1.2-0.5-1.3-1.4c0-0.2-0.2-0.3-0.3-0.5c-0.1,0.2-0.3,0.3-0.3,0.5
			c-0.1,0.8-0.5,1.2-1.3,1.4c-0.1,0-0.3,0.2-0.4,0.3c0.1,0.1,0.2,0.3,0.4,0.3c0.8,0.2,1.2,0.6,1.3,1.5c0,0.2,0.2,0.3,0.3,0.4
			c0.1-0.1,0.3-0.3,0.3-0.4c0.1-0.8,0.5-1.4,1.4-1.5c0.1,0,0.2-0.1,0.5-0.3C35.4,28.7,35.3,28.6,35.1,28.6z"/>
	</g>
</g>
</svg>
