<?xml version="1.0" encoding="utf-8"?>
<!-- Generator: Adobe Illustrator 18.0.0, SVG Export Plug-In . SVG Version: 6.00 Build 0)  -->
<!DOCTYPE svg PUBLIC "-//W3C//DTD SVG 1.1//EN" "http://www.w3.org/Graphics/SVG/1.1/DTD/svg11.dtd">
<svg version="1.1" id="图层_1" xmlns="http://www.w3.org/2000/svg" xmlns:xlink="http://www.w3.org/1999/xlink" x="0px" y="0px"
	 viewBox="0 0 220 340" enable-background="new 0 0 220 340" xml:space="preserve">
<g>
	<g>
		<path fill="#DCBC37" d="M63.2,127.7v10.1h9.5v-10.1c0-3.4,1.4-6.5,3.6-8.7c-4,0.5-8.1,1-12,1.9C63.6,123,63.2,125.3,63.2,127.7z"
			/>
		<path fill="#DCBC37" d="M147.2,127.7v21.8h9.5v-21.8c0-4.7-1.5-9-4-12.6c-3,1.3-6,2.7-8.7,4.3C146,121.6,147.2,124.5,147.2,127.7z
			"/>
		<path fill="#EACD43" d="M134.9,105.8H85.1c-9.7,0-17.9,6.3-20.8,15c3.9-0.8,8-1.4,12-1.9c2.2-2.3,5.3-3.7,8.8-3.7h49.8
			c3.6,0,6.9,1.6,9.2,4.1c2.8-1.6,5.7-3,8.7-4.3C148.8,109.5,142.3,105.8,134.9,105.8z"/>
	</g>
	<circle fill="#EACD43" cx="110" cy="227.3" r="104.9"/>
	<path fill="#E4C43B" d="M110,308.3c-44.7,0-81.1-36.4-81.1-81.1c0-44.7,36.4-81.1,81.1-81.1c44.7,0,81.1,36.4,81.1,81.1
		C191.1,272,154.7,308.3,110,308.3z"/>
	<g>
		<path fill="none" stroke="#FBEBC1" stroke-width="3" stroke-linecap="round" stroke-miterlimit="10" d="M12.9,226.8
			c0-54.5,44.4-98.9,98.9-98.9c9.1,0,17.9,1.2,26.2,3.5"/>
		<path fill="none" stroke="#FBEBC1" stroke-width="3" stroke-linecap="round" stroke-miterlimit="10" d="M27.9,279.1
			c-7.9-12.6-13-27-14.5-42.5"/>
	</g>
	<path fill="none" stroke="#D0AF2E" stroke-width="2" stroke-miterlimit="10" d="M110,308.3c-44.7,0-81.1-36.4-81.1-81.1
		c0-44.7,36.4-81.1,81.1-81.1c44.7,0,81.1,36.4,81.1,81.1C191.1,272,154.7,308.3,110,308.3z"/>
	<g>
		<g>
			<g>
				<polygon fill="#F5CB1F" points="99,107.5 85.9,107.4 63,10.6 88.2,10.6 				"/>
				<g>
					<polygon fill="#F1BB3E" points="112,107.7 99,107.5 88.2,10.6 113.3,10.6 					"/>
				</g>
				<polygon fill="#F5CB1F" points="125,107.9 112,107.7 113.3,10.6 138.5,10.6 				"/>
				<g>
					<polygon fill="#F1BB3E" points="138.1,108.1 125,107.9 138.5,10.6 163.6,10.6 					"/>
				</g>
			</g>
		</g>
		<path fill="#E8AB30" d="M164.1,24.7H62.6c-9.3,0-16.8-7.5-16.8-16.8v0h135v0C180.8,17.1,173.3,24.7,164.1,24.7z"/>
	</g>
</g>
</svg>
