<?xml version="1.0" encoding="utf-8"?>
<!-- Generator: Adobe Illustrator 18.0.0, SVG Export Plug-In . SVG Version: 6.00 Build 0)  -->
<!DOCTYPE svg PUBLIC "-//W3C//DTD SVG 1.1//EN" "http://www.w3.org/Graphics/SVG/1.1/DTD/svg11.dtd">
<svg version="1.1" id="图层_1" xmlns="http://www.w3.org/2000/svg" xmlns:xlink="http://www.w3.org/1999/xlink" x="0px" y="0px"
	 viewBox="0 0 220 340" enable-background="new 0 0 220 340" xml:space="preserve">
<g>
	<g>
		<g>
			<path fill="#B0AFBD" d="M63.4,128.4v10h9.5v-10c0-3.4,1.4-6.4,3.6-8.7c-4,0.5-8,1-12,1.9C63.8,123.7,63.4,126,63.4,128.4z"/>
			<path fill="#B0AFBD" d="M147.1,128.4v21.7h9.5v-21.7c0-4.7-1.5-9-4-12.5c-3,1.3-5.9,2.7-8.7,4.3
				C145.9,122.4,147.1,125.2,147.1,128.4z"/>
			<path fill="#CFCED7" d="M134.8,106.6H85.2c-9.6,0-17.8,6.3-20.7,15c3.9-0.8,7.9-1.4,12-1.9c2.2-2.3,5.3-3.7,8.7-3.7h49.6
				c3.6,0,6.9,1.6,9.1,4.1c2.7-1.6,5.7-3,8.7-4.3C148.7,110.3,142.2,106.6,134.8,106.6z"/>
		</g>
		<circle fill="#CFCED7" cx="110" cy="227.6" r="104.5"/>
		<path fill="#B0AFBD" d="M110,308.4c-44.5,0-80.8-36.2-80.8-80.8c0-44.6,36.2-80.8,80.8-80.8c44.6,0,80.8,36.2,80.8,80.8
			C190.8,272.2,154.6,308.4,110,308.4z"/>
		<g>
			<path fill="none" stroke="#F2F2F4" stroke-width="3" stroke-linecap="round" stroke-miterlimit="10" d="M13.2,227.2
				c0-54.4,44.2-98.6,98.6-98.6c9,0,17.8,1.2,26.1,3.5"/>
			<path fill="none" stroke="#F2F2F4" stroke-width="3" stroke-linecap="round" stroke-miterlimit="10" d="M28.1,279.2
				c-7.8-12.5-12.9-27-14.4-42.4"/>
		</g>
		<path fill="none" stroke="#9898A9" stroke-width="2" stroke-miterlimit="10" d="M110,308.4c-44.5,0-80.8-36.2-80.8-80.8
			c0-44.6,36.2-80.8,80.8-80.8c44.6,0,80.8,36.2,80.8,80.8C190.8,272.2,154.6,308.4,110,308.4z"/>
	</g>
	<g>
		<g>
			<g>
				<polygon fill="#B0AFBD" points="97.3,107.5 84.2,107.4 61.4,10.6 86.5,10.6 				"/>
				<g>
					<polygon fill="#CFCED7" points="110.3,107.7 97.3,107.5 86.5,10.6 111.6,10.6 					"/>
				</g>
				<polygon fill="#B0AFBD" points="123.4,107.9 110.3,107.7 111.6,10.6 136.8,10.6 				"/>
				<g>
					<polygon fill="#CFCED7" points="136.4,108.1 123.4,107.9 136.8,10.6 161.9,10.6 					"/>
				</g>
			</g>
		</g>
		<path fill="#91919D" d="M162.4,24.7H60.9c-9.3,0-16.8-7.5-16.8-16.8v0h135v0C179.1,17.1,171.6,24.7,162.4,24.7z"/>
	</g>
</g>
</svg>
