<?xml version="1.0" encoding="utf-8"?>
<!-- Generator: Adobe Illustrator 18.0.0, SVG Export Plug-In . SVG Version: 6.00 Build 0)  -->
<!DOCTYPE svg PUBLIC "-//W3C//DTD SVG 1.1//EN" "http://www.w3.org/Graphics/SVG/1.1/DTD/svg11.dtd">
<svg version="1.1" id="图层_1" xmlns="http://www.w3.org/2000/svg" xmlns:xlink="http://www.w3.org/1999/xlink" x="0px" y="0px"
	 viewBox="0 0 420 330" enable-background="new 0 0 420 330" xml:space="preserve">
<g>
	<circle fill="#F4D15B" cx="200.4" cy="164.7" r="160"/>
	<circle fill="#F4D15B" cx="200.4" cy="164.7" r="160"/>
	<circle fill="#F1BB3E" cx="200.4" cy="164.7" r="136.8"/>
	<path fill="#ECA72A" d="M73.6,167.7c0-75.6,61.2-136.8,136.8-136.8c11.8,0,23.3,1.5,34.3,4.3c-13.9-4.8-28.8-7.3-44.3-7.3
		c-75.6,0-136.8,61.2-136.8,136.8c0,63.7,43.5,117.2,102.5,132.5C112.3,278.8,73.6,227.8,73.6,167.7z"/>
	<path opacity="0.3" fill="#F39800" d="M267.3,19.6c-0.3-0.1-0.6-0.3-0.9-0.4L133.7,310.4c0.3,0.1,0.6,0.3,0.9,0.4
		c80.4,36.7,175.3,1.2,212-79.2C383.2,151.2,347.8,56.3,267.3,19.6z"/>
	<polygon fill="#F5D02A" points="364.4,36 372.2,19.7 381.7,35.1 398,42.9 382.7,52.4 374.9,68.7 365.4,53.3 349.1,45.5 	"/>
	<polygon fill="#F5D02A" points="13.5,249.7 19.7,236.7 27.3,249 40.3,255.2 28,262.8 21.8,275.8 14.2,263.6 1.2,257.3 	"/>
	<polygon fill="#F5D02A" points="401.5,107.6 405.5,99.2 410.4,107.1 418.8,111.1 410.9,116 406.9,124.4 401.9,116.5 393.5,112.5 	
		"/>
</g>
</svg>
