<?xml version="1.0" encoding="utf-8"?><svg id="宝箱-动画" image-rendering="auto" baseProfile="basic" version="1.1" x="0px" y="0px" width="100" height="50" xmlns="http://www.w3.org/2000/svg" xmlns:xlink="http://www.w3.org/1999/xlink"><g id=".__E5.__9C.__BA.__E6.__99.__AF_1_l1" overflow="visible"><g><path fill="#F5CA1F" d="M47.75,12.45Q49.1,11.95 51.4,12.7L49,14.6Q56.6,18.45 63.6,12.95 59.6,12 57.5,11.65 49.6,10.55 45.7,9.8 43.35,9.35 41.1,10.45 39.8,11.1 37.2,13.25L45.75,14.6Q46.45,12.95 47.75,12.45"/><path fill="#F5CA1F" d="M67.25,27.95L68,27.85Q68.55,24.6 68.85,22.95 69.3,20.05 69.5,18.05 69.7,16.15 68.3,14.95 66.9,13.75 64.95,14.25 63.55,14.6 61.45,15.4 59.1,16.4 57.75,16.9L67.25,27.95"/><path fill="#F5CA1F" d="M37.55,14.7L39.55,18.1 40.35,17.775Q39.459,16.383 38.2,14.35L37.55,14.7"/><path fill="#F5CA1F" d="M34.55,26.55Q35.483,26.124 36.45,25.825L36.575,25.15Q35.588,25.417 34.35,25.8 31.25,26.85 30.9,26.95L31.1,27.5Q31.7,27.35 32.85,27.1 33.9,26.85 34.55,26.55"/><path fill="#F5CA1F" d="M53.525,24.8L53.4,25.4 59,26.75 58.8,27.75 53.2,26.375 53.025,27.225Q56.655,28.146 62.75,29.6 63.9,29.95 65,29.55L62.15,28.5 62.25,27.85 66.15,28.5 66.25,28.2Q65.05,27.7 64.4,27.55 58.22,26.011 53.525,24.8"/><path fill="#F5CA1F" d="M50.3,13.3Q48.9,12.65 48,13.2 47.8,13.3 46.7,14.45L47,15.05 50.3,13.3"/><path fill="#F5CA1F" d="M47.2,16.3Q46.75,16.15 46.05,16.45L39.4,19.7Q38.75,20.05 38.6,20.55L37.2,26.6Q37.05,27.5 37.85,27.85L50.35,33.75 53.65,19.4 47.2,16.3 M51.35,19.8L49.85,21.2 46.05,18.35 46.15,17.95Q47.25,17.85 48.75,18.65 50.75,19.65 51.35,19.8 M50.75,25.55Q50.6,24.3 50.6,23.65 50.6,22.6 51.55,22L50.75,25.55 M42.4,20.6Q42.45,19.8 43.35,19.35 44.2,18.9 44.85,19.35L48.4,21.95 42.4,24.85 42.4,20.6 M40.8,20.8L40.8,25.1Q40.8,25.45 40.2,25.7 40,25.8 39.1,25.8 38.95,24.65 39.55,22.8 40.15,21 40.8,20.8 M42.05,27.5Q42.2,27.6 43.05,28.65L40.4,27.35 40.65,27.05Q41.45,26.9 42.05,27.5 M49.1,31.15L42.9,26.25 49.1,23.3 49.1,31.15"/><path fill="#F5CA1F" d="M37.4,18.35Q37,16.25 36.95,16.1 36.55,14.95 35.35,14.35 34.2,13.75 33,14 31.7,14.55 30.95,14.8L31.95,20.65 37.4,18.35 M36,17.25Q35.95,16.95 36.35,15.6L36.9,17.8Q36.1,17.5 36,17.25 M35.3,17.25L33.1,16.05 33.05,15.65 35.05,14.95 35.6,17.05 35.3,17.25 M32.55,16.35L35.2,17.8 32.55,19.65 32.55,16.35 M31.85,14.95L34.1,14.1Q33.4,15.1 32.9,15.3 32.4,15.5 31.85,14.95"/><path fill="#F5CA1F" d="M48.2,24.8L44.7,26.35 44.75,26.8 48.2,26.55 48.2,24.8"/><path fill="#F5CA1F" d="M30.3,28.4Q29.65,28.35 29.45,28.3L30.15,37.65Q30.35,39.45 32.25,40.25 37.9,42.65 49.2,47.75L51.65,48.75 51.65,35.1 43.25,32.25 43.25,40.15Q39.85,38.95 38.3,38.25 37.8,38.05 37.7,36.75 37.5,31.1 36.9,30.55 36.8,30.4 30.95,28.5 30.7,28.4 30.3,28.4"/><path fill="#F5CA1F" d="M53.45,36.25L53.4,48.7 65.35,42.8Q66,42.45 66.1,41.55L67.2,30.3 54.15,35.1Q53.9,35.15 53.65,35.55 53.45,35.95 53.45,36.25"/><path fill="#F5CA1F" d="M38.55,30.8L38.55,37.35 42.35,38.9Q42.35,33.95 42.25,33 42.2,32.35 40.95,31.55 40.85,31.5 38.55,30.8 M40.25,33Q41.7,33.4 41.6,34.5 41.55,34.75 40.8,36.55 39.75,36.35 39.45,35.4 39.2,34.2 39,33.65 38.95,33.6 39.5,33.25 40,32.95 40.25,33"/><animate attributeName="display" repeatCount="1" dur="0.875s" keyTimes="0;0.429;1" values="none;inline;none"/></g><g style="display:none;"><path fill="#F5CA1F" d="M47.7,12.5Q49.05,12 51.35,12.75L48.95,14.65Q56.55,18.5 63.55,13 59.55,12.05 57.45,11.7 49.55,10.6 45.65,9.85 43.3,9.4 41.05,10.5 39.75,11.15 37.15,13.3L45.7,14.65Q46.4,13 47.7,12.5"/><path fill="#F5CA1F" d="M67.2,28L67.95,27.9Q68.5,24.65 68.8,23 69.25,20.1 69.45,18.1 69.65,16.2 68.25,15 66.85,13.8 64.9,14.3 63.5,14.65 61.4,15.45 59.05,16.45 57.7,16.95L67.2,28"/><path fill="#F5CA1F" d="M62.7,29.65Q63.85,30 64.95,29.6L62.1,28.55 62.2,27.9 66.1,28.55 66.2,28.25Q65,27.75 64.35,27.6 51.3,24.35 44.85,22.6 43.3,22.15 42.15,20.65 41.4,19.65 38.15,14.4L37.5,14.75 40.5,19.85Q41.65,21.85 42.1,22.35 43.15,23.55 44.7,23.7 40.05,24.3 37.8,24.85 36.4,25.2 34.3,25.85 31.2,26.9 30.85,27L31.05,27.55Q31.65,27.4 32.8,27.15 33.85,26.9 34.5,26.6 40.85,23.7 48.8,26.15 51.8,27.05 62.7,29.65 M58.75,27.8L47.9,25.15 48.15,24.2 58.95,26.8 58.75,27.8"/><path fill="#F5CA1F" d="M50.25,13.35Q48.85,12.7 47.95,13.25 47.75,13.35 46.65,14.5L46.95,15.1 50.25,13.35"/><path fill="#F5CA1F" d="M30.3,28.4Q29.65,28.35 29.45,28.3L30.15,37.65Q30.35,39.45 32.25,40.25 37.9,42.65 49.2,47.75L51.65,48.75 51.65,35.1 43.25,32.25 43.25,40.15Q39.85,38.95 38.3,38.25 37.8,38.05 37.7,36.75 37.5,31.1 36.9,30.55 36.8,30.4 30.95,28.5 30.7,28.4 30.3,28.4"/><path fill="#F5CA1F" d="M53.45,36.25L53.4,48.7 65.35,42.8Q66,42.45 66.1,41.55L67.2,30.3 54.15,35.1Q53.9,35.15 53.65,35.55 53.45,35.95 53.45,36.25"/><path fill="#F5CA1F" d="M38.55,30.8L38.55,37.35 42.35,38.9Q42.35,33.95 42.25,33 42.2,32.35 40.95,31.55 40.85,31.5 38.55,30.8 M40.25,33Q41.7,33.4 41.6,34.5 41.55,34.75 40.8,36.55 39.75,36.35 39.45,35.4 39.2,34.2 39,33.65 38.95,33.6 39.5,33.25 40,32.95 40.25,33"/><animate attributeName="display" repeatCount="1" dur="0.875s" keyTimes="0;0.286;0.429;1" values="none;inline;none;none"/></g><g style="display:none;"><path fill="#F5CA1F" d="M34.5,26.6Q40.85,23.7 48.8,26.15 51.8,27.05 62.7,29.65 63.85,30 65.3,29.85L62.3,29.05Q44.995,24.196 43.75,24.1 42.515,23.997 42.3,24.025 39.424,24.453 37.8,24.85 36.4,25.2 34.3,25.85 31.2,26.9 30.85,27L31.05,27.55Q31.65,27.4 32.8,27.15 33.85,26.9 34.5,26.6"/><path fill="#F5CA1F" d="M60.15,15.3Q50.7,14.05 45.85,13.7 41,13.35 40,13.4 38.95,13.45 37.7,14.65 36.45,15.85 34.9,17.7 33.35,19.55 31.85,21.4L37.45,23.2Q38.3,20.7 40.2,19 43,19.05 44.5,20.45L43.2,24.9 53.4,27.55Q54.6,18.9 60.15,15.3"/><path fill="#F5CA1F" d="M43.3,20.95Q42.75,19.95 40.55,20.05 39.1,22.35 38.8,23.7L41.95,24.4Q42.4,22.95 43.3,20.95"/><path fill="#F5CA1F" d="M59.05,17.4Q55.7,21.3 54.75,26.95L67.2,31Q67.9,22.55 64.9,18.55 63.75,17 62,16.15 60.85,15.55 59.95,16.4 59.5,16.85 59.05,17.4"/><path fill="#F5CA1F" d="M30.3,28.4Q29.65,28.35 29.45,28.3L30.15,37.65Q30.35,39.45 32.25,40.25 37.9,42.65 49.2,47.75L51.65,48.75 51.65,35.1 43.25,32.25 43.25,40.15Q39.85,38.95 38.3,38.25 37.8,38.05 37.7,36.75 37.5,31.1 36.9,30.55 36.8,30.4 30.95,28.5 30.7,28.4 30.3,28.4"/><path fill="#F5CA1F" d="M53.45,36.25L53.4,48.7 65.35,42.8Q66,42.45 66.1,41.55L67.2,30.3 54.15,35.1Q53.9,35.15 53.65,35.55 53.45,35.95 53.45,36.25"/><path fill="#F5CA1F" d="M38.55,30.8L38.55,37.35 42.35,38.9Q42.35,33.95 42.25,33 42.2,32.35 40.95,31.55 40.85,31.5 38.55,30.8 M40.25,33Q41.7,33.4 41.6,34.5 41.55,34.75 40.8,36.55 39.75,36.35 39.45,35.4 39.2,34.2 39,33.65 38.95,33.6 39.5,33.25 40,32.95 40.25,33"/><animate attributeName="display" repeatCount="1" dur="0.875s" keyTimes="0;0.143;0.286;1" values="none;inline;none;none"/></g><g style="display:none;"><path fill="#F5CA1F" d="M29.7,25.55Q29.1,26.3 30.1,26.55L36.9,28.6 39.4,24.2Q39.5,24.05 39.75,23.9 40,23.75 40.2,23.8 41.7,24.1 44.65,24.85L43,30.55Q50.2,32.7 51.75,33.2 52.4,33.4 52.6,33.2 52.75,33.05 52.8,32.45 52.95,28.95 53.3,26.15 53.85,22.45 55.45,20.2 56,19.5 55.9,19.3 55.8,19.1 54.95,18.95 43.1,16.95 40.7,16.5 38.3,16.05 36.55,17.6L35.75,18.3 29.7,25.55"/><path fill="#F5CA1F" d="M59.45,19.6Q57.2,19.55 56.05,22.05 55,24.25 54.6,27.15 54.35,29 54.25,32.4 54.2,33.4 55.2,33L67.35,28.75Q68.2,28.45 67.85,27.8 65.35,23.2 62.8,21.05 61.15,19.65 59.45,19.6"/><path fill="#F5CA1F" d="M43.55,25.5L40.45,24.7Q40.1,24.7 39.95,24.85 38.35,27.05 38.05,29L42.2,30.25 43.55,25.5"/><path fill="#F5CA1F" d="M30.3,28.4Q29.65,28.35 29.45,28.3L30.15,37.65Q30.35,39.45 32.25,40.25 37.9,42.65 49.2,47.75L51.65,48.75 51.65,35.1 43.25,32.25 43.25,40.15Q39.85,38.95 38.3,38.25 37.8,38.05 37.7,36.75 37.5,31.1 36.9,30.55 36.8,30.4 30.95,28.5 30.7,28.4 30.3,28.4"/><path fill="#F5CA1F" d="M53.45,36.25L53.4,48.7 65.35,42.8Q66,42.45 66.1,41.55L67.2,30.3 54.15,35.1Q53.9,35.15 53.65,35.55 53.45,35.95 53.45,36.25"/><path fill="#F5CA1F" d="M38.55,30.8L38.55,37.35 42.35,38.9Q42.35,33.95 42.25,33 42.2,32.35 40.95,31.55 40.85,31.5 38.55,30.8 M40.25,33Q41.7,33.4 41.6,34.5 41.55,34.75 40.8,36.55 39.75,36.35 39.45,35.4 39.2,34.2 39,33.65 38.95,33.6 39.5,33.25 40,32.95 40.25,33"/><animate attributeName="display" repeatCount="1" dur="0.875s" keyTimes="0;0.143;1" values="inline;none;none"/></g><g style="display:none;"><path fill="#FF0" d="M88.55,20.9L90.8,21 92.7,22.2 93.5,20.05 95.15,18.55 93.4,17.3 92.6,15.15 90.7,16.5 88.45,16.6 89.1,18.75 88.55,20.9"/><path fill="#F90" d="M92.3,9.65L94.2,8.05 92.25,6.6 91.3,4.25 89.3,5.7 86.8,5.85 87.5,8.25 86.9,10.65 89.45,10.65 91.5,11.95 92.3,9.65"/><path fill="#FC0" d="M82.8,4.8L82,2.75 80.1,4.05 77.9,4.15 78.5,6.3 78,8.5 80.25,8.55 82.1,9.7 82.85,7.6 84.6,6.15 82.8,4.8"/><path fill="#FF0" d="M23.7,3.45L21.65,2.65 20.3,0.85 18.9,2.55 16.75,3.25 17.95,5.1 17.95,7.35 20.1,6.9 22.25,7.6 22.45,5.3 23.7,3.45"/><path fill="#F90" d="M13.55,4.15L11.3,3.2 9.8,1.2 8.2,3.1 5.85,3.85 7.15,5.95 7.15,8.4 9.6,7.85 11.95,8.6 12.1,6.1 13.55,4.15"/><path fill="#FC0" d="M5.9,12.45L3.75,13.1 4.95,15.05 4.95,17.25 7.15,16.8 9.3,17.45 9.5,15.2 10.75,13.4 8.7,12.55 7.35,10.75 5.9,12.45"/><animate attributeName="display" repeatCount="1" dur="0.875s" keyTimes="0;0.857;0.952;1" values="none;inline;none;none"/></g><g style="display:none;"><path fill="#FF0" d="M22.9,12.4Q23.55,17 24.7,24.15 24.05,17 23.9,12.4L22.9,12.4"/><path fill="#FC0" d="M15.05,18.45L14.7,19.6 22.2,25.35 15.05,18.45"/><path fill="#F90" d="M16.05,11.85L14.9,13.15 23.85,24.6 16.05,11.85"/><path fill="#FF0" d="M84.5,22.4L84.3,21.45Q79.9,22.9 73.15,25.35 80,23.4 84.5,22.4"/><path fill="#F90" d="M83.6,14.6L82.15,13.75 72.5,24.55 83.6,14.6"/><path fill="#FC0" d="M71.45,23.1L76.95,14.85 75.75,14.7 71.45,23.1"/><path fill="#FF0" d="M87.6,20.5L89.65,20.6 91.35,21.7 92.1,19.75 93.6,18.4 92,17.25 91.25,15.3 89.55,16.5 87.5,16.6 88.1,18.55 87.6,20.5"/><path fill="#F90" d="M86.1,11.2L88.4,11.2 90.25,12.4 91,10.3 92.7,8.85 90.95,7.5 90.1,5.4 88.25,6.7 86,6.85 86.65,9 86.1,11.2"/><path fill="#FC0" d="M82.35,5.9L81.65,4 79.9,5.2 77.9,5.3 78.45,7.25 78,9.25 80.05,9.3 81.7,10.35 82.4,8.45 84,7.1 82.35,5.9"/><path fill="#FF0" d="M23.6,4.4L21.7,3.65 20.5,2 19.2,3.55 17.25,4.2 18.35,5.9 18.35,7.95 20.3,7.5 22.25,8.15 22.45,6.05 23.6,4.4"/><path fill="#F90" d="M12.3,4.15L10.95,2.35 9.5,4.05 7.35,4.75 8.55,6.65 8.55,8.9 10.75,8.4 12.9,9.05 13.05,6.8 14.35,5 12.3,4.15"/><path fill="#FC0" d="M7.4,12.55L5.45,13.15 6.55,14.95 6.55,16.95 8.55,16.5 10.5,17.1 10.65,15.05 11.8,13.45 9.95,12.65 8.7,11 7.4,12.55"/><animate attributeName="display" repeatCount="1" dur="0.875s" keyTimes="0;0.762;0.857;1" values="none;inline;none;none"/></g><g style="display:none;"><path fill="#FF0" d="M22.9,12.4Q23.55,17 24.7,24.15 24.05,17 23.9,12.4L22.9,12.4"/><path fill="#FC0" d="M15.05,18.45L14.7,19.6 22.2,25.35 15.05,18.45"/><path fill="#F90" d="M16.05,11.85L14.9,13.15 23.85,24.6 16.05,11.85"/><path fill="#FF0" d="M84.5,22.4L84.3,21.45Q79.9,22.9 73.15,25.35 80,23.4 84.5,22.4"/><path fill="#F90" d="M83.6,14.6L82.15,13.75 72.5,24.55 83.6,14.6"/><path fill="#FC0" d="M71.45,23.1L76.95,14.85 75.75,14.7 71.45,23.1"/><animate attributeName="display" repeatCount="1" dur="0.875s" keyTimes="0;0.667;0.762;1" values="none;inline;none;none"/></g><g><g id=".__E5.__85.__83.__E4.__BB.__B6_12" transform="matrix(1 0 0 1 28.95 23.5)" opacity="1"><animateTransform attributeName="transform" additive="replace" type="translate" dur="0.875s" keyTimes="0;1" values="28.95,23.5;28.95,23.5"/><animateTransform attributeName="transform" additive="sum" type="rotate" dur="0.875s" keyTimes="0;0.429;0.667;1" values="0,0,0;0,0,0;360,0,0;360,0,0"/><animateTransform attributeName="transform" additive="sum" type="scale" dur="0.875s" keyTimes="0;0.429;0.667;1" values="0.8,0.8;0.8,0.8;1,1;1,1"/><animate attributeName="opacity" dur="0.875s" keyTimes="0;0.429;0.667;1" values="0;0;1;1"/><path fill="#F5CA1F" d="M1.3,-0.25Q0.4,-0.45 0.2,-1.4 0.15,-1.55 -0.1,-1.8L-0.35,-1.4Q-0.5,-0.4 -1.4,-0.25L-1.75,0Q-1.5,0.25 -1.4,0.25 -0.5,0.5 -0.35,1.5L-0.1,1.85Q0.15,1.6 0.15,1.5 0.3,0.4 1.35,0.25 1.4,0.25 1.75,0L1.3,-0.25"/></g><animate attributeName="display" repeatCount="1" dur="0.875s" keyTimes="0;0.429;1" values="none;inline;none"/></g><g><g id=".__E5.__85.__83.__E4.__BB.__B6_11" transform="matrix(1 0 0 1 36.4 7.2)" opacity="1"><animateTransform attributeName="transform" additive="replace" type="translate" dur="0.875s" keyTimes="0;1" values="36.4,7.2;36.4,7.2"/><animateTransform attributeName="transform" additive="sum" type="rotate" dur="0.875s" keyTimes="0;0.429;0.667;1" values="0,0,0;0,0,0;360,0,0;360,0,0"/><animateTransform attributeName="transform" additive="sum" type="scale" dur="0.875s" keyTimes="0;0.429;0.667;1" values="0.8,0.8;0.8,0.8;1,1;1,1"/><animate attributeName="opacity" dur="0.875s" keyTimes="0;0.429;0.667;1" values="0;0;1;1"/><path fill="#F5CA1F" d="M1.7,-0.3Q0.55,-0.55 0.25,-1.8 0.2,-2 -0.1,-2.3L-0.4,-1.8Q-0.55,-0.6 -1.8,-0.3L-2.2,-0.05Q-1.85,0.3 -1.75,0.3 -0.6,0.65 -0.4,1.9L-0.1,2.35Q0.2,2.05 0.25,1.9 0.4,0.5 1.7,0.3L2.2,0 1.7,-0.3"/></g><animate attributeName="display" repeatCount="1" dur="0.875s" keyTimes="0;0.429;1" values="none;inline;none"/></g><g><g id=".__E5.__85.__83.__E4.__BB.__B6_10" transform="matrix(1 0 0 1 56 30.15)" opacity="1"><animateTransform attributeName="transform" additive="replace" type="translate" dur="0.875s" keyTimes="0;1" values="56,30.15;56,30.15"/><animateTransform attributeName="transform" additive="sum" type="rotate" dur="0.875s" keyTimes="0;0.429;0.667;1" values="0,0,0;0,0,0;360,0,0;360,0,0"/><animateTransform attributeName="transform" additive="sum" type="scale" dur="0.875s" keyTimes="0;0.429;0.667;1" values="0.8,0.8;0.8,0.8;1,1;1,1"/><animate attributeName="opacity" dur="0.875s" keyTimes="0;0.429;0.667;1" values="0;0;1;1"/><path fill="#F5CA1F" d="M1.55,-0.3Q0.45,-0.55 0.25,-1.7L-0.1,-2.2 -0.4,-1.7Q-0.55,-0.55 -1.7,-0.3 -1.95,-0.1 -2.1,0 -1.95,0.1 -1.7,0.3 -0.55,0.6 -0.4,1.8 -0.35,1.95 -0.1,2.2 0.2,1.9 0.2,1.8 0.45,0.45 1.6,0.3L2.1,0 1.55,-0.3"/></g><animate attributeName="display" repeatCount="1" dur="0.875s" keyTimes="0;0.429;1" values="none;inline;none"/></g></g></svg>