<?xml version="1.0" encoding="utf-8"?><svg id="宝箱-静态-黄" image-rendering="auto" baseProfile="basic" version="1.1" x="0px" y="0px" width="100" height="50" xmlns="http://www.w3.org/2000/svg" xmlns:xlink="http://www.w3.org/1999/xlink"><g id=".__E5.__9C.__BA.__E6.__99.__AF_1" overflow="visible"><path fill="#F5CA1F" d="M29.7,25.55Q29.1,26.3 30.1,26.55L36.9,28.6 39.4,24.2Q39.5,24.05 39.75,23.9 40,23.75 40.2,23.8 41.7,24.1 44.65,24.85L43,30.55Q50.2,32.7 51.75,33.2 52.4,33.4 52.6,33.2 52.75,33.05 52.8,32.45 52.95,28.95 53.3,26.15 53.85,22.45 55.45,20.2 56,19.5 55.9,19.3 55.8,19.1 54.95,18.95 43.1,16.95 40.7,16.5 38.3,16.05 36.55,17.6L35.75,18.3 29.7,25.55"/><path fill="#F5CA1F" d="M59.45,19.6Q57.2,19.55 56.05,22.05 55,24.25 54.6,27.15 54.35,29 54.25,32.4 54.2,33.4 55.2,33L67.35,28.75Q68.2,28.45 67.85,27.8 65.35,23.2 62.8,21.05 61.15,19.65 59.45,19.6"/><path fill="#F5CA1F" d="M43.55,25.5L40.45,24.7Q40.1,24.7 39.95,24.85 38.35,27.05 38.05,29L42.2,30.25 43.55,25.5"/><path fill="#F5CA1F" d="M30.3,28.4Q29.65,28.35 29.45,28.3L30.15,37.65Q30.35,39.45 32.25,40.25 37.9,42.65 49.2,47.75L51.65,48.75 51.65,35.1 43.25,32.25 43.25,40.15Q39.85,38.95 38.3,38.25 37.8,38.05 37.7,36.75 37.5,31.1 36.9,30.55 36.8,30.4 30.95,28.5 30.7,28.4 30.3,28.4"/><path fill="#F5CA1F" d="M53.45,36.25L53.4,48.7 65.35,42.8Q66,42.45 66.1,41.55L67.2,30.3 54.15,35.1Q53.9,35.15 53.65,35.55 53.45,35.95 53.45,36.25"/><path fill="#F5CA1F" d="M38.55,30.8L38.55,37.35 42.35,38.9Q42.35,33.95 42.25,33 42.2,32.35 40.95,31.55 40.85,31.5 38.55,30.8 M40.25,33Q41.7,33.4 41.6,34.5 41.55,34.75 40.8,36.55 39.75,36.35 39.45,35.4 39.2,34.2 39,33.65 38.95,33.6 39.5,33.25 40,32.95 40.25,33"/></g></svg>