<?xml version="1.0" encoding="utf-8"?>
<!-- Generator: Adobe Illustrator 18.0.0, SVG Export Plug-In . SVG Version: 6.00 Build 0)  -->
<!DOCTYPE svg PUBLIC "-//W3C//DTD SVG 1.1//EN" "http://www.w3.org/Graphics/SVG/1.1/DTD/svg11.dtd">
<svg version="1.1" id="图层_1" xmlns="http://www.w3.org/2000/svg" xmlns:xlink="http://www.w3.org/1999/xlink" x="0px" y="0px"
	 viewBox="0 0 84 84" enable-background="new 0 0 84 84" xml:space="preserve">
<g>
	<g>
		<path fill-rule="evenodd" clip-rule="evenodd" fill="#F5CA1E" d="M48.8,34.5l6.1-27.1c0,0,0.9-4.8-4.1-6.1
			c-5.2-1.3-6.8,3.8-6.8,3.8l-7,29.3l-6.6-28c0,0-1.3-5.1-6.9-3.9c-4.8,1-4.3,5.8-4.3,5.8l7.4,39.8c0,0-3.1-4.1-3.1-5.9S24,37,24,37
			s0.6-2.1-2.3-1c-2.8,1.1-8,6.4-8.3,9.4c-0.3,3,4,12,4.9,14.5c1.6,4.3,4,9.3,7.1,14.2c6.1,9.8,27.6,14,37.6-1.6
			c8.2-12.6,7.6-24.1,7.6-24.1s0.5-18.8-11.1-9.9C59.5,38.5,58.4,27.3,48.8,34.5L48.8,34.5z"/>
	</g>
</g>
</svg>
