<?xml version="1.0" encoding="utf-8"?><svg id="对号动画" image-rendering="auto" baseProfile="basic" version="1.1" x="0px" y="0px" width="80" height="80" xmlns="http://www.w3.org/2000/svg" xmlns:xlink="http://www.w3.org/1999/xlink"><g id=".__E5.__9C.__BA.__E6.__99.__AF_1_l1" overflow="visible"><g><path fill="#093" d="M78,15.55L67.5,4.7Q47.7,23.55 31.4,49.5L13.25,28.4 1.75,38.4 33.9,76Q52.25,41.2 78,15.55"/><animate attributeName="display" repeatCount="1" dur="1s" keyTimes="0;0.667;1" values="none;inline;none"/></g><g style="display:none;"><path fill="#093" d="M65.5,29.1L55.65,17Q42.7,31.55 31.4,49.5L13.25,28.4 1.75,38.4 33.9,76Q47.6,50 65.5,29.1"/><animate attributeName="display" repeatCount="1" dur="1s" keyTimes="0;0.542;0.667;1" values="none;inline;none;none"/></g><g style="display:none;"><path fill="#093" d="M13.25,28.4L1.75,38.4 33.9,76Q40.05,64.35 47.05,53.7L41.6,34.45Q36.35,41.65 31.4,49.5L13.25,28.4"/><animate attributeName="display" repeatCount="1" dur="1s" keyTimes="0;0.417;0.542;1" values="none;inline;none;none"/></g><g style="display:none;"><path fill="#093" d="M13.25,28.4L1.75,38.4 33.8,75.85 31.4,49.5 13.25,28.4"/><animate attributeName="display" repeatCount="1" dur="1s" keyTimes="0;0.292;0.417;1" values="none;inline;none;none"/></g><g style="display:none;"><path fill="#093" d="M22.7,39.35L13.25,28.4 1.75,38.4 12.25,50.7 22.7,39.35"/><animate attributeName="display" repeatCount="1" dur="1s" keyTimes="0;0.167;0.292;1" values="none;inline;none;none"/></g></g></svg>