<?xml version="1.0" encoding="utf-8"?>
<!-- Generator: Adobe Illustrator 18.0.0, SVG Export Plug-In . SVG Version: 6.00 Build 0)  -->
<!DOCTYPE svg PUBLIC "-//W3C//DTD SVG 1.1//EN" "http://www.w3.org/Graphics/SVG/1.1/DTD/svg11.dtd">
<svg version="1.1" id="图层_1" xmlns="http://www.w3.org/2000/svg" xmlns:xlink="http://www.w3.org/1999/xlink" x="0px" y="0px"
	 viewBox="0 0 150 150" enable-background="new 0 0 150 150" xml:space="preserve">
<g>
	<path d="M96,104.2c0-5,0-9.5,0-14.3c-0.9,0.3-1.6,0.4-2.3,0.7c-5.2,2.2-10.4,4.5-15.6,6.6c-1.5,0.6-2,1.4-1.9,2.9
		c0.1,5,0,9.9,0,14.9c0,1.6-0.3,2.4-2.3,1.8c0-6.2,0-12.4,0-18.7c-6.5-2.8-12.9-5.5-19.6-8.4c0,4.9,0,9.5,0,14.4c1.6,0,3.1,0,4.5,0
		c3.9,0.1,6.5,2.8,6.5,6.5c-0.1,3.6-2.7,6.3-6.4,6.3c-8.1,0-16.3,0-24.4,0c-2.5,0-4.5-1.1-5.6-3.3c-1.2-2.4-1.2-4.9,0.5-7
		c7.2-9.2,14.4-18.4,21.8-27.4c4.6-5.5,11-8,17.9-8.8c9.9-1.2,19.6-0.3,27.5,6.6c4,3.5,7.1,8.1,10.4,12.3c4.4,5.4,8.6,11,13.1,16.4
		c1.9,2.4,2.5,4.9,1.3,7.6c-1.3,2.8-3.7,3.7-6.7,3.7c-7.6-0.1-15.2,0-22.8,0c-4.3,0-6.8-2.3-6.8-6.3c0-4.2,2.4-6.5,6.9-6.6
		C93.1,104.2,94.4,104.2,96,104.2z"/>
	<path d="M75.2,66.7c-9.5,0-17.2-7.5-17.2-16.9c0-9.2,7.6-16.9,16.9-17c9.2-0.2,17,7.4,17.1,16.7C92,59.1,84.7,66.7,75.2,66.7z"/>
</g>
</svg>
