<?xml version="1.0" encoding="utf-8"?><svg id="声波动画2" image-rendering="auto" baseProfile="basic" version="1.1" x="0px" y="0px" width="510" height="110" xmlns="http://www.w3.org/2000/svg" xmlns:xlink="http://www.w3.org/1999/xlink"><defs><filter id="filter2" filterUnits="objectBoundingBox" width="116%" height="137.383%" x="-8%" y="-18.691%"><feFlood flood-color="#FF6" flood-opacity="1"/><feComposite in2="SourceAlpha" operator="in"/><feGaussianBlur stdDeviation="2.5 2.5" result="glow0_feGaussianBlur"/><feComponentTransfer result="glow0_feComponentTransfer"><feFuncA type="linear" slope="1" intercept="0"/></feComponentTransfer><feMerge><feMergeNode/><feMergeNode in="SourceGraphic"/></feMerge></filter><filter id="filter3" filterUnits="objectBoundingBox" width="143.163%" height="689.821%" x="-21.582%" y="-294.91%"><feFlood flood-color="#FF6" flood-opacity="1"/><feComposite in2="SourceAlpha" operator="in"/><feGaussianBlur stdDeviation="5 5" result="glow0_feGaussianBlur"/><feComponentTransfer result="glow0_feComponentTransfer"><feFuncA type="linear" slope="1" intercept="0"/></feComponentTransfer><feMerge><feMergeNode/><feMergeNode in="SourceGraphic"/></feMerge></filter></defs><g id=".__E5.__9C.__BA.__E6.__99.__AF_1_l1" overflow="visible"><path fill="none" stroke="#FF9" stroke-width="1" stroke-linecap="round" stroke-linejoin="round" vector-effect="non-scaling-stroke" d="M106.1,55L403.95,55"/><g id="453543_l1s" transform="matrix(1.265 0 0 1.005 254.95 55)" filter="url(#filter2)"><g style="display:none;"><path fill="none" stroke="#FFF" stroke-width="1" stroke-linecap="round" stroke-linejoin="round" vector-effect="non-scaling-stroke" d="M90.05,19.5L98.85,-0.05M90.05,19.5L83.8,-8.5 79.45,9.2 76.95,-23.45 70.95,22.45 65.7,-40.9 58.65,12.75 53.3,-6.8 49.55,37 44.35,-17.65 34.25,21.05 29.7,-50.65 18.9,40.45 12.35,-15.75 5.95,14.25 -1.45,-39.05 -11,43.65 -15.85,-23.4 -25.9,16.25 -35.45,-13 -44.35,35.1 -49.2,-43.1 -61.1,43.75 -72.4,-19.75 -87.35,9.75 -98.8,-0.55" stroke-opacity="1"/><animate attributeName="display" repeatDur="1s" dur="0.375s" keyTimes="0;0.444;0.556;1" values="none;inline;none;none"/></g><g style="display:none;"><path fill="none" stroke="#FFF" stroke-width="1" stroke-linecap="round" stroke-linejoin="round" vector-effect="non-scaling-stroke" d="M6.1,21.45L12.5,-23.95 19.7,36.95 29.75,-40.6 35.15,17.75 44.35,-14.65 49.6,29.1 53.75,-17.5 58.7,19.85 65.45,-33.2 70.9,19.15 76.7,-19.4 79.65,13.65 83.45,-14.6 89.55,16.2 98.85,-0.05M6.1,21.45L-1.9,-31.5 -10.85,37.95 -16.15,-21.7 -26.6,25.5 -35.25,-23.05 -44.45,29.75 -49.3,-35.9 -61.3,37.9 -70.9,-20.95 -87.45,11.7 -98.8,-0.55" stroke-opacity="1"/><animate attributeName="display" repeatDur="1s" dur="0.375s" keyTimes="0;0.333;0.444;0.556;0.667;1" values="none;inline;none;inline;none;none"/></g><g style="display:none;"><path fill="none" stroke="#FFF" stroke-width="1" stroke-linecap="round" stroke-linejoin="round" vector-effect="non-scaling-stroke" d="M6.2,28.65L12.6,-32.1 20.55,33.45 29.85,-30.5 36,14.4 44.35,-11.65 49.7,21.25 54.2,-28.15 58.8,26.9 65.2,-25.5 70.85,15.8 76.45,-15.3 79.85,18.1 83.05,-20.75 89.05,12.85 98.85,-0.05M6.2,28.65L-2.3,-23.9 -10.75,32.3 -16.45,-20 -27.25,34.75 -35.05,-33.1 -44.6,24.35 -49.45,-28.7 -61.45,32 -69.4,-22.1 -87.6,13.65 -98.8,-0.55" stroke-opacity="1"/><animate attributeName="display" repeatDur="1s" dur="0.375s" keyTimes="0;0.222;0.333;0.667;0.778;1" values="none;inline;none;inline;none;none"/></g><g style="display:none;"><path fill="none" stroke="#FFF" stroke-width="1" stroke-linecap="round" stroke-linejoin="round" vector-effect="non-scaling-stroke" d="M6.35,35.8L12.75,-40.3 21.35,29.95 29.9,-20.45 36.9,11.1 44.35,-8.65 49.75,13.35 54.6,-38.85 58.85,34 64.95,-17.85 70.75,12.5 76.2,-11.25 80,22.55 82.7,-26.85 88.55,9.55 98.85,-0.05M6.35,35.8L-2.75,-16.35 -10.6,26.6 -16.8,-18.35 -27.95,44 -34.9,-43.2 -44.7,19 -49.55,-21.55 -61.65,26.15 -67.9,-23.3 -87.7,15.55 -98.8,-0.55" stroke-opacity="1"/><animate attributeName="display" repeatDur="1s" dur="0.375s" keyTimes="0;0.111;0.222;0.778;0.889;1" values="none;inline;none;inline;none;none"/></g><g><path fill="none" stroke="#FFF" stroke-width="1" stroke-linecap="round" stroke-linejoin="round" vector-effect="non-scaling-stroke" d="M88.05,6.2L98.85,-0.05M88.05,6.2L82.3,-33 80.2,27 75.95,-7.2 70.7,9.15 64.7,-10.15 58.9,41.05 55.05,-49.55 49.8,5.45 44.35,-5.65 37.75,7.75 29.95,-10.4 22.15,26.45 12.85,-48.5 6.45,43 -3.2,-8.8 -10.5,20.9 -17.1,-16.65 -28.65,53.25 -34.7,-53.25 -44.85,13.6 -49.7,-14.35 -61.85,20.25 -66.4,-24.5 -87.85,17.5 -98.8,-0.55" stroke-opacity="1"/><animate attributeName="display" repeatDur="1s" dur="0.375s" keyTimes="0;0.111;0.889;1" values="inline;none;inline;none"/></g></g><g id="43453453_l1" transform="matrix(1.455 0 0 1.005 186.65 55.3)" filter="url(#filter3)"><g><path fill="#FFF" d="M17.65,-4.8Q13,-6.75 8.35,-6.75 3.75,-6.75 -4.5,-4.8 -12.8,-2.9 -23.65,0 -12.8,2.7 -4.5,4.75 3.75,6.75 8.35,6.75 13,6.75 17.5,4.8 21.95,2.8 23.7,-0.05 22.2,-2.8 17.65,-4.8" fill-opacity="1"/><animate attributeName="display" repeatCount="1" dur="1s" keyTimes="0;0.958;1" values="none;inline;none"/></g><g style="display:none;"><path fill="#FFF" d="M15.6,-6.75Q11,-6.75 2.75,-4.8 -5.55,-2.9 -16.4,0 -5.55,2.7 2.75,4.75 11,6.75 15.6,6.75 20.25,6.75 24.75,4.8 29.2,2.8 30.95,-0.05 29.45,-2.8 24.9,-4.8 20.25,-6.75 15.6,-6.75" fill-opacity="1"/><animate attributeName="display" repeatCount="1" dur="1s" keyTimes="0;0.917;0.958;1" values="none;inline;none;none"/></g><g style="display:none;"><path fill="#FFF" d="M22.9,-6.75Q18.3,-6.75 10.05,-4.8 1.75,-2.9 -9.1,0 1.75,2.7 10.05,4.75 18.3,6.75 22.9,6.75 27.55,6.75 32.05,4.8 36.5,2.8 38.25,-0.05 36.75,-2.8 32.2,-4.8 27.55,-6.75 22.9,-6.75" fill-opacity="1"/><animate attributeName="display" repeatCount="1" dur="1s" keyTimes="0;0.875;0.917;1" values="none;inline;none;none"/></g><g style="display:none;"><path fill="#FFF" d="M30.15,-6.75Q25.55,-6.75 17.3,-4.8 9,-2.9 -1.85,0 9,2.7 17.3,4.75 25.55,6.75 30.15,6.75 34.8,6.75 39.3,4.8 43.75,2.8 45.5,-0.05 44,-2.8 39.45,-4.8 34.8,-6.75 30.15,-6.75" fill-opacity="1"/><animate attributeName="display" repeatCount="1" dur="1s" keyTimes="0;0.833;0.875;1" values="none;inline;none;none"/></g><g style="display:none;"><path fill="#FFF" d="M37.45,-6.75Q32.85,-6.75 24.6,-4.8 16.3,-2.9 5.45,0 16.3,2.7 24.6,4.75 32.85,6.75 37.45,6.75 42.1,6.75 46.6,4.8 51.05,2.8 52.8,-0.05 51.3,-2.8 46.75,-4.8 42.1,-6.75 37.45,-6.75" fill-opacity="1"/><animate attributeName="display" repeatCount="1" dur="1s" keyTimes="0;0.792;0.833;1" values="none;inline;none;none"/></g><g style="display:none;"><path fill="#FFF" d="M54,-4.8Q49.35,-6.75 44.7,-6.75 40.1,-6.75 31.85,-4.8 23.55,-2.9 12.7,0 23.55,2.7 31.85,4.75 40.1,6.75 44.7,6.75 49.35,6.75 53.85,4.8 58.3,2.8 60.05,-0.05 58.55,-2.8 54,-4.8" fill-opacity="1"/><animate attributeName="display" repeatCount="1" dur="1s" keyTimes="0;0.75;0.792;1" values="none;inline;none;none"/></g><g style="display:none;"><path fill="#FFF" d="M61.3,-4.8Q56.65,-6.75 52,-6.75 47.4,-6.75 39.15,-4.8 30.85,-2.9 20,0 30.85,2.7 39.15,4.75 47.4,6.75 52,6.75 56.65,6.75 61.15,4.8 65.6,2.8 67.35,-0.05 65.85,-2.8 61.3,-4.8" fill-opacity="1"/><animate attributeName="display" repeatCount="1" dur="1s" keyTimes="0;0.708;0.75;1" values="none;inline;none;none"/></g><g style="display:none;"><path fill="#FFF" d="M59.25,-6.75Q54.65,-6.75 46.4,-4.8 38.1,-2.9 27.25,0 38.1,2.7 46.4,4.75 54.65,6.75 59.25,6.75 63.9,6.75 68.4,4.8 72.85,2.8 74.6,-0.05 73.1,-2.8 68.55,-4.8 63.9,-6.75 59.25,-6.75" fill-opacity="1"/><animate attributeName="display" repeatCount="1" dur="1s" keyTimes="0;0.667;0.708;1" values="none;inline;none;none"/></g><g style="display:none;"><path fill="#FFF" d="M66.55,-6.75Q61.95,-6.75 53.7,-4.8 45.4,-2.9 34.55,0 45.4,2.7 53.7,4.75 61.95,6.75 66.55,6.75 71.2,6.75 75.7,4.8 80.15,2.8 81.9,-0.05 80.4,-2.8 75.85,-4.8 71.2,-6.75 66.55,-6.75" fill-opacity="1"/><animate attributeName="display" repeatCount="1" dur="1s" keyTimes="0;0.625;0.667;1" values="none;inline;none;none"/></g><g style="display:none;"><path fill="#FFF" d="M73.8,-6.75Q69.2,-6.75 60.95,-4.8 52.65,-2.9 41.8,0 52.65,2.7 60.95,4.75 69.2,6.75 73.8,6.75 78.45,6.75 82.95,4.8 87.4,2.8 89.15,-0.05 87.65,-2.8 83.1,-4.8 78.45,-6.75 73.8,-6.75" fill-opacity="1"/><animate attributeName="display" repeatCount="1" dur="1s" keyTimes="0;0.583;0.625;1" values="none;inline;none;none"/></g><g style="display:none;"><path fill="#FFF" d="M90.4,-4.8Q85.75,-6.75 81.1,-6.75 76.5,-6.75 68.25,-4.8 59.95,-2.9 49.1,0 59.95,2.7 68.25,4.75 76.5,6.75 81.1,6.75 85.75,6.75 90.25,4.8 94.7,2.8 96.45,-0.05 94.95,-2.8 90.4,-4.8" fill-opacity="1"/><animate attributeName="display" repeatCount="1" dur="1s" keyTimes="0;0.542;0.583;1" values="none;inline;none;none"/></g><g style="display:none;"><path fill="#FFF" d="M103.7,-0.05Q102.2,-2.8 97.65,-4.8 93,-6.75 88.35,-6.75 83.75,-6.75 75.5,-4.8 67.2,-2.9 56.35,0 67.2,2.7 75.5,4.75 83.75,6.75 88.35,6.75 93,6.75 97.5,4.8 101.95,2.8 103.7,-0.05" fill-opacity="1"/><animate attributeName="display" repeatCount="1" dur="1s" keyTimes="0;0.5;0.542;1" values="none;inline;none;none"/></g><g style="display:none;"><path fill="#FFF" d="M91,-4.8Q86.35,-6.75 81.7,-6.75 77.1,-6.75 68.85,-4.8 60.55,-2.9 49.7,0 60.55,2.7 68.85,4.75 77.1,6.75 81.7,6.75 86.35,6.75 90.85,4.8 95.3,2.8 97.05,-0.05 95.55,-2.8 91,-4.8" fill-opacity="1"/><animate attributeName="display" repeatCount="1" dur="1s" keyTimes="0;0.458;0.5;1" values="none;inline;none;none"/></g><g style="display:none;"><path fill="#FFF" d="M75,-6.75Q70.4,-6.75 62.15,-4.8 53.85,-2.9 43,0 53.85,2.7 62.15,4.75 70.4,6.75 75,6.75 79.65,6.75 84.15,4.8 88.6,2.8 90.35,-0.05 88.85,-2.8 84.3,-4.8 79.65,-6.75 75,-6.75" fill-opacity="1"/><animate attributeName="display" repeatCount="1" dur="1s" keyTimes="0;0.417;0.458;1" values="none;inline;none;none"/></g><g style="display:none;"><path fill="#FFF" d="M68.35,-6.75Q63.75,-6.75 55.5,-4.8 47.2,-2.9 36.35,0 47.2,2.7 55.5,4.75 63.75,6.75 68.35,6.75 73,6.75 77.5,4.8 81.95,2.8 83.7,-0.05 82.2,-2.8 77.65,-4.8 73,-6.75 68.35,-6.75" fill-opacity="1"/><animate attributeName="display" repeatCount="1" dur="1s" keyTimes="0;0.375;0.417;1" values="none;inline;none;none"/></g><g style="display:none;"><path fill="#FFF" d="M61.7,-6.75Q57.1,-6.75 48.85,-4.8 40.55,-2.9 29.7,0 40.55,2.7 48.85,4.75 57.1,6.75 61.7,6.75 66.35,6.75 70.85,4.8 75.3,2.8 77.05,-0.05 75.55,-2.8 71,-4.8 66.35,-6.75 61.7,-6.75" fill-opacity="1"/><animate attributeName="display" repeatCount="1" dur="1s" keyTimes="0;0.333;0.375;1" values="none;inline;none;none"/></g><g style="display:none;"><path fill="#FFF" d="M55,-6.75Q50.4,-6.75 42.15,-4.8 33.85,-2.9 23,0 33.85,2.7 42.15,4.75 50.4,6.75 55,6.75 59.65,6.75 64.15,4.8 68.6,2.8 70.35,-0.05 68.85,-2.8 64.3,-4.8 59.65,-6.75 55,-6.75" fill-opacity="1"/><animate attributeName="display" repeatCount="1" dur="1s" keyTimes="0;0.292;0.333;1" values="none;inline;none;none"/></g><g style="display:none;"><path fill="#FFF" d="M57.65,-4.8Q53,-6.75 48.35,-6.75 43.75,-6.75 35.5,-4.8 27.2,-2.9 16.35,0 27.2,2.7 35.5,4.75 43.75,6.75 48.35,6.75 53,6.75 57.5,4.8 61.95,2.8 63.7,-0.05 62.2,-2.8 57.65,-4.8" fill-opacity="1"/><animate attributeName="display" repeatCount="1" dur="1s" keyTimes="0;0.25;0.292;1" values="none;inline;none;none"/></g><g style="display:none;"><path fill="#FFF" d="M51,-4.8Q46.35,-6.75 41.7,-6.75 37.1,-6.75 28.85,-4.8 20.55,-2.9 9.7,0 20.55,2.7 28.85,4.75 37.1,6.75 41.7,6.75 46.35,6.75 50.85,4.8 55.3,2.8 57.05,-0.05 55.55,-2.8 51,-4.8" fill-opacity="1"/><animate attributeName="display" repeatCount="1" dur="1s" keyTimes="0;0.208;0.25;1" values="none;inline;none;none"/></g><g style="display:none;"><path fill="#FFF" d="M35,-6.75Q30.4,-6.75 22.15,-4.8 13.85,-2.9 3,0 13.85,2.7 22.15,4.75 30.4,6.75 35,6.75 39.65,6.75 44.15,4.8 48.6,2.8 50.35,-0.05 48.85,-2.8 44.3,-4.8 39.65,-6.75 35,-6.75" fill-opacity="1"/><animate attributeName="display" repeatCount="1" dur="1s" keyTimes="0;0.167;0.208;1" values="none;inline;none;none"/></g><g style="display:none;"><path fill="#FFF" d="M28.35,-6.75Q23.75,-6.75 15.5,-4.8 7.2,-2.9 -3.65,0 7.2,2.7 15.5,4.75 23.75,6.75 28.35,6.75 33,6.75 37.5,4.8 41.95,2.8 43.7,-0.05 42.2,-2.8 37.65,-4.8 33,-6.75 28.35,-6.75" fill-opacity="1"/><animate attributeName="display" repeatCount="1" dur="1s" keyTimes="0;0.125;0.167;1" values="none;inline;none;none"/></g><g style="display:none;"><path fill="#FFF" d="M21.7,-6.75Q17.1,-6.75 8.85,-4.8 0.55,-2.9 -10.3,0 0.55,2.7 8.85,4.75 17.1,6.75 21.7,6.75 26.35,6.75 30.85,4.8 35.3,2.8 37.05,-0.05 35.55,-2.8 31,-4.8 26.35,-6.75 21.7,-6.75" fill-opacity="1"/><animate attributeName="display" repeatCount="1" dur="1s" keyTimes="0;0.083;0.125;1" values="none;inline;none;none"/></g><g style="display:none;"><path fill="#FFF" d="M15,-6.75Q10.4,-6.75 2.15,-4.8 -6.15,-2.9 -17,0 -6.15,2.7 2.15,4.75 10.4,6.75 15,6.75 19.65,6.75 24.15,4.8 28.6,2.8 30.35,-0.05 28.85,-2.8 24.3,-4.8 19.65,-6.75 15,-6.75" fill-opacity="1"/><animate attributeName="display" repeatCount="1" dur="1s" keyTimes="0;0.042;0.083;1" values="none;inline;none;none"/></g><g style="display:none;"><path fill="#FFF" d="M23.7,-0.05Q22.2,-2.8 17.65,-4.8 13,-6.75 8.35,-6.75 3.75,-6.75 -4.5,-4.8 -12.8,-2.9 -23.65,0 -12.8,2.7 -4.5,4.75 3.75,6.75 8.35,6.75 13,6.75 17.5,4.8 21.95,2.8 23.7,-0.05" fill-opacity="1"/><animate attributeName="display" repeatCount="1" dur="1s" keyTimes="0;0.042;1" values="inline;none;none"/></g></g></g></svg>