<?xml version="1.0" encoding="utf-8"?><svg id="翻书静态" image-rendering="auto" baseProfile="basic" version="1.1" x="0px" y="0px" width="100" height="50" xmlns="http://www.w3.org/2000/svg" xmlns:xlink="http://www.w3.org/1999/xlink"><g id=".__E5.__9C.__BA.__E6.__99.__AF_1" overflow="visible"><path fill="#565454" d="M72.05,21.75Q72.05,12.55 72.1,11.4 72.1,10.6 71.75,10.25 71.4,9.95 70.65,10L69.5,10 69.5,38.2 68.35,37.9Q63.25,36.5 59.3,36.7 55.3,36.85 52.95,38.6 51.9,39.35 51.1,39.35 50.25,39.35 49.2,38.6 48.2,37.9 47.1,37.5 45.35,36.8 43.25,36.7 41.45,36.65 39.3,37 37.4,37.3 33.55,38.25L33.55,10.15Q31.9,9.85 31.5,10.2 31.05,10.5 31.05,12.05L31.05,36.85Q31.05,37.9 31.1,38.7 31.2,39.45 31.7,39.95 32.2,40.45 32.85,40.45 37.45,40.45 46.65,40.45 47.85,40.45 48.7,41 50.15,42 51.3,41.95 52.45,41.95 53.9,40.9 54.35,40.55 55.6,40.45 55.95,40.4 56.45,40.45 57.1,40.45 57.25,40.45 59.2,40.45 63.2,40.4 66.7,40.35 69.1,40.5 70.7,40.6 71.4,39.95 72.1,39.3 72.1,37.6 72.05,35.85 72.05,21.75"/><path fill="#565454" d="M59.997,9.769Q57.504,10.367 53.99,11.956 51.803,12.962 51.847,15.674 51.905,19.902 51.905,26.098 51.905,29.568 51.905,36.537L51.905,38.17Q55.302,35.327 60.012,35.619 61.732,35.721 64.24,36.012 65.669,36.173 68.585,36.508L68.585,8.311Q65.712,8.748 64.269,8.967 61.732,9.361 59.997,9.769"/><path fill="#565454" d="M50.564,15.863Q50.593,13.268 48.61,12.233 45.607,10.658 43.726,10.192 41.933,9.754 39.265,9.258 37.778,8.996 34.716,8.442L34.716,37.12Q40.271,35.808 42.778,35.765 47.225,35.692 50.608,38.156L50.608,36.931Q50.549,22.876 50.564,15.863"/></g></svg>