<?xml version="1.0" encoding="utf-8"?><svg id="翻书动画-块儿" image-rendering="auto" baseProfile="basic" version="1.1" x="0px" y="0px" width="100" height="50" xmlns="http://www.w3.org/2000/svg" xmlns:xlink="http://www.w3.org/1999/xlink"><g id=".__E5.__9C.__BA.__E6.__99.__AF_1_l1" overflow="visible"><path fill="#F5CA1F" d="M72.05,21.75Q72.05,12.55 72.1,11.4 72.1,10.6 71.75,10.25 71.4,9.95 70.65,10L69.5,10 69.5,38.2 68.35,37.9Q63.25,36.5 59.3,36.7 55.3,36.85 52.95,38.6 51.9,39.35 51.1,39.35 50.25,39.35 49.2,38.6 48.2,37.9 47.1,37.5 45.35,36.8 43.25,36.7 41.45,36.65 39.3,37 37.4,37.3 33.55,38.25L33.55,10.15Q31.9,9.85 31.5,10.2 31.05,10.5 31.05,12.05L31.05,36.85Q31.05,37.9 31.1,38.7 31.2,39.45 31.7,39.95 32.2,40.45 32.85,40.45 37.45,40.45 46.65,40.45 47.85,40.45 48.7,41 50.15,42 51.3,41.95 52.45,41.95 53.9,40.9 54.35,40.55 55.6,40.45 55.95,40.4 56.45,40.45 57.1,40.45 57.25,40.45 59.2,40.45 63.2,40.4 66.7,40.35 69.1,40.5 70.7,40.6 71.4,39.95 72.1,39.3 72.1,37.6 72.05,35.85 72.05,21.75"/><path fill="#F5CA1F" d="M59.997,9.769Q57.504,10.367 53.99,11.956 51.803,12.962 51.847,15.674 51.905,19.902 51.905,26.098 51.905,29.568 51.905,36.537L51.905,38.17Q55.302,35.327 60.012,35.619 61.732,35.721 64.24,36.012 65.669,36.173 68.585,36.508L68.585,8.311Q65.712,8.748 64.269,8.967 61.732,9.361 59.997,9.769"/><path fill="#F5CA1F" d="M50.564,15.863Q50.593,13.268 48.61,12.233 45.607,10.658 43.726,10.192 41.933,9.754 39.265,9.258 37.778,8.996 34.716,8.442L34.716,37.12Q40.271,35.808 42.778,35.765 47.225,35.692 50.608,38.156L50.608,36.931Q50.549,22.876 50.564,15.863"/><g><path fill="#FCD12D" d="M50.55,15.85Q50.6,13.25 48.6,12.25 45.6,10.65 43.75,10.2 41.95,9.75 39.25,9.25 37.8,9 34.7,8.45L34.7,37.1Q40.25,35.8 42.8,35.75 47.25,35.7 50.6,38.15L50.6,36.95Q50.55,22.9 50.55,15.85"/><animate attributeName="display" repeatCount="1" dur="3.542s" keyTimes="0;0.341;1" values="none;inline;none"/></g><g style="display:none;"><path fill="#FCD12D" d="M50.5,24.1Q50.5,17.9 50.55,13.65 50.6,10.95 48.7,9.95 45.65,8.35 43.45,7.75 41.95,7.35 39.75,6.95 38.5,6.75 36,6.3L36,30.35 36.05,30.35 36.05,33.7Q44.05,33.7 50.5,38.05L50.5,34.55Q50.5,27.55 50.5,24.1"/><animate attributeName="display" repeatCount="1" dur="3.542s" keyTimes="0;0.282;0.341;1" values="none;inline;none;none"/></g><g style="display:none;"><path fill="#FCD12D" d="M50.7,24.1Q50.7,17.9 50.75,13.65 50.8,10.95 49.25,9.95 46.8,8.35 45.05,7.75 43.85,7.35 42.1,6.95 41.1,6.75 39.1,6.3L39.1,30.35 39.15,30.35 39.15,33.7Q45.55,33.7 50.7,38.05L50.7,34.55Q50.7,27.55 50.7,24.1"/><animate attributeName="display" repeatCount="1" dur="3.542s" keyTimes="0;0.224;0.282;1" values="none;inline;none;none"/></g><g style="display:none;"><path fill="#FCD12D" d="M50.5,24.1Q50.5,17.9 50.55,13.65 50.55,10.95 50.15,9.6 49.5,7.3 48.95,6.1 48.6,5.25 48,4.15 47.65,3.5 46.9,2.1L46.9,25.7Q48.9,31.15 50.5,37.9L50.5,34.55Q50.5,27.55 50.5,24.1"/><animate attributeName="display" repeatCount="1" dur="3.542s" keyTimes="0;0.165;0.224;1" values="none;inline;none;none"/></g><g style="display:none;"><path fill="#FCD12D" d="M51.95,13.65Q52,17.9 52,24.1 52,27.55 52,34.55L52,37.9Q53.6,31.15 55.6,25.7L55.6,2.1Q54.85,3.5 54.5,4.15 53.9,5.25 53.55,6.1 53,7.3 52.35,9.6 51.95,10.95 51.95,13.65"/><animate attributeName="display" repeatCount="1" dur="3.542s" keyTimes="0;0.106;0.165;1" values="none;inline;none;none"/></g><g style="display:none;"><path fill="#FCD12D" d="M52.05,13.65Q52.1,17.9 52.1,24.1 52.1,27.55 52.1,34.55L52.1,38.05Q57.25,33.7 63.65,33.7L63.65,30.35 63.7,30.35 63.7,6.3Q61.7,6.75 60.7,6.95 58.95,7.35 57.75,7.75 56,8.35 53.55,9.95 52,10.95 52.05,13.65"/><animate attributeName="display" repeatCount="1" dur="3.542s" keyTimes="0;0.047;0.106;1" values="none;inline;none;none"/></g><g style="display:none;"><path fill="#FCD12D" d="M66.5,6.3Q64,6.75 62.75,6.95 60.55,7.35 59.05,7.75 56.85,8.35 53.8,9.95 51.9,10.95 51.95,13.65 52,17.9 52,24.1 52,27.55 52,34.55L52,38.05Q58.467,33.713 66.45,33.7L66.45,30.35Q66.475,30.333 66.5,30.325L66.5,6.3"/><animate attributeName="display" repeatCount="1" dur="3.542s" keyTimes="0;0.047;1" values="inline;none;none"/></g><g><path fill="#FCD12D" d="M50.55,15.85Q50.6,13.25 48.6,12.25 45.6,10.65 43.75,10.2 41.95,9.75 39.25,9.25 37.8,9 34.7,8.45L34.7,37.1Q40.25,35.8 42.8,35.75 47.25,35.7 50.6,38.15L50.6,36.95Q50.55,22.9 50.55,15.85"/><animate attributeName="display" repeatCount="1" dur="3.542s" keyTimes="0;0.635;1" values="none;inline;none"/></g><g style="display:none;"><path fill="#FCD12D" d="M50.5,24.1Q50.5,17.9 50.55,13.65 50.6,10.95 48.7,9.95 45.65,8.35 43.45,7.75 41.95,7.35 39.75,6.95 38.5,6.75 36,6.3L36,30.35 36.05,30.35 36.05,33.7Q44.05,33.7 50.5,38.05L50.5,34.55Q50.5,27.55 50.5,24.1"/><animate attributeName="display" repeatCount="1" dur="3.542s" keyTimes="0;0.576;0.635;1" values="none;inline;none;none"/></g><g style="display:none;"><path fill="#FCD12D" d="M50.7,24.1Q50.7,17.9 50.75,13.65 50.8,10.95 49.25,9.95 46.8,8.35 45.05,7.75 43.85,7.35 42.1,6.95 41.1,6.75 39.1,6.3L39.1,30.35 39.15,30.35 39.15,33.7Q45.55,33.7 50.7,38.05L50.7,34.55Q50.7,27.55 50.7,24.1"/><animate attributeName="display" repeatCount="1" dur="3.542s" keyTimes="0;0.518;0.576;1" values="none;inline;none;none"/></g><g style="display:none;"><path fill="#FCD12D" d="M50.5,24.1Q50.5,17.9 50.55,13.65 50.55,10.95 50.15,9.6 49.5,7.3 48.95,6.1 48.6,5.25 48,4.15 47.65,3.5 46.9,2.1L46.9,25.7Q48.9,31.15 50.5,37.9L50.5,34.55Q50.5,27.55 50.5,24.1"/><animate attributeName="display" repeatCount="1" dur="3.542s" keyTimes="0;0.459;0.518;1" values="none;inline;none;none"/></g><g style="display:none;"><path fill="#FCD12D" d="M51.95,13.65Q52,17.9 52,24.1 52,27.55 52,34.55L52,37.9Q53.6,31.15 55.6,25.7L55.6,2.1Q54.85,3.5 54.5,4.15 53.9,5.25 53.55,6.1 53,7.3 52.35,9.6 51.95,10.95 51.95,13.65"/><animate attributeName="display" repeatCount="1" dur="3.542s" keyTimes="0;0.4;0.459;1" values="none;inline;none;none"/></g><g style="display:none;"><path fill="#FCD12D" d="M52.05,13.65Q52.1,17.9 52.1,24.1 52.1,27.55 52.1,34.55L52.1,38.05Q57.25,33.7 63.65,33.7L63.65,30.35 63.7,30.35 63.7,6.3Q61.7,6.75 60.7,6.95 58.95,7.35 57.75,7.75 56,8.35 53.55,9.95 52,10.95 52.05,13.65"/><animate attributeName="display" repeatCount="1" dur="3.542s" keyTimes="0;0.341;0.4;1" values="none;inline;none;none"/></g><g style="display:none;"><path fill="#FCD12D" d="M66.5,6.3Q64,6.75 62.75,6.95 60.55,7.35 59.05,7.75 56.85,8.35 53.8,9.95 51.9,10.95 51.95,13.65 52,17.9 52,24.1 52,27.55 52,34.55L52,38.05Q58.467,33.713 66.45,33.7L66.45,30.35Q66.475,30.333 66.5,30.325L66.5,6.3"/><animate attributeName="display" repeatCount="1" dur="3.542s" keyTimes="0;0.282;0.341;1" values="none;inline;none;none"/></g></g></svg>