<?xml version="1.0" encoding="utf-8"?><svg id="太阳-动画" image-rendering="auto" baseProfile="basic" version="1.1" x="0px" y="0px" width="52" height="52" xmlns="http://www.w3.org/2000/svg" xmlns:xlink="http://www.w3.org/1999/xlink"><g id=".__E5.__9C.__BA.__E6.__99.__AF_1" overflow="visible"><g id=".__E5.__85.__83.__E4.__BB.__B6_7" transform="matrix(1 0 0 1 26 25.95)" opacity="1"><animateTransform attributeName="transform" additive="replace" type="translate" repeatCount="indefinite" dur="0.833s" keyTimes="0;1" values="26,25.95;26,25.95"/><animateTransform attributeName="transform" additive="sum" type="rotate" repeatCount="indefinite" dur="0.833s" keyTimes="0;0.45;1" values="0,0,0;360,0,0;360,0,0"/><animateTransform attributeName="transform" additive="sum" type="scale" repeatCount="indefinite" dur="0.833s" keyTimes="0;0.45;1" values="0.64,0.64;1,1;1,1"/><animate attributeName="opacity" repeatCount="indefinite" dur="0.833s" keyTimes="0;0.45;1" values="0;1;1"/><path fill="#F39800" d="M12.7,-22.55L6.05,-17.6 11.9,-14.25 12.7,-22.55"/><path fill="#F39800" d="M22.3,-13.15L14.05,-12.2 17.4,-6.4 22.3,-13.15"/><path fill="#F39800" d="M25.9,-0.25L18.3,-3.5 18.3,3.2 25.9,-0.25"/><path fill="#F39800" d="M11.5,-11.5Q6.75,-16.25 0,-16.25 -6.75,-16.25 -11.5,-11.5 -16.25,-6.7 -16.25,0 -16.25,6.75 -11.5,11.55 -6.75,16.3 0,16.3 6.75,16.3 11.5,11.55 16.25,6.75 16.25,0 16.25,-6.7 11.5,-11.5"/><path fill="#F39800" d="M17.6,6.1L14.25,11.9 22.55,12.75 17.6,6.1"/><path fill="#F39800" d="M12.2,14.1L6.4,17.45 13.15,22.3 12.2,14.1"/><path fill="#F39800" d="M0.25,25.9L3.55,18.3 -3.2,18.3 0.25,25.9"/><path fill="#F39800" d="M-22.55,-12.7L-17.6,-6.05 -14.25,-11.9 -22.55,-12.7"/><path fill="#F39800" d="M-13.2,-22.3L-12.2,-14.05 -6.4,-17.4 -13.2,-22.3"/><path fill="#F39800" d="M-0.25,-25.9L-3.55,-18.3 3.15,-18.3 -0.25,-25.9"/><path fill="#F39800" d="M-25.9,0.3L-18.3,3.55 -18.3,-3.15 -25.9,0.3"/><path fill="#F39800" d="M-22.3,13.2L-14.1,12.25 -17.45,6.4 -22.3,13.2"/><path fill="#F39800" d="M-12.7,22.55L-6.1,17.65 -11.9,14.25 -12.7,22.55"/></g></g></svg>