<?xml version="1.0" encoding="utf-8"?>
<!-- Generator: Adobe Illustrator 18.0.0, SVG Export Plug-In . SVG Version: 6.00 Build 0)  -->
<!DOCTYPE svg PUBLIC "-//W3C//DTD SVG 1.1//EN" "http://www.w3.org/Graphics/SVG/1.1/DTD/svg11.dtd">
<svg version="1.1" id="图层_1" xmlns="http://www.w3.org/2000/svg" xmlns:xlink="http://www.w3.org/1999/xlink" x="0px" y="0px"
	 viewBox="0 0 84 84" enable-background="new 0 0 84 84" xml:space="preserve">
<g>
	<circle fill-rule="evenodd" clip-rule="evenodd" fill="#F5CA1E" cx="42" cy="42" r="37"/>
	<g>
		<path fill-rule="evenodd" clip-rule="evenodd" fill="#272828" d="M33,22.4l-2.2,0.1c0,0,0.2,4.7-2.6,7.4c-1.7,1.6-4.1,2.3-7.3,2.1
			l-0.2,2.2c0.5,0,1,0.1,1.4,0.1c3.2,0,5.7-0.9,7.5-2.7C33.3,28,33,22.6,33,22.4L33,22.4z"/>
		<path fill-rule="evenodd" clip-rule="evenodd" fill="#272828" d="M56.3,29.9c-2.8-2.8-2.6-7.4-2.6-7.4l-2.2-0.1
			c0,0.2-0.3,5.6,3.2,9.1c1.9,1.8,4.4,2.7,7.5,2.7c0.5,0,0.9,0,1.4-0.1L63.6,32C60.4,32.3,58,31.6,56.3,29.9L56.3,29.9z"/>
		<path fill-rule="evenodd" clip-rule="evenodd" fill="#272828" d="M52.6,57.9c-2.1,0-3.9-1.1-4-2.5l-1.1,0.1l-1.1-0.1
			c-0.2,1.4-1.9,2.5-4,2.5s-3.9-1.1-4-2.5l-1.1,0.1l-1.1-0.1c-0.2,1.4-1.9,2.5-4,2.5c-2.1,0-3.9-1.1-4-2.5l-2.1,0.3
			c0.3,2.5,3,4.4,6.2,4.4c2.1,0,4-0.9,5.1-2.2c1.1,1.3,3,2.2,5.1,2.2c2.1,0,4-0.9,5.1-2.2c1.1,1.3,3,2.2,5.1,2.2
			c3.2,0,5.9-1.9,6.2-4.4l-2.1-0.3C56.4,56.8,54.6,57.9,52.6,57.9L52.6,57.9z"/>
		<path fill-rule="evenodd" clip-rule="evenodd" fill="#272828" d="M29.8,38.9 M26.4,38.9"/>
		<path fill-rule="evenodd" clip-rule="evenodd" fill="#272828" d="M54.8,38.9 M51.4,38.9"/>
		<circle fill-rule="evenodd" clip-rule="evenodd" fill="#272828" cx="53.2" cy="37" r="2.8"/>
		<circle fill-rule="evenodd" clip-rule="evenodd" fill="#272828" cx="31.2" cy="37" r="2.8"/>
	</g>
</g>
</svg>
