<?xml version="1.0" encoding="utf-8"?>
<!-- Generator: Adobe Illustrator 18.0.0, SVG Export Plug-In . SVG Version: 6.00 Build 0)  -->
<!DOCTYPE svg PUBLIC "-//W3C//DTD SVG 1.1//EN" "http://www.w3.org/Graphics/SVG/1.1/DTD/svg11.dtd">
<svg version="1.1" id="图层_1" xmlns="http://www.w3.org/2000/svg" xmlns:xlink="http://www.w3.org/1999/xlink" x="0px" y="0px"
	 viewBox="0 0 60 60" enable-background="new 0 0 60 60" xml:space="preserve">
<g>
	<g>
		<path fill-rule="evenodd" clip-rule="evenodd" fill="#22AC38" d="M56.7,12.9c-3.3-4.9-9.8-6-14.4-2.5c-0.5,0.4-1,0.9-1.4,1.4
			C37.5,10,33.8,9,30,9c-3.8,0-7.5,1-10.8,2.8c-0.4-0.5-0.9-1-1.4-1.4C13.1,6.9,6.7,8,3.3,12.9C0,17.8,1.1,24.6,5.7,28.2
			c0.5,0.3,0.9,0.6,1.4,0.9C6.4,34.5,8.4,40,12.2,44.2c0.3,0.3,0.5,0.5,0.8,0.8l0,0c0.8,0.8,1.7,1.5,2.7,2.2l0,0
			c0.3,0.2,0.6,0.4,0.9,0.6c0,0,0,0,0,0c0.3,0.2,0.6,0.4,1,0.6l0.1,0c0.3,0.2,0.6,0.3,1,0.5c0,0,0.1,0,0.1,0.1
			c0.3,0.2,0.6,0.3,0.9,0.4l0.2,0.1c0.3,0.1,0.6,0.3,0.9,0.4c0.1,0,0.1,0.1,0.2,0.1c0.3,0.1,0.6,0.2,0.9,0.3c0.1,0,0.2,0.1,0.3,0.1
			c0.3,0.1,0.6,0.2,0.9,0.3c0.1,0,0.2,0.1,0.3,0.1c0.3,0.1,0.6,0.1,0.9,0.2l0.3,0.1c0.3,0.1,0.6,0.1,0.9,0.2c0.1,0,0.3,0.1,0.4,0.1
			c0.3,0.1,0.6,0.1,0.9,0.1c0.1,0,0.3,0,0.4,0.1c0.3,0,0.6,0.1,0.9,0.1c0.1,0,0.3,0,0.4,0c0.5,0,0.9,0,1.4,0l0,0l0,0
			c0.5,0,0.9,0,1.4,0c0.1,0,0.3,0,0.4,0c0.3,0,0.6,0,0.9-0.1c0.1,0,0.3,0,0.4-0.1c0.3,0,0.6-0.1,0.9-0.1c0.1,0,0.3-0.1,0.4-0.1
			c0.3-0.1,0.6-0.1,0.9-0.2c0.1,0,0.2-0.1,0.3-0.1c0.3-0.1,0.6-0.1,0.9-0.2c0.1,0,0.2-0.1,0.3-0.1c0.3-0.1,0.6-0.2,0.9-0.3
			c0.1,0,0.2-0.1,0.2-0.1c0.3-0.1,0.6-0.2,1-0.3c0.1,0,0.1-0.1,0.2-0.1c0.3-0.1,0.7-0.3,1-0.4c0,0,0.1,0,0.1-0.1
			c0.3-0.1,0.7-0.3,1-0.5l0.1,0c0.3-0.2,0.7-0.3,1-0.5c0,0,0,0,0,0c0.3-0.2,0.7-0.4,1-0.6l0,0c1.7-1.1,3.2-2.3,4.4-3.7
			c3.9-4.2,5.8-9.6,5.1-15.1c0.5-0.3,1-0.5,1.4-0.9C58.9,24.6,60,17.8,56.7,12.9L56.7,12.9 M8.7,23.4c-0.2-0.1-0.4-0.2-0.5-0.4
			c-2.4-1.8-2.9-5.3-1.2-7.8c1.7-2.5,5-3.1,7.4-1.3c0.3,0.2,0.5,0.4,0.7,0.7C12.3,16.9,10.1,19.9,8.7,23.4L8.7,23.4 M36.9,22.2
			c1,0,1.8,1.2,1.8,2.7c0,1.5-0.8,2.7-1.8,2.7c-1,0-1.8-1.2-1.8-2.7C35.1,23.4,35.9,22.2,36.9,22.2L36.9,22.2 M23.1,22.2
			c1,0,1.8,1.2,1.8,2.7c0,1.5-0.8,2.7-1.8,2.7c-1,0-1.8-1.2-1.8-2.7C21.2,23.4,22.1,22.2,23.1,22.2L23.1,22.2 M40.5,39.4
			c-0.9,4.5-5.4,7.9-10.5,8c-5.1,0-9.6-3.5-10.5-8c-0.4-1.9,0.2-3.9,1.6-5.7c2-2.4,5.3-3.8,8.9-3.8c3.6,0,7,1.4,8.9,3.8
			C40.3,35.4,40.9,37.4,40.5,39.4L40.5,39.4 M51.9,23c-0.2,0.1-0.4,0.3-0.5,0.4c-1.4-3.5-3.7-6.4-6.4-8.8c0.2-0.3,0.5-0.5,0.7-0.7
			c2.4-1.8,5.7-1.2,7.4,1.3C54.8,17.7,54.2,21.2,51.9,23L51.9,23 M51.9,23"/>
		<path fill-rule="evenodd" clip-rule="evenodd" fill="#22AC38" d="M30,44.6c3.1,0,5.7-1.5,6.9-3.8c0.1-0.2,0-0.5-0.2-0.6
			c-0.2-0.1-0.5,0-0.6,0.2c-1,1.9-3.1,3.2-5.6,3.3v-5c1.3-0.2,2.9-1.4,3.6-2.9c0.6-1.6-1.3-2.9-4.2-2.8c-2.9,0-4.6,1.4-3.8,3
			c0.8,1.4,2.2,2.5,3.5,2.8v5.1c-2.5-0.1-4.7-1.4-5.6-3.3c-0.1-0.2-0.4-0.3-0.6-0.2c-0.2,0.1-0.3,0.4-0.2,0.6
			C24.3,43.1,26.9,44.6,30,44.6L30,44.6 M30,44.6"/>
	</g>
</g>
</svg>
