<?xml version="1.0" encoding="utf-8"?>
<!-- Generator: Adobe Illustrator 18.0.0, SVG Export Plug-In . SVG Version: 6.00 Build 0)  -->
<!DOCTYPE svg PUBLIC "-//W3C//DTD SVG 1.1//EN" "http://www.w3.org/Graphics/SVG/1.1/DTD/svg11.dtd">
<svg version="1.1" id="图层_1" xmlns="http://www.w3.org/2000/svg" xmlns:xlink="http://www.w3.org/1999/xlink" x="0px" y="0px"
	 viewBox="0 0 300 140" enable-background="new 0 0 300 140" xml:space="preserve">
<g>
	<path fill="#FFFFFF" d="M87.3,61.3c0,0,8.5,40.3-3.8,42.2H71.2v14.3H98c0,0,11.1-1.6,12.2-12c1-10.3-0.2-32.8-3.4-44.6L87.3,61.3z"
		/>
	<path fill="#FFFFFF" d="M90.3,85.5l19.7-5.9c-0.1-0.6-0.1-1.2-0.2-1.7c-0.4-5.2-0.9-10.1-1.6-14.6H128V58h-20.9
		c-0.7-0.7-1.2-2.1-1.6-4.2c-0.4-1.7-0.7-3.1-1-4.2c16.7-17.1,24.9-27.9,24.6-32.4c-0.4-8-6.3-12.2-17.8-12.5H63.7v5.2h36.1
		c6.3,0,9.4,1.9,9.4,5.7c-0.7,3.8-4.5,9.6-11.5,17.2c-2.4-3.8-4.9-7.7-7.3-11.5H70C77.7,32.5,83.3,44.7,86.7,58H58.5v5.2h29.3
		C89,70.6,89.8,78.1,90.3,85.5z"/>
	<path fill="#FFFFFF" d="M42.3,94.1c0,0,26.7,41,79.2,38.5c0,0,55.8,4,110.8-15.1L259,99.7l3.5,8.5c0,0-20.5,26.6-94.8,29.8
		c0,0-52,3.2-79.7-2.5c0,0-43.2-4.9-45.7-21.9V94.1z"/>
	<path fill="#FFFFFF" d="M121.5,99.7"/>
	<rect x="151.2" y="53.4" fill="#FFFFFF" width="40.9" height="6.1"/>
	<rect x="151.2" y="109.4" fill="#FFFFFF" width="31.5" height="8.5"/>
	<rect x="168.3" y="56.4" fill="#FFFFFF" width="14.4" height="57.2"/>
	<path fill="#FFFFFF" d="M163.1,57.6c0,0-19.7,15-26,16.4c0,0,13.1,5,18.8,0c0,0-12.4,13.1-21.8,14.6c0,0,15.4,6.1,22.3-1
		c0,0-14.6,17.5-25.4,18.6c0,0,12.2,4.6,22.6,1.8c0,0,10.6-2.9,18.1-18.6l1.5-32H163.1z"/>
	<path fill="#FFFFFF" d="M168.2,103.3c0,0.2,0.1,0.5,0.1,0.7c0,2.9-2.4,5.3-5.3,5.3c-0.1,0-0.1,0-0.2,0c0.5,2.2,2.5,3.8,4.8,3.8
		c2.7,0,4.9-2.2,4.9-4.9C172.5,105.7,170.7,103.6,168.2,103.3z"/>
	<radialGradient id="SVGID_1_" cx="171.6939" cy="29.3173" r="13.811" gradientUnits="userSpaceOnUse">
		<stop  offset="0" style="stop-color:#F29F0B"/>
		<stop  offset="1" style="stop-color:#ED8015"/>
	</radialGradient>
	<circle fill="url(#SVGID_1_)" cx="171.7" cy="29.3" r="13.8"/>
	<g>
		<path fill="#FFFFFF" d="M169.6,48.7c0,0,20,0.2,21.5,0s9.3,2,6,7.7c0,0-3.6,5.5-6.5,6.9c0,0,3.5,3.2,11.3-0.5c0,0,8.5-5,5.8-13.3
			c0,0-1.5-4-7.5-4.5h-30.7V48.7z"/>
		<path fill="#FFFFFF" d="M173.8,48.7c0,0-20,0.2-21.5,0s-9.3,2-6,7.7c0,0,3.6,5.5,6.5,6.9c0,0-3.5,3.2-11.3-0.5c0,0-8.6-5-5.9-13.3
			c0,0,1.5-4,7.5-4.5h30.7V48.7z"/>
	</g>
	<g>
		<path fill="#FFFFFF" d="M241.9,71.4h27.9c3.3,0,4.9,0.8,4.7,2.3c-0.2,2.2-4.3,7.7-12.4,16.4c-3.8-3.3-7.1-6.7-10-10h-10.7
			l-1.3,4.7c3.6,4.5,7.9,9.1,13,14c-2.9,2.7-5.8,5.4-8.7,8c-4.5,3.3-17,11.8-24.8,16c10,0,23.4-5,27.2-5.7c3.8-0.7,7.2-2.3,10.4-5
			c0.7-0.9,1.7-1.8,3-2.7c0.9-0.4,1.7-0.9,2.3-1.3l4.7,4c2.7,2.7,5.9,4.5,9.7,5.4c3.3,0.7,9.5,1,18.4,1c-7.8-6-15.7-12.5-23.7-19.4
			c6-6.5,11.3-12.7,15.7-18.7c0.9-1.6,1.4-3.5,1.7-5.7c0-4.2-3-6.4-9-6.4H244"/>
		<polygon fill="#FFFFFF" points="246.9,74.7 238.7,82.9 243,88.2 254.1,82.3 		"/>
		<path fill="#FFFFFF" d="M241.4,80.1"/>
		<polygon fill="#FFFFFF" points="241.4,80.1 241.4,80.1 241.4,80.1 		"/>
		<path fill="#FFFFFF" d="M210.8,85c0,0,5.8,2.2,3.5-3.6c0,0-2.4-7.4-14.7-6.8c0,0-9.7-0.4-13,17.1c0,0-1.6,16.7,1.5,20.5
			c0,0,2.7,5.7,12.3,5.1h20.9c0,0,5.7,0.6,10.4-9.4l3.1-24.1l1.4-13.3l-6.8,0.5l-11.2,34.6c0,0-1.8,5.5-10.9,4.2
			c0,0-9.1,0.5-12.2-7.9c0,0-3.4-11.7,2.3-16.6C197.5,85.5,201.6,79.3,210.8,85z"/>
		<path fill="#FFFFFF" d="M247.5,56.3c0.9-4.2,1.9-8.4,3-12.4h-13.7c-0.4,1.6-1,3.7-1.7,6.4c-0.9,2.7-1.5,4.7-1.7,6h-20.1v3.7h19.1
			c-3.6,13.6-6.5,23.5-8.7,29.8c-1.1,2.7-1.4,5.2-2.4,7.5l4.2,0.5l-2,7.2l-4.2,6.5l-6.3,0.9c-0.3,0.5-0.7,1-1,1.4
			c8.2,0,13.6-0.8,16.1-2.3c2.2-1.1,4.7-5.7,7.4-13.7c0.2-0.7,0.6-1.8,1-3.3c0.4-1.6,1.1-3.2,2-5l4.7-16.4c1.3-4.2,2.6-8.6,3.7-13
			h44.5v-3.7H247.5z"/>
	</g>
	<path fill="#FFFFFF" d="M23.9,97.3L5.7,120.2h18.9l9.4-9.4c0,0,18.1,17.5,29.3,15.3L23.9,97.3z"/>
	<path fill="#FFFFFF" d="M11,77.4c1.4,2.8,3.5,6.5,6.3,11c2.4,4.2,4.4,7.4,6,9.8h22.2c3.3-5.4,7.3-12.3,12-20.8V31.9h5.2v-4.7h-5.2
		V1.1H39.2v26.1h-9.9V1.1H11v26.1H4.7v4.7H11V77.4z M29.3,31.9h9.9v42.3c-0.7,1.4-1.7,3.1-3.1,5.2c-0.7,1-1.4,2.3-2.1,3.7
		c-0.7-0.7-1.6-2.1-2.6-4.2c-1-1.7-1.7-3.1-2.1-4.2V31.9z"/>
	<path fill="#FFFFFF" d="M23.4,96.4c0,0,17.8,29,36.9,29.9l-5-14.5L43.2,97.3l-5.4-6.1L23.4,96.4z"/>
</g>
</svg>
