<?xml version="1.0" encoding="utf-8"?>
<!-- Generator: Adobe Illustrator 18.0.0, SVG Export Plug-In . SVG Version: 6.00 Build 0)  -->
<!DOCTYPE svg PUBLIC "-//W3C//DTD SVG 1.1//EN" "http://www.w3.org/Graphics/SVG/1.1/DTD/svg11.dtd">
<svg version="1.1" id="图层_1" xmlns="http://www.w3.org/2000/svg" xmlns:xlink="http://www.w3.org/1999/xlink" x="0px" y="0px"
	 viewBox="0 0 210 100" enable-background="new 0 0 210 100" xml:space="preserve">
<g>
	<radialGradient id="SVGID_1_" cx="119.9948" cy="21.1889" r="9.5461" gradientUnits="userSpaceOnUse">
		<stop  offset="0" style="stop-color:#F29F0B"/>
		<stop  offset="1" style="stop-color:#ED8015"/>
	</radialGradient>
	<circle fill="url(#SVGID_1_)" cx="120" cy="21.2" r="9.5"/>
	<g>
		<g>
			<path fill="#13AE67" d="M61.7,44c0,0,5.8,27.9-2.6,29.2h-8.5v9.9h18.5c0,0,7.7-1.1,8.4-8.3c0.7-7.2-0.1-22.7-2.3-30.8L61.7,44z"
				/>
			<path fill="#13AE67" d="M63.7,60.7l13.6-4.1c0-0.4-0.1-0.8-0.2-1.2c-0.2-3.6-0.6-7-1.1-10.1h13.7v-3.6H75.4
				c-0.5-0.5-0.8-1.4-1.1-2.9c-0.2-1.2-0.5-2.2-0.7-2.9c11.6-11.8,17.2-19.3,17-22.4C90.3,8,86.2,5.1,78.3,4.8H45.4v3.6h24.9
				c4.3,0,6.5,1.3,6.5,4c-0.5,2.7-3.1,6.6-7.9,11.9c-1.7-2.6-3.4-5.3-5.1-7.9H49.7c5.3,7.7,9.2,16.1,11.6,25.3H41.8v3.6H62
				C62.8,50.4,63.4,55.6,63.7,60.7z"/>
			<path fill="#13AE67" d="M30.5,66.6c0,0,18.5,28.4,54.8,26.6c0,0,38.5,2.8,76.6-10.4l18.4-12.3l2.4,5.9c0,0-14.2,18.4-65.5,20.6
				c0,0-35.9,2.2-55.1-1.7c0,0-29.9-3.4-31.6-15.1V66.6z"/>
			<path fill="#13AE67" d="M85.3,70.5"/>
			<rect x="105.8" y="38.5" fill="#13AE67" width="28.2" height="4.2"/>
			<rect x="105.8" y="77.2" fill="#13AE67" width="21.8" height="5.8"/>
			<rect x="117.6" y="40.6" fill="#13AE67" width="10" height="39.5"/>
			<path fill="#13AE67" d="M114.1,41.4c0,0-13.6,10.4-18,11.4c0,0,9,3.5,13,0c0,0-8.5,9-15.1,10.1c0,0,10.6,4.2,15.4-0.7
				c0,0-10.1,12.1-17.6,12.9c0,0,8.5,3.2,15.6,1.2c0,0,7.3-2,12.5-12.8l1-22.1H114.1z"/>
			<path fill="#13AE67" d="M117.6,73c0,0.2,0,0.3,0,0.5c0,2-1.6,3.6-3.6,3.6c0,0-0.1,0-0.1,0c0.4,1.5,1.7,2.6,3.3,2.6
				c1.9,0,3.4-1.5,3.4-3.4C120.6,74.7,119.3,73.3,117.6,73z"/>
			<g>
				<path fill="#13AE67" d="M118.6,35.3c0,0,13.8,0.1,14.9,0s6.4,1.4,4.2,5.3c0,0-2.5,3.8-4.5,4.8c0,0,2.4,2.2,7.8-0.4
					c0,0,5.9-3.5,4-9.2c0,0-1.1-2.7-5.2-3.1h-21.2V35.3z"/>
				<path fill="#13AE67" d="M121.4,35.3c0,0-13.8,0.1-14.9,0c-1.1-0.1-6.4,1.4-4.2,5.3c0,0,2.5,3.8,4.5,4.8c0,0-2.4,2.2-7.8-0.4
					c0,0-5.9-3.5-4-9.2c0,0,1.1-2.7,5.2-3.1h21.2V35.3z"/>
			</g>
			<g>
				<path fill="#13AE67" d="M168.5,51h19.3c2.3,0,3.4,0.5,3.2,1.6c-0.2,1.5-3,5.3-8.6,11.3c-2.6-2.3-4.9-4.6-6.9-6.9h-7.4l-0.9,3.2
					c2.5,3.1,5.5,6.3,9,9.7c-2,1.8-4,3.7-6,5.5c-3.1,2.3-11.8,8.1-17.2,11.1c6.9,0,16.2-3.4,18.8-3.9c2.6-0.5,5-1.6,7.2-3.5
					c0.5-0.6,1.2-1.2,2.1-1.8c0.6-0.3,1.2-0.6,1.6-0.9l3.2,2.8c1.8,1.8,4.1,3.1,6.7,3.7c2.3,0.5,6.5,0.7,12.7,0.7
					c-5.4-4.2-10.9-8.6-16.4-13.4c4.2-4.5,7.8-8.8,10.9-12.9c0.6-1.1,1-2.4,1.2-3.9c0-2.9-2.1-4.4-6.2-4.4H170"/>
				<polygon fill="#13AE67" points="172,53.2 166.3,58.9 169.3,62.6 177,58.5 				"/>
				<path fill="#13AE67" d="M168.2,57"/>
				<polygon fill="#13AE67" points="168.2,57 168.2,57 168.2,57 				"/>
				<path fill="#13AE67" d="M147,60.4c0,0,4,1.5,2.4-2.5c0,0-1.7-5.1-10.1-4.7c0,0-6.7-0.3-9,11.9c0,0-1.1,11.5,1.1,14.2
					c0,0,1.9,3.9,8.5,3.5h14.4c0,0,3.9,0.4,7.2-6.5l2.1-16.6l1-9.2l-4.7,0.4l-7.7,23.9c0,0-1.2,3.8-7.5,2.9c0,0-6.3,0.4-8.5-5.5
					c0,0-2.4-8.1,1.6-11.4C137.9,60.7,140.7,56.4,147,60.4z"/>
				<path fill="#13AE67" d="M172.4,40.5c0.6-2.9,1.3-5.8,2.1-8.6H165c-0.3,1.1-0.7,2.5-1.2,4.4c-0.6,1.8-1,3.2-1.2,4.2h-13.9V43H162
					c-2.5,9.4-4.5,16.3-6,20.6c-0.7,1.9-1,3.6-1.6,5.2l2.9,0.4l-1.4,5l-2.9,4.5l-4.4,0.6c-0.2,0.4-0.5,0.7-0.7,1
					c5.7,0,9.4-0.5,11.1-1.6c1.5-0.8,3.2-3.9,5.1-9.5c0.2-0.5,0.4-1.2,0.7-2.3c0.3-1.1,0.8-2.2,1.4-3.5l3.2-11.3
					c0.9-2.9,1.8-5.9,2.5-9h30.7v-2.5H172.4z"/>
			</g>
			<path fill="#13AE67" d="M17.9,68.9L5.3,84.7h13.1l6.5-6.5c0,0,12.5,12.1,20.2,10.6L17.9,68.9z"/>
			<path fill="#13AE67" d="M8.9,55.1c1,1.9,2.4,4.5,4.3,7.6c1.6,2.9,3,5.1,4.1,6.8h15.4c2.3-3.7,5-8.5,8.3-14.4V23.7h3.6v-3.3h-3.6
				V2.4H28.4v18.1h-6.9V2.4H8.9v18.1H4.6v3.3h4.3V55.1z M21.6,23.7h6.9V53c-0.5,1-1.2,2.2-2.2,3.6c-0.5,0.7-1,1.6-1.4,2.5
				c-0.5-0.5-1.1-1.4-1.8-2.9c-0.7-1.2-1.2-2.2-1.4-2.9V23.7z"/>
			<path fill="#13AE67" d="M17.5,68.3c0,0,12.3,20,25.5,20.7l-3.5-10l-8.3-10l-3.7-4.2L17.5,68.3z"/>
		</g>
	</g>
</g>
</svg>
