<?xml version="1.0" encoding="utf-8"?>
<!-- Generator: Adobe Illustrator 18.0.0, SVG Export Plug-In . SVG Version: 6.00 Build 0)  -->
<!DOCTYPE svg PUBLIC "-//W3C//DTD SVG 1.1//EN" "http://www.w3.org/Graphics/SVG/1.1/DTD/svg11.dtd">
<svg version="1.1" id="图层_1" xmlns="http://www.w3.org/2000/svg" xmlns:xlink="http://www.w3.org/1999/xlink" x="0px" y="0px"
	 viewBox="0 0 160 160" enable-background="new 0 0 160 160" xml:space="preserve">
<g>
	<path fill="#FFFFFF" d="M60.7,147.5c-4.8,0-11.4-2.8-14.8-6.1l-27.3-27.3c-3.4-3.4-6.1-10-6.1-14.8V60.7c0-4.8,2.8-11.4,6.1-14.8
		l27.3-27.3c3.4-3.4,10-6.1,14.8-6.1h38.6c4.8,0,11.4,2.8,14.8,6.1l27.3,27.3c3.4,3.4,6.1,10,6.1,14.8v38.6c0,4.8-2.8,11.4-6.1,14.8
		l-27.3,27.3c-3.4,3.4-10,6.1-14.8,6.1H60.7z"/>
</g>
</svg>
