<?xml version="1.0" encoding="utf-8"?><svg id="数学-计算器" image-rendering="auto" baseProfile="basic" version="1.1" x="0px" y="0px" width="72" height="72" xmlns="http://www.w3.org/2000/svg" xmlns:xlink="http://www.w3.org/1999/xlink"><g id=".__E5.__9C.__BA.__E6.__99.__AF_1" overflow="visible"><path fill="none" stroke="#8FA1D2" stroke-width="4" stroke-linecap="round" stroke-linejoin="round" d="M3.5,36L68.5,36"/><path fill="none" stroke="#8FA1D2" stroke-width="4" stroke-linecap="round" stroke-linejoin="round" d="M36,3.5L36,68.5"/><path fill="none" stroke="#8FA1D2" stroke-width="4" stroke-linecap="round" stroke-linejoin="round" d="M68.5,13.5Q68.5,3.5 58.5,3.5L13.5,3.5Q3.5,3.5 3.5,13.5L3.5,58.5Q3.5,68.5 13.5,68.5L58.5,68.5Q68.5,68.5 68.5,58.5L68.5,13.5"/><g transform="matrix(1 0 0 1 18.5 11.7)" opacity="1" id=".__E5.__85.__83.__E4.__BB.__B6_31"><path fill="#8FA1D2" d="M0.6,0.6Q0,1.15 0,2L0,15.25Q0,16.1 0.6,16.7 1.15,17.25 2,17.25 2.85,17.25 3.45,16.7 4,16.1 4,15.25L4,2Q4,1.15 3.45,0.6 2.85,0 2,0 1.15,0 0.6,0.6"/><animateTransform attributeName="transform" additive="replace" type="translate" repeatCount="indefinite" dur="2.042s" keyTimes="0;1" values="20.5,11.7;20.5,11.7"/><animateTransform attributeName="transform" additive="sum" type="scale" repeatCount="indefinite" dur="2.042s" keyTimes="0;0.082;1" values="1,0.078;1,1;1,1"/><animateTransform attributeName="transform" additive="sum" type="translate" repeatCount="indefinite" dur="2.042s" keyTimes="0;1" values="-2,0;-2,0"/><animate attributeName="opacity" repeatCount="indefinite" dur="2.042s" keyTimes="0;0.082;1" values="0;1;1"/></g><g><g transform="matrix(0 1 1 0 11.9 18.3)" opacity="1" id=".__E5.__85.__83.__E4.__BB.__B6_31"><path fill="#8FA1D2" d="M0.6,0.6Q0,1.15 0,2L0,15.25Q0,16.1 0.6,16.7 1.15,17.25 2,17.25 2.85,17.25 3.45,16.7 4,16.1 4,15.25L4,2Q4,1.15 3.45,0.6 2.85,0 2,0 1.15,0 0.6,0.6"/><animateTransform attributeName="transform" additive="replace" type="translate" repeatCount="indefinite" dur="2.042s" keyTimes="0;1" values="11.9,20.3;11.9,20.3"/><animateTransform attributeName="transform" additive="sum" type="rotate" repeatCount="indefinite" dur="2.042s" keyTimes="0;1" values="-90,0,0;-90,0,0"/><animateTransform attributeName="transform" additive="sum" type="skewY" repeatCount="indefinite" dur="2.042s" keyTimes="0;1" values="180;180"/><animateTransform attributeName="transform" additive="sum" type="scale" repeatCount="indefinite" dur="2.042s" keyTimes="0;0.122;0.204;1" values="1,0.101;1,0.101;1,1;1,1"/><animateTransform attributeName="transform" additive="sum" type="scale" repeatCount="indefinite" dur="2.042s" keyTimes="0;1" values="-1,1;-1,1"/><animateTransform attributeName="transform" additive="sum" type="translate" repeatCount="indefinite" dur="2.042s" keyTimes="0;1" values="-2,0;-2,0"/><animate attributeName="opacity" repeatCount="indefinite" dur="2.042s" keyTimes="0;0.122;0.204;1" values="0;0;1;1"/></g><animate attributeName="display" repeatCount="indefinite" dur="2.042s" keyTimes="0;0.122;1" values="none;inline;none"/></g><g transform="matrix(0 1 1 0 43.8 14.2)" opacity="1" id=".__E5.__85.__83.__E4.__BB.__B6_31"><path fill="#8FA1D2" d="M0.6,0.6Q0,1.15 0,2L0,15.25Q0,16.1 0.6,16.7 1.15,17.25 2,17.25 2.85,17.25 3.45,16.7 4,16.1 4,15.25L4,2Q4,1.15 3.45,0.6 2.85,0 2,0 1.15,0 0.6,0.6"/><animateTransform attributeName="transform" additive="replace" type="translate" repeatCount="indefinite" dur="2.042s" keyTimes="0;1" values="43.8,16.2;43.8,16.2"/><animateTransform attributeName="transform" additive="sum" type="rotate" repeatCount="indefinite" dur="2.042s" keyTimes="0;1" values="-90,0,0;-90,0,0"/><animateTransform attributeName="transform" additive="sum" type="skewY" repeatCount="indefinite" dur="2.042s" keyTimes="0;1" values="180;180"/><animateTransform attributeName="transform" additive="sum" type="scale" repeatCount="indefinite" dur="2.042s" keyTimes="0;0.082;1" values="1,0.116;1,1;1,1"/><animateTransform attributeName="transform" additive="sum" type="scale" repeatCount="indefinite" dur="2.042s" keyTimes="0;1" values="-1,1;-1,1"/><animateTransform attributeName="transform" additive="sum" type="translate" repeatCount="indefinite" dur="2.042s" keyTimes="0;1" values="-2,0;-2,0"/><animate attributeName="opacity" repeatCount="indefinite" dur="2.042s" keyTimes="0;0.082;1" values="0;1;1"/></g><g><g transform="matrix(0 1 -1 0 61.05 23.2)" opacity="1" id=".__E5.__85.__83.__E4.__BB.__B6_31"><path fill="#8FA1D2" d="M0.6,0.6Q0,1.15 0,2L0,15.25Q0,16.1 0.6,16.7 1.15,17.25 2,17.25 2.85,17.25 3.45,16.7 4,16.1 4,15.25L4,2Q4,1.15 3.45,0.6 2.85,0 2,0 1.15,0 0.6,0.6"/><animateTransform attributeName="transform" additive="replace" type="translate" repeatCount="indefinite" dur="2.042s" keyTimes="0;1" values="61.05,25.2;61.05,25.2"/><animateTransform attributeName="transform" additive="sum" type="rotate" repeatCount="indefinite" dur="2.042s" keyTimes="0;1" values="90,0,0;90,0,0"/><animateTransform attributeName="transform" additive="sum" type="scale" repeatCount="indefinite" dur="2.042s" keyTimes="0;0.122;0.204;1" values="1,0.11;1,0.11;1,1;1,1"/><animateTransform attributeName="transform" additive="sum" type="translate" repeatCount="indefinite" dur="2.042s" keyTimes="0;1" values="-2,0;-2,0"/><animate attributeName="opacity" repeatCount="indefinite" dur="2.042s" keyTimes="0;0.122;0.204;1" values="0;0;1;1"/></g><animate attributeName="display" repeatCount="indefinite" dur="2.042s" keyTimes="0;0.122;1" values="none;inline;none"/></g><g id=".__E5.__85.__83.__E4.__BB.__B6_32" transform="matrix(1 0 0 1 20.45 51.95)" opacity="1"><animateTransform attributeName="transform" additive="replace" type="translate" repeatCount="indefinite" dur="2.042s" keyTimes="0;1" values="20.45,51.95;20.45,51.95"/><animateTransform attributeName="transform" additive="sum" type="rotate" repeatCount="indefinite" dur="2.042s" keyTimes="0;0.367;1" values="180,0,0;720,0,0;720,0,0"/><animateTransform attributeName="transform" additive="sum" type="scale" repeatCount="indefinite" dur="2.042s" keyTimes="0;0.367;1" values="0.1,0.1;1,1;1,1"/><animate attributeName="opacity" repeatCount="indefinite" dur="2.042s" keyTimes="0;0.367;1" values="0;1;1"/><path fill="#8FA1D2" d="M6.1,-3.3Q6.7,-3.9 6.7,-4.7 6.7,-5.5 6.1,-6.1 5.5,-6.7 4.7,-6.7 3.9,-6.7 3.3,-6.1L0.05,-2.85 -3.2,-6.1Q-3.8,-6.7 -4.6,-6.7 -5.45,-6.75 -6.05,-6.15 -6.65,-5.55 -6.65,-4.65 -6.6,-3.9 -6,-3.3L-2.75,-0.05 -6.05,3.25Q-6.65,3.85 -6.7,4.7 -6.7,5.5 -6.1,6.1 -5.5,6.7 -4.7,6.7 -3.85,6.65 -3.25,6.05L0.05,2.75 3.35,6.05Q3.95,6.65 4.7,6.7 5.55,6.65 6.15,6.05 6.75,5.45 6.75,4.65 6.75,3.85 6.15,3.25L2.85,-0.05 6.1,-3.3"/></g><g transform="matrix(0 1 1 0 43.8 49.75)" opacity="1" id=".__E5.__85.__83.__E4.__BB.__B6_31"><path fill="#8FA1D2" d="M0.6,0.6Q0,1.15 0,2L0,15.25Q0,16.1 0.6,16.7 1.15,17.25 2,17.25 2.85,17.25 3.45,16.7 4,16.1 4,15.25L4,2Q4,1.15 3.45,0.6 2.85,0 2,0 1.15,0 0.6,0.6"/><animateTransform attributeName="transform" additive="replace" type="translate" repeatCount="indefinite" dur="2.042s" keyTimes="0;1" values="43.8,51.75;43.8,51.75"/><animateTransform attributeName="transform" additive="sum" type="rotate" repeatCount="indefinite" dur="2.042s" keyTimes="0;1" values="-90,0,0;-90,0,0"/><animateTransform attributeName="transform" additive="sum" type="skewY" repeatCount="indefinite" dur="2.042s" keyTimes="0;1" values="180;180"/><animateTransform attributeName="transform" additive="sum" type="scale" repeatCount="indefinite" dur="2.042s" keyTimes="0;0.143;1" values="1,0.087;1,1;1,1"/><animateTransform attributeName="transform" additive="sum" type="scale" repeatCount="indefinite" dur="2.042s" keyTimes="0;1" values="-1,1;-1,1"/><animateTransform attributeName="transform" additive="sum" type="translate" repeatCount="indefinite" dur="2.042s" keyTimes="0;1" values="-2,0;-2,0"/><animate attributeName="opacity" repeatCount="indefinite" dur="2.042s" keyTimes="0;0.143;1" values="0;1;1"/></g><g><g transform="matrix(1 0 0 1 52.4 45.4)" id=".__E5.__85.__83.__E4.__BB.__B6_30"><path fill="#8FA1D2" d="M1.575,-1.625Q0.991,-2.249 0,-2.25 -0.928,-2.245 -1.575,-1.675 -1.627,-1.63 -1.675,-1.575 -2.234,-0.924 -2.25,0 -2.249,0.991 -1.625,1.575 -0.956,2.247 0,2.25 0.95,2.254 1.525,1.625 1.557,1.598 1.575,1.575 1.601,1.551 1.625,1.525 2.24,0.931 2.25,0 2.247,-0.956 1.575,-1.625"/><animateTransform attributeName="transform" additive="replace" type="translate" repeatCount="indefinite" dur="2.042s" keyTimes="0;0.184;0.245;0.306;0.367;1" values="52.4,40.4;52.4,40.4;52.4,45.4;52.4,40.4;52.4,45.4;52.4,45.4"/></g><animate attributeName="display" repeatCount="indefinite" dur="2.042s" keyTimes="0;0.184;1" values="none;inline;none"/></g><g><g transform="matrix(1 0 0 1 52.4 58.4)" id=".__E5.__85.__83.__E4.__BB.__B6_30"><path fill="#8FA1D2" d="M1.575,-1.625Q0.991,-2.249 0,-2.25 -0.928,-2.245 -1.575,-1.675 -1.627,-1.63 -1.675,-1.575 -2.234,-0.924 -2.25,0 -2.249,0.991 -1.625,1.575 -0.956,2.247 0,2.25 0.95,2.254 1.525,1.625 1.557,1.598 1.575,1.575 1.601,1.551 1.625,1.525 2.24,0.931 2.25,0 2.247,-0.956 1.575,-1.625"/><animateTransform attributeName="transform" additive="replace" type="translate" repeatCount="indefinite" dur="2.042s" keyTimes="0;0.184;0.245;0.306;0.367;1" values="52.4,63.4;52.4,63.4;52.4,58.4;52.4,63.4;52.4,58.4;52.4,58.4"/></g><animate attributeName="display" repeatCount="indefinite" dur="2.042s" keyTimes="0;0.184;1" values="none;inline;none"/></g></g></svg>