<?xml version="1.0" encoding="utf-8"?><svg id="小圆点" image-rendering="auto" baseProfile="basic" version="1.1" x="0px" y="0px" width="80" height="40" xmlns="http://www.w3.org/2000/svg" xmlns:xlink="http://www.w3.org/1999/xlink"><g id=".__E5.__9C.__BA.__E6.__99.__AF_1" overflow="visible"><g transform="matrix(1 0 0 1 33.55 13.5)" opacity="0.2" id="Loading_icon_4_elements_icon_4__element_01"><path fill="#FFF" d="M15,7.5Q15,4.4 12.8,2.2 10.6,0 7.5,0 4.4,0 2.2,2.2 0,4.4 0,7.5 0,10.6 2.2,12.8 4.4,15 7.5,15 10.6,15 12.8,12.8 15,10.6 15,7.5"/></g><g transform="matrix(1 0 0 1 13.55 13.5)" opacity="0.2" id="Loading_icon_4_elements_icon_4__element_01"><path fill="#FFF" d="M15,7.5Q15,4.4 12.8,2.2 10.6,0 7.5,0 4.4,0 2.2,2.2 0,4.4 0,7.5 0,10.6 2.2,12.8 4.4,15 7.5,15 10.6,15 12.8,12.8 15,10.6 15,7.5"/></g><g transform="matrix(1 0 0 1 53.55 13.5)" opacity="0.2" id="Loading_icon_4_elements_icon_4__element_01"><path fill="#FFF" d="M15,7.5Q15,4.4 12.8,2.2 10.6,0 7.5,0 4.4,0 2.2,2.2 0,4.4 0,7.5 0,10.6 2.2,12.8 4.4,15 7.5,15 10.6,15 12.8,12.8 15,10.6 15,7.5"/></g><g transform="matrix(1 0 0 1 13.55 13.5)" opacity="0" id="Loading_icon_4_elements_icon_4__element_01"><path fill="#FFF" d="M15,7.5Q15,4.4 12.8,2.2 10.6,0 7.5,0 4.4,0 2.2,2.2 0,4.4 0,7.5 0,10.6 2.2,12.8 4.4,15 7.5,15 10.6,15 12.8,12.8 15,10.6 15,7.5"/><animate attributeName="opacity" repeatCount="indefinite" dur="0.958s" keyTimes="0;0.391;1" values="1;0;0"/></g><g><g transform="matrix(1 0 0 1 33.55 13.5)" opacity="0" id="Loading_icon_4_elements_icon_4__element_01"><path fill="#FFF" d="M15,7.5Q15,4.4 12.8,2.2 10.6,0 7.5,0 4.4,0 2.2,2.2 0,4.4 0,7.5 0,10.6 2.2,12.8 4.4,15 7.5,15 10.6,15 12.8,12.8 15,10.6 15,7.5"/><animate attributeName="opacity" repeatCount="indefinite" dur="0.958s" keyTimes="0;0.217;0.696;1" values="1;1;0;0"/></g><animate attributeName="display" repeatCount="indefinite" dur="0.958s" keyTimes="0;0.217;1" values="none;inline;none"/></g><g><g transform="matrix(1 0 0 1 53.55 13.5)" opacity="0" id="Loading_icon_4_elements_icon_4__element_01"><path fill="#FFF" d="M15,7.5Q15,4.4 12.8,2.2 10.6,0 7.5,0 4.4,0 2.2,2.2 0,4.4 0,7.5 0,10.6 2.2,12.8 4.4,15 7.5,15 10.6,15 12.8,12.8 15,10.6 15,7.5"/><animate attributeName="opacity" repeatCount="indefinite" dur="0.958s" keyTimes="0;0.522;0.957;1" values="1;1;0;0"/></g><animate attributeName="display" repeatCount="indefinite" dur="0.958s" keyTimes="0;0.522;1" values="none;inline;none"/></g></g></svg>