<?xml version="1.0" encoding="utf-8"?><svg id="英语-展示牌" image-rendering="auto" baseProfile="basic" version="1.1" x="0px" y="0px" width="120" height="100" xmlns="http://www.w3.org/2000/svg" xmlns:xlink="http://www.w3.org/1999/xlink"><g id=".__E5.__9C.__BA.__E6.__99.__AF_1" overflow="visible"><g id=".__E5.__85.__83.__E4.__BB.__B6_20" transform="matrix(1 0 0 1 60 53.2)"><animateTransform attributeName="transform" additive="replace" type="translate" repeatCount="indefinite" dur="3.292s" keyTimes="0;0.24;0.494;0.747;0.999;1" values="60,20.45;59.965,20.46;60,20.45;60.003,20.523;60,20.45;60,20.45"/><animateTransform attributeName="transform" additive="sum" type="rotate" repeatCount="indefinite" dur="3.292s" keyTimes="0;0.24;0.494;0.747;0.999;1" values="0,0,0;24.94,0,0;0,0,0;-19.497,0,0;0,0,0;0,0,0"/><animateTransform attributeName="transform" additive="sum" type="scale" repeatCount="indefinite" dur="3.292s" keyTimes="0;0.24;0.494;0.747;0.999;1" values="1,1;0.999,0.999;1,1;0.999,0.999;1,1;1,1"/><animateTransform attributeName="transform" additive="sum" type="translate" repeatCount="indefinite" dur="3.292s" keyTimes="0;0.24;0.494;0.747;0.999;1" values="0,32.75;0,32.7;0,32.75;0,32.65;0,32.75;0,32.75"/><path fill="none" stroke="#A1CE72" stroke-width="4" stroke-linecap="round" stroke-linejoin="round" d="M-1,-32.75L-19.5,-14.25"/><path fill="none" stroke="#A1CE72" stroke-width="4" stroke-linecap="round" stroke-linejoin="round" d="M-1.5,-32.75L17,-14.25"/><path fill="none" stroke="#A1CE72" stroke-width="4" stroke-linecap="round" stroke-linejoin="round" d="M34,-3.7Q34,-13.7 24,-13.7L-24,-13.7Q-34,-13.7 -34,-3.7L-34,22.8Q-34,32.8 -24,32.8L24,32.8Q34,32.8 34,22.8L34,-3.7"/><path fill="#A1CE72" d="M-17.3,-0.35L-21.5,-0.35 -28.95,19.15 -25.15,19.15 -23.4,14.3 -15.55,14.3 -13.8,19.15 -9.85,19.15 -17.3,-0.35 M-16.6,11.25L-22.35,11.25 -19.45,3.1 -16.6,11.25"/><path fill="#A1CE72" d="M28.7,6.85Q28.4,3.5 26.15,1.4 23.75,-0.85 19.6,-0.85 14.95,-0.85 12.45,2.2 10.25,4.95 10.25,9.4 10.25,13.8 12.45,16.6 14.85,19.65 19.15,19.65 27.7,19.65 28.7,11.7L24.95,11.7Q24.7,13.7 23.65,14.95 22.25,16.65 19.8,16.65 17.2,16.65 15.55,14.7 13.9,12.8 13.9,9.8 13.9,6.1 15.55,4.05 17,2.2 19.55,2.2 21.75,2.2 23.25,3.4 24.7,4.7 24.95,6.85L28.7,6.85"/><path fill="#A1CE72" d="M5.25,8.55Q6.25,8.05 6.75,7.4 7.55,6.4 7.55,4.55 7.55,-0.35 2.7,-0.35L-8.35,-0.35 -8.35,19.15 2.6,19.15Q5.65,19.15 7.15,17.1 8.3,15.55 8.3,13.4 8.3,9.7 5.25,8.55 M-4.85,10.45L2,10.45Q3.2,10.45 3.9,11.2 4.65,11.95 4.65,13.25 4.65,14.9 3.65,15.6 2.9,16.05 1.45,16.05L-4.85,16.05 -4.85,10.45 M-4.85,2.75L1.1,2.75Q4,2.75 4,5.1 4,7.6 1.7,7.6L-4.85,7.6 -4.85,2.75"/></g><path fill="#A1CE72" d="M59.6,29Q62.7,29 64.9,26.75 67.1,24.6 67.1,21.5 67.1,18.4 64.9,16.15 62.7,14 59.6,14 56.5,14 54.3,16.15 52.1,18.4 52.1,21.5 52.1,24.6 54.3,26.75 56.5,29 59.6,29"/></g></svg>