<?xml version="1.0" encoding="utf-8"?><svg id="语文-写字" image-rendering="auto" baseProfile="basic" version="1.1" x="0px" y="0px" width="100" height="100" xmlns="http://www.w3.org/2000/svg" xmlns:xlink="http://www.w3.org/1999/xlink"><g id=".__E5.__9C.__BA.__E6.__99.__AF_1" overflow="visible"><path fill="#E69F66" d="M78.4,32.85L74.6,32.85 74.55,78.15 27.8,78.1 27.8,25.95 62,25.95 66,22.15 29.25,22.15Q28.95,22.15 28.5,22.25 27.6,22.4 26.85,22.85 24.4,24.2 24,27.45L24,76.35 24.1,77.25Q24.25,78.3 24.75,79.2 26.3,82 30.2,82L73.05,82 73.8,81.9Q74.75,81.65 75.55,81.2 78.15,79.8 78.4,76.6L78.4,32.85"/><path fill="#E69F66" d="M78.4,27.75L78.3,26.85Q78.15,25.8 77.65,24.9 76.1,22.1 72.2,22.1L58.95,22.1 58.95,25.95 74.6,26 74.6,32.85 78.4,32.85 78.4,27.75"/><g transform="matrix(1 0 0 1 37.5 37.2)" id=".__E5.__85.__83.__E4.__BB.__B6_4"><path fill="#E69F66" d="M26.6,0L26.45,0.05 0.7,0.05Q0.35,0.05 0.15,0.3 0.05,0.45 0,0.6L0,2.15Q0.05,2.7 0.5,2.9 0.75,2.95 0.95,2.95L26.1,2.95Q26.7,3.05 27.05,2.75 27.25,2.6 27.25,2.4L27.25,1.25Q27.3,0.35 26.9,0.1 26.75,0 26.6,0"/><animateTransform attributeName="transform" additive="replace" type="translate" repeatCount="indefinite" dur="3.708s" keyTimes="0;1" values="37.5,38.65;37.5,38.65"/><animateTransform attributeName="transform" additive="sum" type="scale" repeatCount="indefinite" dur="3.708s" keyTimes="0;0.157;1" values="0.07,1;1,1;1,1"/><animateTransform attributeName="transform" additive="sum" type="translate" repeatCount="indefinite" dur="3.708s" keyTimes="0;1" values="0,-1.45;0,-1.45"/></g><g style="display:none;"><g transform="matrix(1 0 0 1 64.05 13)" id=".__E5.__85.__83.__E4.__BB.__B6_2"><path fill="#E69F66" d="M21.05,5.3L21.15,5.05Q21.3,4.8 21.35,4.5 21.6,3.5 21.05,2.6 20.8,2.25 20.45,1.8 19.65,0.9 18.75,0.4 18.3,0.15 17.65,0.05 16.35,-0.15 15.55,0.65L14.05,2.4 19.8,6.9 21.05,5.3"/><path fill="#E69F66" d="M18,9.25L12.25,4.75 1.85,18.5Q1.1,19.45 0.85,20.3 0.75,20.7 0.75,20.9L0,25.7Q0.15,26.7 0.8,26.8 1.1,26.85 1.4,26.7L5.75,24.65Q6.7,24.2 7.55,23.2 7.95,22.7 8.15,22.3L18,9.25"/><path fill="#FFF" d="M18.025,9.275L20.25,6.3 14.5,1.8 12.25,4.75 18.025,9.275"/><animateTransform attributeName="transform" additive="replace" type="translate" repeatCount="indefinite" dur="3.708s" keyTimes="0;0.157;1" values="37.5,13;64.05,13;64.05,13"/></g><animate attributeName="display" repeatCount="indefinite" dur="3.708s" keyTimes="0;0.213;1" values="inline;none;none"/></g><g><g transform="matrix(1 0 0 1 37.5 46.7)" opacity="1" id=".__E5.__85.__83.__E4.__BB.__B6_4"><path fill="#E69F66" d="M26.6,0L26.45,0.05 0.7,0.05Q0.35,0.05 0.15,0.3 0.05,0.45 0,0.6L0,2.15Q0.05,2.7 0.5,2.9 0.75,2.95 0.95,2.95L26.1,2.95Q26.7,3.05 27.05,2.75 27.25,2.6 27.25,2.4L27.25,1.25Q27.3,0.35 26.9,0.1 26.75,0 26.6,0"/><animateTransform attributeName="transform" additive="replace" type="translate" repeatCount="indefinite" dur="3.708s" keyTimes="0;1" values="37.5,48.15;37.5,48.15"/><animateTransform attributeName="transform" additive="sum" type="scale" repeatCount="indefinite" dur="3.708s" keyTimes="0;0.214;0.405;1" values="0.055,1;0.055,1;1,1;1,1"/><animateTransform attributeName="transform" additive="sum" type="translate" repeatCount="indefinite" dur="3.708s" keyTimes="0;1" values="0,-1.45;0,-1.45"/><animate attributeName="opacity" repeatCount="indefinite" dur="3.708s" keyTimes="0;0.214;0.405;1" values="0;0;1;1"/></g><animate attributeName="display" repeatCount="indefinite" dur="3.708s" keyTimes="0;0.213;1" values="none;inline;none"/></g><g style="display:none;"><g transform="matrix(1 0 0 1 62.55 22.4)" id=".__E5.__85.__83.__E4.__BB.__B6_2"><path fill="#E69F66" d="M21.05,5.3L21.15,5.05Q21.3,4.8 21.35,4.5 21.6,3.5 21.05,2.6 20.8,2.25 20.45,1.8 19.65,0.9 18.75,0.4 18.3,0.15 17.65,0.05 16.35,-0.15 15.55,0.65L14.05,2.4 19.8,6.9 21.05,5.3"/><path fill="#E69F66" d="M18,9.25L12.25,4.75 1.85,18.5Q1.1,19.45 0.85,20.3 0.75,20.7 0.75,20.9L0,25.7Q0.15,26.7 0.8,26.8 1.1,26.85 1.4,26.7L5.75,24.65Q6.7,24.2 7.55,23.2 7.95,22.7 8.15,22.3L18,9.25"/><path fill="#FFF" d="M18.025,9.275L20.25,6.3 14.5,1.8 12.25,4.75 18.025,9.275"/><animateTransform attributeName="transform" additive="replace" type="translate" repeatCount="indefinite" dur="3.708s" keyTimes="0;0.214;0.405;1" values="37.5,22.4;37.5,22.4;62.55,22.4;62.55,22.4"/></g><animate attributeName="display" repeatCount="indefinite" dur="3.708s" keyTimes="0;0.213;0.449;1" values="none;inline;none;none"/></g><g><g transform="matrix(1 0 0 1 37.5 56.2)" id=".__E5.__85.__83.__E4.__BB.__B6_4"><path fill="#E69F66" d="M26.6,0L26.45,0.05 0.7,0.05Q0.35,0.05 0.15,0.3 0.05,0.45 0,0.6L0,2.15Q0.05,2.7 0.5,2.9 0.75,2.95 0.95,2.95L26.1,2.95Q26.7,3.05 27.05,2.75 27.25,2.6 27.25,2.4L27.25,1.25Q27.3,0.35 26.9,0.1 26.75,0 26.6,0"/><animateTransform attributeName="transform" additive="replace" type="translate" repeatCount="indefinite" dur="3.708s" keyTimes="0;1" values="37.5,57.65;37.5,57.65"/><animateTransform attributeName="transform" additive="sum" type="scale" repeatCount="indefinite" dur="3.708s" keyTimes="0;0.461;0.629;1" values="0.022,1;0.022,1;1,1;1,1"/><animateTransform attributeName="transform" additive="sum" type="translate" repeatCount="indefinite" dur="3.708s" keyTimes="0;1" values="0,-1.45;0,-1.45"/></g><animate attributeName="display" repeatCount="indefinite" dur="3.708s" keyTimes="0;0.461;1" values="none;inline;none"/></g><g style="display:none;"><g transform="matrix(1 0 0 1 61.65 32)" id=".__E5.__85.__83.__E4.__BB.__B6_2"><path fill="#E69F66" d="M21.05,5.3L21.15,5.05Q21.3,4.8 21.35,4.5 21.6,3.5 21.05,2.6 20.8,2.25 20.45,1.8 19.65,0.9 18.75,0.4 18.3,0.15 17.65,0.05 16.35,-0.15 15.55,0.65L14.05,2.4 19.8,6.9 21.05,5.3"/><path fill="#E69F66" d="M18,9.25L12.25,4.75 1.85,18.5Q1.1,19.45 0.85,20.3 0.75,20.7 0.75,20.9L0,25.7Q0.15,26.7 0.8,26.8 1.1,26.85 1.4,26.7L5.75,24.65Q6.7,24.2 7.55,23.2 7.95,22.7 8.15,22.3L18,9.25"/><path fill="#FFF" d="M18.025,9.275L20.25,6.3 14.5,1.8 12.25,4.75 18.025,9.275"/><animateTransform attributeName="transform" additive="replace" type="translate" repeatCount="indefinite" dur="3.708s" keyTimes="0;0.461;0.629;1" values="37.5,32;37.5,32;61.65,32;61.65,32"/></g><animate attributeName="display" repeatCount="indefinite" dur="3.708s" keyTimes="0;0.461;0.685;1" values="none;inline;none;none"/></g><g><g id=".__E5.__85.__83.__E4.__BB.__B6_3" transform="matrix(1 0 0 1 37.5 65.8)"><animateTransform attributeName="transform" additive="replace" type="translate" repeatCount="indefinite" dur="3.708s" keyTimes="0;1" values="37.5,67.25;37.5,67.25"/><animateTransform attributeName="transform" additive="sum" type="scale" repeatCount="indefinite" dur="3.708s" keyTimes="0;0.697;0.876;1" values="0.083,1;0.083,1;1,1;1,1"/><animateTransform attributeName="transform" additive="sum" type="translate" repeatCount="indefinite" dur="3.708s" keyTimes="0;1" values="0,-1.45;0,-1.45"/><path fill="#D99660" d="M26.9,0.05Q26.75,0 26.6,0L0.7,0Q0.35,0 0.15,0.3 0.05,0.45 0,0.6L0,2.15Q0.05,2.65 0.5,2.85 0.75,2.95 0.95,2.9L26.1,2.9Q26.7,3 27.05,2.7 27.15,2.6 27.25,2.5L27.25,1.2Q27.3,0.3 26.9,0.05"/></g><animate attributeName="display" repeatCount="indefinite" dur="3.708s" keyTimes="0;0.697;1" values="none;inline;none"/></g><g><g transform="matrix(1 0 0 1 63.6 41.3)" id=".__E5.__85.__83.__E4.__BB.__B6_2"><path fill="#E69F66" d="M21.05,5.3L21.15,5.05Q21.3,4.8 21.35,4.5 21.6,3.5 21.05,2.6 20.8,2.25 20.45,1.8 19.65,0.9 18.75,0.4 18.3,0.15 17.65,0.05 16.35,-0.15 15.55,0.65L14.05,2.4 19.8,6.9 21.05,5.3"/><path fill="#E69F66" d="M18,9.25L12.25,4.75 1.85,18.5Q1.1,19.45 0.85,20.3 0.75,20.7 0.75,20.9L0,25.7Q0.15,26.7 0.8,26.8 1.1,26.85 1.4,26.7L5.75,24.65Q6.7,24.2 7.55,23.2 7.95,22.7 8.15,22.3L18,9.25"/><path fill="#FFF" d="M18.025,9.275L20.25,6.3 14.5,1.8 12.25,4.75 18.025,9.275"/><animateTransform attributeName="transform" additive="replace" type="translate" repeatCount="indefinite" dur="3.708s" keyTimes="0;0.697;0.876;1" values="37.5,41.3;37.5,41.3;63.6,41.3;63.6,41.3"/></g><animate attributeName="display" repeatCount="indefinite" dur="3.708s" keyTimes="0;0.697;1" values="none;inline;none"/></g></g></svg>