<?xml version="1.0" encoding="utf-8"?>
<!-- Generator: Adobe Illustrator 18.0.0, SVG Export Plug-In . SVG Version: 6.00 Build 0)  -->
<!DOCTYPE svg PUBLIC "-//W3C//DTD SVG 1.1//EN" "http://www.w3.org/Graphics/SVG/1.1/DTD/svg11.dtd">
<svg version="1.1" id="图层_1" xmlns="http://www.w3.org/2000/svg" xmlns:xlink="http://www.w3.org/1999/xlink" x="0px" y="0px"
	 viewBox="0 0 36 36" enable-background="new 0 0 36 36" xml:space="preserve">
<g>
	<path fill="#00A29A" d="M30.1,35H5.9C3.2,35,1,32.8,1,30.1V8.3c0-2.7,2.2-4.9,4.9-4.9h2.4v2.4H5.9c-1.3,0-2.4,1.1-2.4,2.4v2.4h29.1
		V8.3c0-1.3-1.1-2.4-2.4-2.4h-2.4V3.4h2.4c2.7,0,4.9,2.2,4.9,4.9v21.9C35,32.8,32.8,35,30.1,35L30.1,35z M32.6,13.1H3.4v17
		c0,1.3,1.1,2.4,2.4,2.4h24.3c1.3,0,2.4-1.1,2.4-2.4V13.1L32.6,13.1z M18,26.3l-1.9,1.9l-5.6-5.6v-0.2v-0.2l5.6-5.6l1.9,1.9
		l-2.9,2.9h11.1v2.7H15.8L18,26.3L18,26.3z M24.1,8.3c-0.7,0-1.2-0.5-1.2-1.2V2.2c0-0.7,0.5-1.2,1.2-1.2c0.7,0,1.2,0.5,1.2,1.2v4.9
		C25.3,7.7,24.7,8.3,24.1,8.3L24.1,8.3z M15.6,3.4h4.9v2.4h-4.9V3.4L15.6,3.4z M11.9,8.3c-0.7,0-1.2-0.5-1.2-1.2V2.2
		c0-0.7,0.5-1.2,1.2-1.2c0.7,0,1.2,0.5,1.2,1.2v4.9C13.1,7.7,12.6,8.3,11.9,8.3L11.9,8.3z M11.9,8.3"/>
</g>
</svg>
