<?xml version="1.0" encoding="utf-8"?>
<!-- Generator: Adobe Illustrator 18.0.0, SVG Export Plug-In . SVG Version: 6.00 Build 0)  -->
<!DOCTYPE svg PUBLIC "-//W3C//DTD SVG 1.1//EN" "http://www.w3.org/Graphics/SVG/1.1/DTD/svg11.dtd">
<svg version="1.1" id="图层_1" xmlns="http://www.w3.org/2000/svg" xmlns:xlink="http://www.w3.org/1999/xlink" x="0px" y="0px"
	 viewBox="0 0 36 36" enable-background="new 0 0 36 36" xml:space="preserve">
<g>
	<path fill="#EA5514" d="M30.1,35H5.9C3.2,35,1,32.8,1,30.1V8.3c0-2.7,2.2-4.9,4.9-4.9h2.4v2.4H5.9c-1.3,0-2.4,1.1-2.4,2.4v2.4h29.1
		V8.3c0-1.3-1.1-2.4-2.4-2.4h-2.4V3.4h2.4c2.7,0,4.9,2.2,4.9,4.9v21.9C35,32.8,32.8,35,30.1,35L30.1,35z M32.6,13.1H3.4v17
		c0,1.3,1.1,2.4,2.4,2.4h24.3c1.3,0,2.4-1.1,2.4-2.4V13.1L32.6,13.1z M24.1,8.3c-0.7,0-1.2-0.5-1.2-1.2V2.2c0-0.7,0.5-1.2,1.2-1.2
		c0.7,0,1.2,0.5,1.2,1.2v4.9C25.3,7.7,24.7,8.3,24.1,8.3L24.1,8.3z M15.6,3.4h4.9v2.4h-4.9V3.4L15.6,3.4z M11.9,8.3
		c-0.7,0-1.2-0.5-1.2-1.2V2.2c0-0.7,0.5-1.2,1.2-1.2c0.7,0,1.2,0.5,1.2,1.2v4.9C13.1,7.7,12.6,8.3,11.9,8.3L11.9,8.3z M11.9,8.3
		 M12.8,25.1H11l-1.6-2.8c-0.4-0.8-0.9-1.7-1.3-2.6l0,0c0,1,0.1,2,0.1,3.2v2.2H6.7v-7.4h2l1.5,2.7c0.4,0.8,0.9,1.7,1.2,2.5h0
		c-0.1-1-0.1-2-0.1-3.1v-2.2h1.5L12.8,25.1L12.8,25.1L12.8,25.1z M18.9,25.1h-4.7v-7.4h4.6v1.4h-2.9v1.5h2.7V22h-2.7v1.8h3
		L18.9,25.1L18.9,25.1L18.9,25.1z M27.1,25.1h-1.8l-0.6-3.2c-0.1-0.7-0.3-1.4-0.4-2.3h0c-0.1,0.8-0.3,1.5-0.4,2.3l-0.7,3.2h-1.8
		l-1.8-7.4h1.8l0.6,3c0.2,0.9,0.3,1.8,0.4,2.6h0c0.1-0.8,0.3-1.7,0.5-2.6l0.6-3h1.8l0.6,3.1c0.2,0.9,0.3,1.7,0.4,2.5h0
		c0.1-0.8,0.3-1.7,0.4-2.6l0.6-3H29L27.1,25.1L27.1,25.1L27.1,25.1z"/>
</g>
</svg>
