<?xml version="1.0" encoding="utf-8"?>
<!-- Generator: Adobe Illustrator 18.0.0, SVG Export Plug-In . SVG Version: 6.00 Build 0)  -->
<!DOCTYPE svg PUBLIC "-//W3C//DTD SVG 1.1//EN" "http://www.w3.org/Graphics/SVG/1.1/DTD/svg11.dtd">
<svg version="1.1" id="图层_1" xmlns="http://www.w3.org/2000/svg" xmlns:xlink="http://www.w3.org/1999/xlink" x="0px" y="0px"
	 viewBox="0 0 230 230" enable-background="new 0 0 230 230" xml:space="preserve">
<g>
	<g>
		<rect fill="#FFFFFF" width="230" height="230"/>
		<g>
			<polygon fill="#C8AC2E" points="26.6,18.9 26.6,20.6 32.9,20.6 34.8,20.6 35.5,20.6 35.5,14.1 32.9,14.1 32.9,18 29.2,18 
				29.2,11.6 45.5,11.6 45.5,17.9 41.8,17.9 41.8,14.1 39.2,14.1 39.2,20.5 39.9,20.5 41.8,20.5 48.1,20.5 48.1,18.8 48.1,17.9 
				48.1,11.6 48.1,11.6 48.1,9 26.6,9 26.6,10.7 26.6,11.6 26.6,18 			"/>
			<polygon fill="#C8AC2E" points="52.4,18.9 52.4,20.6 58.7,20.6 60.6,20.6 61.3,20.6 61.3,14.1 58.7,14.2 58.7,18 55,18 55,11.6 
				71.4,11.6 71.4,17.9 67.6,17.9 67.6,14.1 65,14.1 65,20.5 65.7,20.5 67.6,20.5 73.9,20.5 73.9,18.8 73.9,17.9 73.9,11.6 74,11.6 
				74,9 52.4,9 52.4,10.7 52.4,11.6 52.4,18 			"/>
			<polygon fill="#C8AC2E" points="78.2,18.9 78.3,20.6 84.6,20.6 86.4,20.6 87.1,20.6 87.1,14.1 84.6,14.2 84.6,18 80.8,18 
				80.8,11.6 97.2,11.6 97.2,17.9 93.4,17.9 93.4,14.1 90.9,14.1 90.9,20.5 91.6,20.5 93.4,20.5 99.8,20.5 99.8,18.8 99.8,17.9 
				99.8,11.6 99.8,11.6 99.8,9 78.2,9 78.2,10.7 78.2,11.6 78.2,18 			"/>
			<polygon fill="#C8AC2E" points="104.1,18.9 104.1,20.6 110.4,20.6 112.3,20.6 113,20.6 113,14.1 110.4,14.1 110.4,18 106.7,18 
				106.7,11.6 123,11.6 123,17.9 119.3,17.9 119.3,14.1 116.7,14.1 116.7,20.5 117.4,20.5 119.3,20.5 125.6,20.5 125.6,18.8 
				125.6,17.9 125.6,11.6 125.6,11.6 125.6,9 104.1,9 104.1,10.7 104.1,11.6 104.1,18 			"/>
			<polygon fill="#C8AC2E" points="129.9,18.9 129.9,20.6 136.2,20.6 138.1,20.6 138.8,20.6 138.8,14.1 136.2,14.1 136.2,18 
				132.5,18 132.5,11.6 148.8,11.6 148.9,17.9 145.1,17.9 145.1,14.1 142.5,14.1 142.5,20.5 143.2,20.5 145.1,20.5 151.4,20.5 
				151.4,18.8 151.4,17.9 151.4,11.6 151.4,11.6 151.5,9 129.9,9 129.9,10.7 129.9,11.6 129.9,18 			"/>
			<polygon fill="#C8AC2E" points="155.7,18.9 155.7,20.6 162,20.6 163.9,20.6 164.6,20.6 164.6,14.1 162,14.1 162,18 158.3,18 
				158.3,11.6 174.7,11.6 174.7,17.9 170.9,17.9 170.9,14.1 168.4,14.1 168.4,20.5 169.1,20.5 170.9,20.5 177.3,20.5 177.3,18.8 
				177.2,17.9 177.3,11.6 177.3,11.6 177.3,9 155.7,9 155.7,10.7 155.7,11.6 155.7,18 			"/>
			<polygon fill="#C8AC2E" points="181.6,18.9 181.6,20.6 187.9,20.6 189.8,20.6 190.5,20.6 190.5,14.1 187.9,14.1 187.9,18 
				184.2,18 184.1,11.6 200.5,11.6 200.5,17.9 196.8,17.9 196.8,14.1 194.2,14.1 194.2,20.5 194.9,20.5 196.8,20.5 203.1,20.5 
				203.1,18.8 203.1,17.9 203.1,11.6 203.1,11.6 203.1,9 181.6,9 181.6,10.7 181.6,11.6 181.6,18 			"/>
			<polygon fill="#C8AC2E" points="11.4,203.2 17.9,203.2 18.8,203.2 20.4,203.2 20.4,196.9 20.4,195 20.4,194.3 14,194.3 14,196.9 
				17.9,196.9 17.9,200.6 11.4,200.6 11.4,184.3 17.8,184.3 17.8,188 13.9,188 13.9,190.6 20.4,190.6 20.4,189.9 20.4,188 
				20.3,181.7 18.7,181.7 17.8,181.7 11.4,181.7 11.4,181.6 8.9,181.7 8.9,203.2 10.6,203.2 			"/>
			<polygon fill="#C8AC2E" points="11.5,177.4 17.9,177.4 18.8,177.4 20.4,177.3 20.4,171.1 20.4,169.2 20.4,168.5 14,168.5 14,171 
				17.9,171 17.9,174.8 11.4,174.8 11.4,158.4 17.8,158.4 17.8,162.2 13.9,162.2 13.9,164.7 20.4,164.7 20.4,164 20.4,162.2 
				20.4,155.8 18.7,155.9 17.8,155.8 11.4,155.9 11.4,155.8 8.9,155.8 8.9,177.4 10.6,177.4 			"/>
			<polygon fill="#C8AC2E" points="11.4,151.5 17.9,151.5 18.8,151.5 20.4,151.5 20.4,145.2 20.4,143.4 20.4,142.6 14,142.6 
				14,145.2 17.9,145.2 17.9,149 11.4,149 11.4,132.6 17.8,132.6 17.8,136.3 13.9,136.3 13.9,138.9 20.4,138.9 20.4,138.2 
				20.4,136.3 20.4,130 18.7,130 17.8,130 11.4,130 11.4,130 8.9,130 8.9,151.5 10.6,151.5 			"/>
			<polygon fill="#C8AC2E" points="11.4,125.7 17.9,125.7 18.8,125.7 20.4,125.7 20.4,119.4 20.4,117.5 20.4,116.8 14,116.8 
				14,119.4 17.8,119.4 17.9,123.1 11.4,123.1 11.4,106.8 17.8,106.8 17.8,110.5 13.9,110.5 13.9,113.1 20.3,113.1 20.4,112.4 
				20.4,110.5 20.4,104.2 18.7,104.2 17.8,104.2 11.4,104.2 11.4,104.2 8.9,104.2 8.9,125.7 10.6,125.7 			"/>
			<polygon fill="#C8AC2E" points="11.4,99.9 17.9,99.9 18.8,99.9 20.4,99.9 20.4,93.6 20.4,91.7 20.4,91 14,91 14,93.6 17.8,93.6 
				17.9,97.3 11.4,97.3 11.4,80.9 17.8,80.9 17.8,84.7 13.9,84.7 13.9,87.3 20.3,87.3 20.3,86.5 20.4,84.7 20.4,78.4 18.7,78.4 
				17.8,78.4 11.4,78.4 11.4,78.3 8.9,78.3 8.9,99.9 10.6,99.9 			"/>
			<polygon fill="#C8AC2E" points="11.4,74.1 17.9,74 18.8,74 20.4,74 20.4,67.7 20.4,65.9 20.4,65.1 14,65.2 14,67.7 17.9,67.7 
				17.9,71.5 11.4,71.5 11.4,55.1 17.8,55.1 17.8,58.9 13.9,58.9 13.9,61.4 20.3,61.4 20.4,60.7 20.4,58.9 20.4,52.5 18.7,52.5 
				17.8,52.5 11.4,52.5 11.4,52.5 8.9,52.5 8.9,74.1 10.6,74.1 			"/>
			<polygon fill="#C8AC2E" points="11.4,48.2 17.9,48.2 18.8,48.2 20.4,48.2 20.4,41.9 20.4,40 20.4,39.3 14,39.3 14,41.9 
				17.8,41.9 17.9,45.6 11.4,45.6 11.4,29.3 17.8,29.3 17.8,33 13.9,33 13.9,35.6 20.4,35.6 20.4,34.9 20.4,33 20.4,26.7 18.7,26.7 
				17.8,26.7 11.4,26.7 11.4,26.7 8.9,26.7 8.9,48.2 10.6,48.2 			"/>
			<polygon fill="#C8AC2E" points="203.2,211.1 203.2,209.4 196.9,209.4 195,209.4 194.3,209.4 194.3,215.9 196.9,215.9 196.9,212 
				200.6,212 200.6,218.4 184.3,218.4 184.2,212.1 188,212.1 188,215.9 190.6,215.9 190.6,209.5 189.9,209.5 188,209.5 181.7,209.5 
				181.7,211.2 181.7,212.1 181.7,218.4 181.6,218.4 181.6,221 203.2,221 203.2,219.3 203.2,218.4 203.2,212 			"/>
			<polygon fill="#C8AC2E" points="177.3,211.1 177.3,209.4 171,209.4 169.2,209.4 168.5,209.4 168.5,215.9 171,215.8 171,212 
				174.8,212 174.8,218.4 158.4,218.4 158.4,212.1 162.1,212.1 162.2,215.9 164.7,215.9 164.7,209.5 164,209.5 162.2,209.5 
				155.8,209.5 155.8,211.2 155.8,212.1 155.8,218.4 155.8,218.4 155.8,221 177.4,221 177.4,219.3 177.4,218.4 177.3,212 			"/>
			<polygon fill="#C8AC2E" points="151.5,211.1 151.5,209.4 145.2,209.4 143.3,209.4 142.6,209.4 142.6,215.9 145.2,215.9 
				145.2,212 148.9,212 148.9,218.4 132.6,218.4 132.6,212.1 136.3,212.1 136.3,215.9 138.9,215.9 138.9,209.5 138.2,209.5 
				136.3,209.5 130,209.5 130,211.2 130,212.1 130,218.4 130,218.4 130,221 151.5,221 151.5,219.3 151.5,218.4 151.5,212 			"/>
			<polygon fill="#C8AC2E" points="125.7,211.1 125.7,209.4 119.4,209.4 117.5,209.4 116.8,209.4 116.8,215.9 119.4,215.9 
				119.4,212 123.1,212 123.1,218.4 106.8,218.4 106.7,212.1 110.5,212.1 110.5,215.9 113.1,216 113.1,209.5 112.4,209.5 
				110.5,209.5 104.2,209.5 104.2,211.2 104.2,212.1 104.2,218.4 104.2,218.4 104.2,221 125.7,221 125.7,219.3 125.7,218.4 
				125.7,212 			"/>
			<polygon fill="#C8AC2E" points="99.9,211.1 99.8,209.4 93.6,209.4 91.7,209.4 91,209.4 91,215.9 93.6,215.9 93.5,212 97.3,212 
				97.3,218.4 80.9,218.4 80.9,212.1 84.7,212.1 84.7,215.9 87.2,215.9 87.2,209.5 86.5,209.5 84.7,209.5 78.4,209.5 78.4,211.2 
				78.3,212.1 78.3,218.4 78.3,218.4 78.3,221 99.9,221 99.8,219.3 99.8,218.4 99.8,212 			"/>
			<polygon fill="#C8AC2E" points="74,211.1 74,209.4 67.7,209.4 65.8,209.4 65.1,209.4 65.1,215.9 67.7,215.9 67.7,212 71.4,212 
				71.5,218.4 55.1,218.4 55.1,212.1 58.8,212.1 58.8,215.9 61.4,216 61.4,209.5 60.7,209.5 58.8,209.5 52.5,209.5 52.5,211.2 
				52.5,212.1 52.5,218.4 52.5,218.4 52.5,221 74,221 74,219.3 74,218.4 74,212 			"/>
			<polygon fill="#C8AC2E" points="48.2,211.1 48.2,209.4 41.9,209.4 40,209.4 39.3,209.4 39.3,215.9 41.9,215.9 41.9,212 45.6,212 
				45.6,218.4 29.3,218.4 29.3,212.1 33,212.1 33,215.9 35.6,215.9 35.6,209.5 34.9,209.5 33,209.5 26.7,209.5 26.7,211.2 
				26.7,212.1 26.7,218.4 26.7,218.4 26.7,221 48.2,221 48.2,219.3 48.2,218.4 48.2,212 			"/>
			<polygon fill="#C8AC2E" points="218.3,26.8 211.9,26.8 211,26.8 209.3,26.8 209.3,33.1 209.3,35 209.3,35.7 215.8,35.7 
				215.8,33.1 211.9,33.1 211.9,29.4 218.3,29.4 218.3,45.7 212,45.8 212,42 215.9,42 215.9,39.4 209.4,39.4 209.4,40.1 209.4,42 
				209.4,48.3 211.1,48.3 212,48.3 218.3,48.3 218.3,48.4 220.9,48.3 220.9,26.8 219.2,26.8 			"/>
			<polygon fill="#C8AC2E" points="218.3,52.6 211.9,52.6 211,52.6 209.3,52.6 209.3,58.9 209.3,60.8 209.3,61.5 215.8,61.5 
				215.8,59 211.9,59 211.9,55.2 218.3,55.2 218.3,71.6 212,71.6 212,67.8 215.9,67.8 215.8,65.3 209.4,65.3 209.4,66 209.4,67.8 
				209.4,74.2 211.1,74.1 212,74.2 218.3,74.1 218.3,74.2 220.9,74.2 220.9,52.6 219.2,52.6 			"/>
			<polygon fill="#C8AC2E" points="218.3,78.5 211.9,78.5 211,78.5 209.3,78.5 209.3,84.8 209.3,86.7 209.3,87.4 215.8,87.4 
				215.8,84.8 211.9,84.8 211.9,81 218.3,81 218.3,97.4 212,97.4 212,93.7 215.9,93.7 215.8,91.1 209.4,91.1 209.4,91.8 209.4,93.7 
				209.4,100 211.1,100 212,100 218.3,100 218.3,100 220.9,100 220.9,78.5 219.2,78.5 			"/>
			<polygon fill="#C8AC2E" points="218.3,104.3 211.9,104.3 211,104.3 209.3,104.3 209.3,110.6 209.4,112.5 209.3,113.2 
				215.8,113.2 215.8,110.6 211.9,110.6 211.9,106.9 218.3,106.9 218.3,123.2 212,123.2 212,119.5 215.8,119.5 215.9,116.9 
				209.4,116.9 209.4,117.6 209.4,119.5 209.4,125.8 211.1,125.8 212,125.8 218.3,125.8 218.3,125.8 220.9,125.8 220.9,104.3 
				219.2,104.3 			"/>
			<polygon fill="#C8AC2E" points="218.3,130.1 211.9,130.1 211,130.1 209.3,130.1 209.3,136.4 209.4,138.3 209.4,139 215.8,139 
				215.8,136.4 211.9,136.4 211.9,132.7 218.3,132.7 218.3,149.1 212,149.1 212,145.3 215.9,145.3 215.9,142.7 209.4,142.7 
				209.4,143.5 209.4,145.3 209.4,151.6 211.1,151.6 212,151.6 218.3,151.6 218.3,151.7 220.9,151.7 220.9,130.1 219.2,130.1 			"/>
			<polygon fill="#C8AC2E" points="218.3,155.9 211.9,156 211,155.9 209.3,156 209.3,162.3 209.3,164.1 209.3,164.8 215.8,164.8 
				215.8,162.3 211.9,162.3 211.9,158.5 218.3,158.5 218.3,174.9 212,174.9 212,171.1 215.8,171.1 215.9,168.6 209.4,168.6 
				209.4,169.3 209.4,171.1 209.4,177.5 211.1,177.5 212,177.5 218.3,177.5 218.3,177.5 220.9,177.5 220.9,155.9 219.2,155.9 			"/>
			<polygon fill="#C8AC2E" points="218.3,181.8 211.9,181.8 211,181.8 209.3,181.8 209.3,188.1 209.3,190 209.3,190.7 215.8,190.7 
				215.8,188.1 211.9,188.1 211.9,184.4 218.3,184.4 218.3,200.7 212,200.7 212,197 215.8,197 215.9,194.4 209.4,194.4 209.4,195.1 
				209.4,197 209.4,203.3 211.1,203.3 212,203.3 218.3,203.3 218.3,203.3 220.9,203.3 220.9,181.8 219.2,181.8 			"/>
			<path fill="#C8AC2E" d="M11.8,22.9c2.9,2.6,7.3,2.6,10.3,0l-0.7-0.7l-3-3l0,0l0,0l-1.4,1.4l-1.6,1.6l3.2,0l-0.8-0.8l0.7-0.7
				l2.1,2.2c-2.2,1.4-5.1,1.3-7.2-0.1l9.5-9.5c1.4,2.2,1.4,5,0.1,7.2l-2.2-2.2l0.7-0.7l0.9,0.8l0-3.2l-1.6,1.6l-1.4,1.4l0,0l0,0l3,3
				l0.7,0.7c2.6-3,2.6-7.4,0-10.3L20,14.7l-0.8-0.8l2.9-2.9c-2.9-2.6-7.3-2.6-10.3,0l0.7,0.7l3,3l0,0l0,0l1.4-1.4l1.6-1.6l-3.2,0
				l0.8,0.9l-0.7,0.7L13.4,11c2.2-1.4,5-1.3,7.2,0.1l-9.5,9.5c-1.4-2.2-1.4-5-0.1-7.2l2.2,2.2l-0.7,0.7l-0.9-0.9l0,3.2l1.6-1.6
				l1.4-1.4l0,0l-3-3l-0.7-0.7c-2.6,3-2.6,7.4,0,10.3l2.9-2.9l0.8,0.8L11.8,22.9z M19.2,15.5l-1.4,1.4l-0.8-0.8l1.4-1.4L19.2,15.5z
				 M14.7,18.4l1.4-1.4l0.8,0.8l-1.4,1.4L14.7,18.4z"/>
			<path fill="#C8AC2E" d="M22.4,211.4l-1.6,1.6l-1.4,1.4l0,0l0,0l3,3l0.7,0.7c2.6-3,2.6-7.4,0-10.3l-2.9,2.9l-0.8-0.8l2.9-2.9
				c-2.9-2.6-7.3-2.6-10.3,0l0.7,0.7l3,3l0,0l0,0l1.4-1.4l1.6-1.6l-3.2,0l0.8,0.9l-0.7,0.7l-2.2-2.1c2.2-1.4,5.1-1.4,7.2,0l-9.5,9.5
				c-1.4-2.2-1.4-5-0.1-7.2l2.2,2.2l-0.7,0.7l-0.8-0.8l0,3.2l1.6-1.6l1.4-1.4l0,0l-3-3l-0.7-0.7c-2.6,3-2.6,7.4,0,10.3l2.9-2.9
				l0.8,0.8L12,219c2.9,2.6,7.3,2.6,10.3,0l-0.7-0.7l-3-3l0,0v0l-1.4,1.4l-1.6,1.6l3.2,0l-0.9-0.9l0.7-0.7l2.2,2.2
				c-2.2,1.4-5.1,1.4-7.2-0.1l9.5-9.5c1.4,2.2,1.4,5,0.1,7.2l-2.2-2.2l0.7-0.7l0.9,0.9L22.4,211.4z M19.4,211.6l-1.4,1.4l-0.8-0.8
				l1.4-1.4L19.4,211.6z M14.9,214.5l1.4-1.4l0.8,0.8l-1.4,1.4L14.9,214.5z"/>
			<path fill="#C8AC2E" d="M218.2,207.1c-2.9-2.6-7.3-2.6-10.3,0l0.7,0.7l3,3l0,0l0,0l1.4-1.4l1.6-1.6l-3.2,0l0.8,0.8l-0.7,0.7
				l-2.2-2.2c2.2-1.4,5-1.3,7.2,0.1l-9.5,9.5c-1.4-2.2-1.4-5-0.1-7.2l2.2,2.2l-0.7,0.7l-0.9-0.8l0,3.2l1.6-1.6l1.4-1.4l0,0l-3-3
				l-0.7-0.7c-2.6,3-2.6,7.4,0,10.3l2.9-2.9l0.8,0.8l-2.9,2.9c2.9,2.6,7.3,2.6,10.3,0l-0.7-0.7l-3-3l0,0l0,0l-1.4,1.4l-1.6,1.6
				l3.2,0l-0.8-0.9l0.7-0.7l2.2,2.2c-2.2,1.4-5.1,1.3-7.2-0.1l9.5-9.5c1.4,2.2,1.4,5,0.1,7.2l-2.2-2.2l0.7-0.7l0.9,0.9l0-3.2
				l-1.6,1.6l-1.4,1.4h0l0,0l3,3l0.7,0.7c2.6-3,2.6-7.4,0-10.3l-2.9,2.9l-0.8-0.8L218.2,207.1z M210.8,214.5l1.4-1.4l0.8,0.8
				l-1.4,1.4L210.8,214.5z M215.3,211.6l-1.4,1.4l-0.8-0.8l1.4-1.4L215.3,211.6z"/>
			<path fill="#C8AC2E" d="M215.5,13.9l2.9-2.9c-2.9-2.6-7.3-2.6-10.3,0l0.7,0.7l3,3l0,0l0,0l1.4-1.4l1.6-1.6l-3.2,0l0.8,0.8
				l-0.7,0.7l-2.2-2.2c2.2-1.4,5-1.3,7.2,0.1l-9.5,9.5c-1.4-2.2-1.4-5-0.1-7.2l2.2,2.2l-0.7,0.7l-0.9-0.8l0,3.2l1.6-1.6l1.4-1.4l0,0
				l-3-3l-0.7-0.7c-2.6,3-2.6,7.4,0,10.3l2.9-2.9l0.8,0.8l-2.9,2.9c2.9,2.6,7.3,2.6,10.3,0l-0.7-0.7l-3-3l0,0v0l-1.4,1.4l-1.6,1.6
				l3.2,0l-0.9-0.9l0.7-0.7l2.2,2.2c-2.2,1.4-5.1,1.4-7.2-0.1l9.5-9.5c1.4,2.2,1.4,5,0.1,7.2l-2.2-2.2l0.7-0.7l0.9,0.8l0-3.2
				l-1.6,1.6l-1.4,1.4l0,0l0,0l3,3l0.7,0.7c2.6-3,2.6-7.4,0-10.3l-2.9,2.9L215.5,13.9z M215.5,15.6l-1.4,1.4l-0.8-0.8l1.4-1.4
				L215.5,15.6z M211,18.4l1.4-1.4l0.8,0.8l-1.4,1.4L211,18.4z"/>
		</g>
		<path fill="#C8AC2E" d="M0,230h230V0H0V230z M223.3,222.2v1.7l-217.2,0l0-217.2l217.2,0L223.3,222.2z"/>
	</g>
</g>
</svg>
