<?xml version="1.0" encoding="utf-8"?>
<!-- Generator: Adobe Illustrator 18.0.0, SVG Export Plug-In . SVG Version: 6.00 Build 0)  -->
<!DOCTYPE svg PUBLIC "-//W3C//DTD SVG 1.1//EN" "http://www.w3.org/Graphics/SVG/1.1/DTD/svg11.dtd">
<svg version="1.1" id="图层_1" xmlns="http://www.w3.org/2000/svg" xmlns:xlink="http://www.w3.org/1999/xlink" x="0px" y="0px"
	 viewBox="0 0 230 230" enable-background="new 0 0 230 230" xml:space="preserve">
<rect x="15" y="15.8" fill="#FFFFFF" width="200" height="200"/>
<g>
	<g>
		<polyline fill="none" stroke="#298F3A" stroke-miterlimit="10" points="199.6,197.6 199.6,199.6 197.6,199.6 		"/>
		
			<line fill="none" stroke="#298F3A" stroke-miterlimit="10" stroke-dasharray="4.0293,4.0293" x1="193.6" y1="199.6" x2="34.4" y2="199.6"/>
		<polyline fill="none" stroke="#298F3A" stroke-miterlimit="10" points="32.4,199.6 30.4,199.6 30.4,197.6 		"/>
		
			<line fill="none" stroke="#298F3A" stroke-miterlimit="10" stroke-dasharray="4.0293,4.0293" x1="30.4" y1="193.6" x2="30.4" y2="34.4"/>
		<polyline fill="none" stroke="#298F3A" stroke-miterlimit="10" points="30.4,32.4 30.4,30.4 32.4,30.4 		"/>
		
			<line fill="none" stroke="#298F3A" stroke-miterlimit="10" stroke-dasharray="4.0293,4.0293" x1="36.4" y1="30.4" x2="195.6" y2="30.4"/>
		<polyline fill="none" stroke="#298F3A" stroke-miterlimit="10" points="197.6,30.4 199.6,30.4 199.6,32.4 		"/>
		
			<line fill="none" stroke="#298F3A" stroke-miterlimit="10" stroke-dasharray="4.0293,4.0293" x1="199.6" y1="36.4" x2="199.6" y2="195.6"/>
	</g>
</g>
<path fill="#26953A" d="M216.5,230c2.4-5.8,7.4-10.4,13.5-12.2v-2.3c-0.4,0.1-0.8,0.1-1.2,0.1c-4,0-7.2-3.2-7.2-7.2s3.2-7.2,7.2-7.2
	c0.4,0,0.8,0,1.2,0.1v-4.2c-0.4,0.1-0.8,0.1-1.2,0.1c-4,0-7.2-3.2-7.2-7.2s3.2-7.2,7.2-7.2c0.4,0,0.8,0,1.2,0.1v-4.2
	c-0.4,0.1-0.8,0.1-1.2,0.1c-4,0-7.2-3.2-7.2-7.2s3.2-7.2,7.2-7.2c0.4,0,0.8,0,1.2,0.1v-4.2c-0.4,0.1-0.8,0.1-1.2,0.1
	c-4,0-7.2-3.2-7.2-7.2s3.2-7.2,7.2-7.2c0.4,0,0.8,0,1.2,0.1V142c-0.4,0.1-0.8,0.1-1.2,0.1c-4,0-7.2-3.2-7.2-7.2s3.2-7.2,7.2-7.2
	c0.4,0,0.8,0,1.2,0.1v-4.2c-0.4,0.1-0.8,0.1-1.2,0.1c-4,0-7.2-3.2-7.2-7.2s3.2-7.2,7.2-7.2c0.4,0,0.8,0,1.2,0.1v-4.2
	c-0.4,0.1-0.8,0.1-1.2,0.1c-4,0-7.2-3.2-7.2-7.2s3.2-7.2,7.2-7.2c0.4,0,0.8,0,1.2,0.1v-4.2c-0.4,0.1-0.8,0.1-1.2,0.1
	c-4,0-7.2-3.2-7.2-7.2s3.2-7.2,7.2-7.2c0.4,0,0.8,0,1.2,0.1v-4.2c-0.4,0.1-0.8,0.1-1.2,0.1c-4,0-7.2-3.2-7.2-7.2s3.2-7.2,7.2-7.2
	c0.4,0,0.8,0,1.2,0.1v-4.2c-0.4,0.1-0.8,0.1-1.2,0.1c-4,0-7.2-3.2-7.2-7.2s3.2-7.2,7.2-7.2c0.4,0,0.8,0,1.2,0.1v-4.2
	c-0.4,0.1-0.8,0.1-1.2,0.1c-4,0-7.2-3.2-7.2-7.2s3.2-7.2,7.2-7.2c0.4,0,0.8,0,1.2,0.1v-2.2C223.5,12.8,218.7,7,217.3,0H214
	c0,0.2,0,0.4,0,0.6c0,4-3.2,7.2-7.2,7.2s-7.2-3.2-7.2-7.2c0-0.2,0-0.4,0-0.6h-4.1c0,0.2,0,0.4,0,0.6c0,4-3.2,7.2-7.2,7.2
	s-7.2-3.2-7.2-7.2c0-0.2,0-0.4,0-0.6h-4.1c0,0.2,0,0.4,0,0.6c0,4-3.2,7.2-7.2,7.2s-7.2-3.2-7.2-7.2c0-0.2,0-0.4,0-0.6h-4.1
	c0,0.2,0,0.4,0,0.6c0,4-3.2,7.2-7.2,7.2s-7.2-3.2-7.2-7.2c0-0.2,0-0.4,0-0.6h-4.1c0,0.2,0,0.4,0,0.6c0,4-3.2,7.2-7.2,7.2
	s-7.2-3.2-7.2-7.2c0-0.2,0-0.4,0-0.6h-4.1c0,0.2,0,0.4,0,0.6c0,4-3.2,7.2-7.2,7.2s-7.2-3.2-7.2-7.2c0-0.2,0-0.4,0-0.6h-4.1
	c0,0.2,0,0.4,0,0.6c0,4-3.2,7.2-7.2,7.2s-7.2-3.2-7.2-7.2c0-0.2,0-0.4,0-0.6h-4.1c0,0.2,0,0.4,0,0.6c0,4-3.2,7.2-7.2,7.2
	s-7.2-3.2-7.2-7.2c0-0.2,0-0.4,0-0.6H67c0,0.2,0,0.4,0,0.6c0,4-3.2,7.2-7.2,7.2s-7.2-3.2-7.2-7.2c0-0.2,0-0.4,0-0.6h-4.1
	c0,0.2,0,0.4,0,0.6c0,4-3.2,7.2-7.2,7.2s-7.2-3.2-7.2-7.2c0-0.2,0-0.4,0-0.6h-4.1c0,0.2,0,0.4,0,0.6c0,4-3.2,7.2-7.2,7.2
	s-7.2-3.2-7.2-7.2c0-0.2,0-0.4,0-0.6h-3C11.6,7.1,6.6,13,0,15.6v2c0.4-0.1,0.8-0.1,1.2-0.1c4,0,7.2,3.2,7.2,7.2s-3.2,7.2-7.2,7.2
	c-0.4,0-0.8,0-1.2-0.1V36c0.4-0.1,0.8-0.1,1.2-0.1c4,0,7.2,3.2,7.2,7.2s-3.2,7.2-7.2,7.2c-0.4,0-0.8,0-1.2-0.1v4.2
	c0.4-0.1,0.8-0.1,1.2-0.1c4,0,7.2,3.2,7.2,7.2s-3.2,7.2-7.2,7.2c-0.4,0-0.8,0-1.2-0.1v4.2c0.4-0.1,0.8-0.1,1.2-0.1
	c4,0,7.2,3.2,7.2,7.2S5.2,87,1.2,87c-0.4,0-0.8,0-1.2-0.1v4.2C0.4,91,0.8,91,1.2,91c4,0,7.2,3.2,7.2,7.2s-3.2,7.2-7.2,7.2
	c-0.4,0-0.8,0-1.2-0.1v4.2c0.4-0.1,0.8-0.1,1.2-0.1c4,0,7.2,3.2,7.2,7.2s-3.2,7.2-7.2,7.2c-0.4,0-0.8,0-1.2-0.1v4.2
	c0.4-0.1,0.8-0.1,1.2-0.1c4,0,7.2,3.2,7.2,7.2s-3.2,7.2-7.2,7.2c-0.4,0-0.8,0-1.2-0.1v4.2c0.4-0.1,0.8-0.1,1.2-0.1
	c4,0,7.2,3.2,7.2,7.2s-3.2,7.2-7.2,7.2c-0.4,0-0.8,0-1.2-0.1v4.2c0.4-0.1,0.8-0.1,1.2-0.1c4,0,7.2,3.2,7.2,7.2s-3.2,7.2-7.2,7.2
	c-0.4,0-0.8,0-1.2-0.1v4.2c0.4-0.1,0.8-0.1,1.2-0.1c4,0,7.2,3.2,7.2,7.2s-3.2,7.2-7.2,7.2c-0.4,0-0.8,0-1.2-0.1v4.2
	c0.4-0.1,0.8-0.1,1.2-0.1c4,0,7.2,3.2,7.2,7.2s-3.2,7.2-7.2,7.2c-0.4,0-0.8,0-1.2-0.1v2.5c3.6,1.2,6.7,3.3,9.2,6.1
	c1.1,0.8,1.9,2,2.3,3.3c0.5,0.8,0.9,1.7,1.3,2.6h3.1c0-0.1,0-0.1,0-0.2c0-4,3.2-7.2,7.2-7.2s7.2,3.2,7.2,7.2c0,0.1,0,0.1,0,0.2h4
	c0-0.1,0-0.1,0-0.2c0-4,3.2-7.2,7.2-7.2s7.2,3.2,7.2,7.2c0,0.1,0,0.1,0,0.2h4c0-0.1,0-0.1,0-0.2c0-4,3.2-7.2,7.2-7.2
	s7.2,3.2,7.2,7.2c0,0.1,0,0.1,0,0.2h4c0-0.1,0-0.1,0-0.2c0-4,3.2-7.2,7.2-7.2s7.2,3.2,7.2,7.2c0,0.1,0,0.1,0,0.2h4
	c0-0.1,0-0.1,0-0.2c0-4,3.2-7.2,7.2-7.2s7.2,3.2,7.2,7.2c0,0.1,0,0.1,0,0.2h4c0-0.1,0-0.1,0-0.2c0-4,3.2-7.2,7.2-7.2
	s7.2,3.2,7.2,7.2c0,0.1,0,0.1,0,0.2h4c0-0.1,0-0.1,0-0.2c0-4,3.2-7.2,7.2-7.2s7.2,3.2,7.2,7.2c0,0.1,0,0.1,0,0.2h4
	c0-0.1,0-0.1,0-0.2c0-4,3.2-7.2,7.2-7.2s7.2,3.2,7.2,7.2c0,0.1,0,0.1,0,0.2h4c0-0.1,0-0.1,0-0.2c0-4,3.2-7.2,7.2-7.2
	s7.2,3.2,7.2,7.2c0,0.1,0,0.1,0,0.2h4c0-0.1,0-0.1,0-0.2c0-4,3.2-7.2,7.2-7.2s7.2,3.2,7.2,7.2c0,0.1,0,0.1,0,0.2h4
	c0-0.1,0-0.1,0-0.2c0-4,3.2-7.2,7.2-7.2s7.2,3.2,7.2,7.2c0,0.1,0,0.1,0,0.2H216.5z M209,209H21V21h188V209z"/>
</svg>
