<?xml version="1.0" encoding="utf-8"?>
<!-- Generator: Adobe Illustrator 18.0.0, SVG Export Plug-In . SVG Version: 6.00 Build 0)  -->
<!DOCTYPE svg PUBLIC "-//W3C//DTD SVG 1.1//EN" "http://www.w3.org/Graphics/SVG/1.1/DTD/svg11.dtd">
<svg version="1.1" id="图层_1" xmlns="http://www.w3.org/2000/svg" xmlns:xlink="http://www.w3.org/1999/xlink" x="0px" y="0px"
	 viewBox="0 0 246 206" enable-background="new 0 0 246 206" xml:space="preserve">
<g>
	<path fill-rule="evenodd" clip-rule="evenodd" fill="#00A29A" d="M122.8,205.6l0.2-1.2l0.2,1.2c0.4-0.2,21.2-14,23.4-15.5
		c39.4-26.9,71.3-49.4,92.3-95c17.4-37.8,3.7-93.4-45-94.6c-27.4-0.7-52.3,13.7-70.8,33.7c-18.5-20-43.4-34.4-70.7-33.7
		C3.5,1.7-10.2,57.3,7.2,95.1c21,45.6,52.8,68.1,92.3,95C101.7,191.6,122.4,205.4,122.8,205.6L122.8,205.6z"/>
	<path fill-rule="evenodd" clip-rule="evenodd" fill="#FFFFFF" d="M122.9,195.3l0.1-1.1l0.1,1.1c0.4-0.1,19.1-12.6,21-13.9
		c35.5-24.3,64.2-44.5,83-85.5c15.6-34,3.3-84-40.5-85.2C162,10,139.6,23,123,41c-16.6-18-39-31-63.7-30.3
		C15.5,11.8,3.1,61.8,18.8,95.9c18.9,41.1,47.5,61.3,83,85.5C103.8,182.7,122.5,195.2,122.9,195.3L122.9,195.3z"/>
	<path fill-rule="evenodd" clip-rule="evenodd" fill="#FFFFFF" stroke="#00A29A" stroke-miterlimit="10" stroke-dasharray="8" d="
		M122.9,186.1l0.1-1l0.1,1c0.4-0.1,17.1-11.4,18.9-12.6c31.9-21.8,57.8-40,74.7-77c14.1-30.6,3-75.6-36.5-76.7
		C158.1,19.3,138,31,123,47.2C108,31,87.9,19.3,65.7,19.9c-39.5,1-50.6,46-36.5,76.7c17,37,42.8,55.1,74.7,77
		C105.7,174.7,122.5,186,122.9,186.1L122.9,186.1z"/>
</g>
</svg>
