<?xml version="1.0" encoding="utf-8"?>
<!-- Generator: Adobe Illustrator 18.0.0, SVG Export Plug-In . SVG Version: 6.00 Build 0)  -->
<!DOCTYPE svg PUBLIC "-//W3C//DTD SVG 1.1//EN" "http://www.w3.org/Graphics/SVG/1.1/DTD/svg11.dtd">
<svg version="1.1" id="图层_1" xmlns="http://www.w3.org/2000/svg" xmlns:xlink="http://www.w3.org/1999/xlink" x="0px" y="0px"
	 viewBox="0 0 246 246" enable-background="new 0 0 246 246" xml:space="preserve">
<circle fill="#FFFFFF" cx="123" cy="123" r="100"/>
<g>
	<path fill="#8FC31F" d="M235.6,123l10.4-21.4l-17.2-16.6l2.3-23.6l-21.9-9.8l-6-22.9l-24-1.8L165.7,7.4l-23.2,6.3L123,0l-19.6,13.8
		L80.3,7.4L66.7,26.9l-24,1.8l-6,22.9l-21.9,9.8l2.3,23.6L0,101.6L10.4,123L0,144.4l17.2,16.6l-2.3,23.6l21.9,9.8l6,22.9l24,1.8
		l13.6,19.5l23.2-6.3L123,246l19.6-13.8l23.2,6.3l13.6-19.5l24-1.8l6-22.9l21.9-9.8l-2.3-23.6l17.2-16.6L235.6,123z M123,217.9
		c-53.2,0-96.3-42.5-96.3-94.9c0-52.4,43.1-94.9,96.3-94.9s96.3,42.5,96.3,94.9C219.3,175.4,176.2,217.9,123,217.9z"/>
	<g>
		
			<ellipse fill="none" stroke="#8FC31F" stroke-width="2" stroke-miterlimit="10" stroke-dasharray="8.1065,8.1065" cx="123" cy="123" rx="85.8" ry="84.5"/>
	</g>
</g>
</svg>
