<?xml version="1.0" encoding="utf-8"?>
<!-- Generator: Adobe Illustrator 18.0.0, SVG Export Plug-In . SVG Version: 6.00 Build 0)  -->
<!DOCTYPE svg PUBLIC "-//W3C//DTD SVG 1.1//EN" "http://www.w3.org/Graphics/SVG/1.1/DTD/svg11.dtd">
<svg version="1.1" id="图层_1" xmlns="http://www.w3.org/2000/svg" xmlns:xlink="http://www.w3.org/1999/xlink" x="0px" y="0px"
	 viewBox="0 0 260 250" enable-background="new 0 0 260 250" xml:space="preserve">
<g>
	<path fill="#F5CF20" d="M130,2.1c2.7-1.1,14.3,6.5,26.5,25.3c12,17,24.6,45.2,24.1,44c-1.2-0.1,28.8,4,48.1,9.7
		c21,5.5,31.3,12.6,30.2,14.6c0.1,1.7-4.7,15.9-17.8,33.6c-11.8,17.1-31.9,37.7-31.5,37c0.1-0.3,4.8,25.1,5.8,44.6
		c1.4,20.5-0.9,35.1-5.6,36.5c-5.6,4.5-74.8-22.2-79.8-26.6c-5,4.1-76.8,30.1-79.8,26.6c-3.4-0.9-5.7-15-4.6-35.7
		c0.7-19.6,4.8-45.7,4.9-45.4c0.4,0.7-19.9-19.3-31.7-36.1C5.7,112.9,0.9,98.5,1.1,95.8c-1-3.1,9.5-10.4,30.5-15.6
		c19.3-5.4,49-8.8,47.9-8.7c-0.6,1.1,12.2-26.7,24.2-43.8C116,9,127.5,1.1,130,2.1z"/>
</g>
<g>
	<path fill="#FFFFFF" d="M130,14.5c2.5-1,12.8,5.9,23.8,22.8c10.8,15.3,22.1,40.6,21.6,39.6c-1-0.1,25.9,3.6,43.2,8.7
		c18.9,4.9,28.1,11.3,27.2,13.2c0.1,1.5-4.2,14.3-16,30.2c-10.6,15.4-28.6,33.9-28.3,33.3c0.1-0.3,4.3,22.6,5.2,40.1
		c1.3,18.4-0.8,31.5-5,32.8c-5.1,4.1-67.3-20-71.7-23.9c-4.5,3.7-69,27-71.7,23.9c-3-0.8-5.2-13.5-4.2-32.1
		c0.6-17.6,4.3-41.1,4.4-40.8c0.3,0.6-17.8-17.3-28.5-32.5C18.2,114.1,14,101.2,14.1,98.7c-0.9-2.8,8.6-9.3,27.4-14
		c17.3-4.9,44.1-7.9,43-7.8c-0.5,1,11-24,21.8-39.3C117.4,20.7,127.7,13.6,130,14.5z"/>
</g>
<g>
	<path fill="#FFFFFF" stroke="#F5CF20" stroke-miterlimit="10" stroke-dasharray="8" d="M130,21c2.3-1,12.1,5.5,22.4,21.4
		c10.1,14.4,20.8,38.2,20.4,37.3c-1-0.1,24.4,3.4,40.7,8.2c17.8,4.7,26.5,10.7,25.6,12.4c0.1,1.4-4,13.4-15.1,28.5
		c-10,14.5-26.9,31.9-26.7,31.3c0.1-0.3,4.1,21.2,4.9,37.7c1.2,17.3-0.7,29.7-4.7,30.8c-4.8,3.8-63.3-18.8-67.5-22.5
		c-4.2,3.5-64.9,25.4-67.5,22.5c-2.8-0.7-4.9-12.7-3.9-30.2c0.6-16.6,4.1-38.7,4.2-38.4c0.3,0.6-16.8-16.3-26.8-30.6
		c-11.1-14.8-15.1-26.9-15-29.2c-0.8-2.6,8.1-8.8,25.8-13.2c16.3-4.6,41.5-7.5,40.5-7.4c-0.5,1,10.3-22.6,20.5-37
		C118.1,26.8,127.9,20.2,130,21z"/>
</g>
</svg>
