<?xml version="1.0" encoding="utf-8"?>
<!-- Generator: Adobe Illustrator 18.0.0, SVG Export Plug-In . SVG Version: 6.00 Build 0)  -->
<!DOCTYPE svg PUBLIC "-//W3C//DTD SVG 1.1//EN" "http://www.w3.org/Graphics/SVG/1.1/DTD/svg11.dtd">
<svg version="1.1" id="图层_1" xmlns="http://www.w3.org/2000/svg" xmlns:xlink="http://www.w3.org/1999/xlink" x="0px" y="0px"
	 viewBox="0 0 246 246" enable-background="new 0 0 246 246" xml:space="preserve">
<g>
	<g>
		<path fill="#6AB256" d="M140.3,236c-9.5,5.5-25.1,5.5-34.6,0l-71.8-41.5c-9.5-5.5-17.3-19-17.3-30l0-83c0-11,7.8-24.5,17.3-30
			L105.7,10c9.5-5.5,25.1-5.5,34.6,0l71.8,41.5c9.5,5.5,17.3,19,17.3,30v83c0,11-7.8,24.5-17.3,30L140.3,236z"/>
	</g>
	<g>
		<path fill="#FFFFFF" d="M105.7,225.7c9.5,5.5,25.1,5.5,34.6,0l63-36.3c9.5-5.5,17.3-19,17.3-30V86.7c0-11-7.8-24.5-17.3-30
			l-63-36.3c-9.5-5.5-25.1-5.5-34.6,0l-63,36.3c-9.5,5.5-17.3,19-17.3,30l0,72.7c0,11,7.8,24.5,17.3,30L105.7,225.7z"/>
	</g>
	<g>
		<path fill="#FFFFFF" d="M105.7,219.8c9.5,5.5,25.1,5.5,34.6,0l57.9-33.4c9.5-5.5,17.3-19,17.3-30V89.6c0-11-7.8-24.5-17.3-30
			l-57.9-33.4c-9.5-5.5-25.1-5.5-34.6,0L47.8,59.6c-9.5,5.5-17.3,19-17.3,30l0,66.8c0,11,7.8,24.5,17.3,30L105.7,219.8z"/>
		<path fill="none" stroke="#6AB256" stroke-miterlimit="10" stroke-dasharray="7.9092,7.9092" d="M105.7,219.8
			c9.5,5.5,25.1,5.5,34.6,0l57.9-33.4c9.5-5.5,17.3-19,17.3-30V89.6c0-11-7.8-24.5-17.3-30l-57.9-33.4c-9.5-5.5-25.1-5.5-34.6,0
			L47.8,59.6c-9.5,5.5-17.3,19-17.3,30l0,66.8c0,11,7.8,24.5,17.3,30L105.7,219.8z"/>
	</g>
</g>
</svg>
