<?xml version="1.0" encoding="utf-8"?>
<!-- Generator: Adobe Illustrator 18.0.0, SVG Export Plug-In . SVG Version: 6.00 Build 0)  -->
<!DOCTYPE svg PUBLIC "-//W3C//DTD SVG 1.1//EN" "http://www.w3.org/Graphics/SVG/1.1/DTD/svg11.dtd">
<svg version="1.1" id="图层_1" xmlns="http://www.w3.org/2000/svg" xmlns:xlink="http://www.w3.org/1999/xlink" x="0px" y="0px"
	 viewBox="0 0 246 246" enable-background="new 0 0 246 246" xml:space="preserve">
<path fill="#DDBC18" d="M226,246H20c-11,0-20-9-20-20V20C0,9,9,0,20,0h206c11,0,20,9,20,20v206C246,237,237,246,226,246z"/>
<path fill="#FFFFFF" d="M210,230H36c-11,0-20-9-20-20V36c0-11,9-20,20-20h174c11,0,20,9,20,20v174C230,221,221,230,210,230z"/>
<g>
	<path fill="#FFFFFF" d="M198,218H48c-11,0-20-9-20-20V48c0-11,9-20,20-20h150c11,0,20,9,20,20v150C218,209,209,218,198,218z"/>
	<path fill="none" stroke="#DDBC18" stroke-miterlimit="10" stroke-dasharray="8.0617,8.0617" d="M198,218H48c-11,0-20-9-20-20V48
		c0-11,9-20,20-20h150c11,0,20,9,20,20v150C218,209,209,218,198,218z"/>
</g>
</svg>
