<?xml version="1.0" encoding="utf-8"?>
<!-- Generator: Adobe Illustrator 18.0.0, SVG Export Plug-In . SVG Version: 6.00 Build 0)  -->
<!DOCTYPE svg PUBLIC "-//W3C//DTD SVG 1.1//EN" "http://www.w3.org/Graphics/SVG/1.1/DTD/svg11.dtd">
<svg version="1.1" id="图层_1" xmlns="http://www.w3.org/2000/svg" xmlns:xlink="http://www.w3.org/1999/xlink" x="0px" y="0px"
	 viewBox="0 0 20 50" enable-background="new 0 0 20 50" xml:space="preserve">
<rect y="4.4" fill="#FFFFFF" width="2" height="6"/>
<g>
	<defs>
		<rect id="SVGID_1_" width="20" height="50"/>
	</defs>
	<clipPath id="SVGID_2_">
		<use xlink:href="#SVGID_1_"  overflow="visible"/>
	</clipPath>
	<g clip-path="url(#SVGID_2_)">
		<g>
			<path fill="#FFFFFF" d="M-295.2,49c-2.3,0-4.1-0.8-5-2.2c-0.9-1.4-0.9-3.4,0.1-5.5l3.1-6.8c2.4-5.2,2.4-13.8,0-19l-3.1-6.8
				c-1-2.1-1-4-0.1-5.5c0.9-1.4,2.7-2.2,5-2.2H13c2.3,0,4.1,0.8,5,2.2s0.9,3.4-0.1,5.5l-3.1,6.8c-2.4,5.2-2.4,13.8,0,19l3.1,6.8
				c1,2.1,1,4,0.1,5.5c-0.9,1.4-2.7,2.2-5,2.2H-295.2z"/>
			<path fill="#c8ac2e" d="M13,2c2,0,3.4,0.6,4.1,1.7c0.7,1.1,0.7,2.7-0.1,4.5l-3.1,6.8c-2.6,5.6-2.6,14.3,0,19.8l3.1,6.8
				c0.8,1.8,0.9,3.4,0.1,4.5C16.4,47.4,15,48,13,48h-308.2c-2,0-3.4-0.6-4.1-1.7c-0.7-1.1-0.7-2.7,0.1-4.5l3.1-6.8
				c2.6-5.6,2.6-14.3,0-19.8l-3.1-6.8c-0.8-1.8-0.9-3.4-0.1-4.5c0.7-1.1,2.2-1.7,4.1-1.7H13 M13,0h-308.2c-5.5,0-8.1,4.1-5.8,9.1
				l3.1,6.8c2.3,5,2.3,13.2,0,18.2l-3.1,6.8c-2.3,5,0.3,9.1,5.8,9.1H13c5.5,0,8.1-4.1,5.8-9.1l-3.1-6.8c-2.3-5-2.3-13.2,0-18.2
				l3.1-6.8C21.1,4.1,18.5,0,13,0L13,0z"/>
		</g>
		<g>
			<path fill="#FFFFFF" d="M-293.7,14.2c-2.7-4.8-0.4-8.7,5.1-8.7H6.4c5.5,0,7.8,3.9,5.1,8.7l-1.2,2.1c-2.7,4.8-2.7,12.6,0,17.4
				l1.2,2.1c2.7,4.8,0.4,8.7-5.1,8.7h-295.1c-5.5,0-7.8-3.9-5.1-8.7l1.2-2.1c2.7-4.8,2.7-12.6,0-17.4L-293.7,14.2z"/>
			<path fill="none" stroke="#c8ac2e" stroke-miterlimit="10" stroke-dasharray="3.9966,3.9966" d="M-293.7,14.2
				c-2.7-4.8-0.4-8.7,5.1-8.7H6.4c5.5,0,7.8,3.9,5.1,8.7l-1.2,2.1c-2.7,4.8-2.7,12.6,0,17.4l1.2,2.1c2.7,4.8,0.4,8.7-5.1,8.7h-295.1
				c-5.5,0-7.8-3.9-5.1-8.7l1.2-2.1c2.7-4.8,2.7-12.6,0-17.4L-293.7,14.2z"/>
		</g>
	</g>
</g>
</svg>
