<?xml version="1.0" encoding="utf-8"?>
<!-- Generator: Adobe Illustrator 18.0.0, SVG Export Plug-In . SVG Version: 6.00 Build 0)  -->
<!DOCTYPE svg PUBLIC "-//W3C//DTD SVG 1.1//EN" "http://www.w3.org/Graphics/SVG/1.1/DTD/svg11.dtd">
<svg version="1.1" id="图层_1" xmlns="http://www.w3.org/2000/svg" xmlns:xlink="http://www.w3.org/1999/xlink" x="0px" y="0px"
	 viewBox="0 0 30 30" enable-background="new 0 0 30 30" xml:space="preserve">
<g>
	<path fill="#FFFFFF" d="M25.2,10.6V4.9h-6.1l-4.2-4.1L10.5,5H4.6v6l-4.2,4.1l4.3,4.2v5.8h6.1l4.2,4.1l4.3-4.2h5.9v-6l4.2-4.1
		L25.2,10.6z M15,23.2c-4.7,0-8.4-3.7-8.4-8.2c0-4.6,3.8-8.2,8.4-8.2c4.7,0,8.4,3.7,8.4,8.2C23.4,19.6,19.7,23.2,15,23.2z"/>
	<path fill="#FFFFFF" d="M9.7,15.1c0-2.8,2.3-5.2,5.2-5.2c2.9,0,5.3,2.2,5.3,5.1c0,2.8-2.3,5.2-5.2,5.2C12.2,20.2,9.8,17.9,9.7,15.1
		z"/>
</g>
</svg>
