<?xml version="1.0" encoding="utf-8"?>
<!-- Generator: Adobe Illustrator 18.0.0, SVG Export Plug-In . SVG Version: 6.00 Build 0)  -->
<!DOCTYPE svg PUBLIC "-//W3C//DTD SVG 1.1//EN" "http://www.w3.org/Graphics/SVG/1.1/DTD/svg11.dtd">
<svg version="1.1" id="图层_1" xmlns="http://www.w3.org/2000/svg" xmlns:xlink="http://www.w3.org/1999/xlink" x="0px" y="0px"
	 viewBox="0 0 36 36" enable-background="new 0 0 36 36" xml:space="preserve">
<g>
	<g>
		<g>
			<path fill="#FFFFFF" d="M17.5,26.8c-5.2,0-9.4-4.2-9.4-9.4S12.4,8,17.5,8s9.4,4.2,9.4,9.4S22.7,26.8,17.5,26.8z M17.5,9.7
				c-4.2,0-7.7,3.4-7.7,7.7c0,4.2,3.4,7.7,7.7,7.7c4.2,0,7.7-3.4,7.7-7.7C25.2,13.2,21.8,9.7,17.5,9.7z"/>
		</g>
		<g>
			<path fill="#FFFFFF" d="M17.6,6.7c-0.3,0-0.5-0.2-0.5-0.5l0-5.5c0-0.3,0.2-0.5,0.5-0.5l0.8,0c0.3,0,0.5,0.2,0.5,0.5l0,5.5
				c0,0.3-0.2,0.5-0.5,0.5L17.6,6.7z"/>
		</g>
		<g>
			<path fill="#FFFFFF" d="M26.9,10.3c-0.2,0.2-0.5,0.2-0.7,0l-0.6-0.6c-0.2-0.2-0.2-0.5,0-0.7l3.9-3.9c0.2-0.2,0.5-0.2,0.7,0
				l0.6,0.6c0.2,0.2,0.2,0.5,0,0.7L26.9,10.3z"/>
		</g>
		<g>
			<path fill="#FFFFFF" d="M29.7,18.9c-0.3,0-0.5-0.2-0.5-0.5l0-0.8c0-0.3,0.2-0.5,0.5-0.5l5.5,0c0.3,0,0.5,0.2,0.5,0.5l0,0.8
				c0,0.3-0.2,0.5-0.5,0.5L29.7,18.9z"/>
		</g>
		<g>
			<path fill="#FFFFFF" d="M30.2,30.8c-0.2,0.2-0.5,0.2-0.7,0l-3.9-3.9c-0.2-0.2-0.2-0.5,0-0.7l0.6-0.6c0.2-0.2,0.5-0.2,0.7,0
				l3.9,3.9c0.2,0.2,0.2,0.5,0,0.7L30.2,30.8z"/>
		</g>
		<g>
			<path fill="#FFFFFF" d="M17.6,35.7c-0.3,0-0.5-0.2-0.5-0.5l0-5.5c0-0.3,0.2-0.5,0.5-0.5l0.8,0c0.3,0,0.5,0.2,0.5,0.5l0,5.5
				c0,0.3-0.2,0.5-0.5,0.5L17.6,35.7z"/>
		</g>
		<g>
			<path fill="#FFFFFF" d="M6.5,30.8c-0.2,0.2-0.5,0.2-0.7,0l-0.6-0.6c-0.2-0.2-0.2-0.5,0-0.7l3.9-3.9c0.2-0.2,0.5-0.2,0.7,0
				l0.6,0.6c0.2,0.2,0.2,0.5,0,0.7L6.5,30.8z"/>
		</g>
		<g>
			<path fill="#FFFFFF" d="M0.8,18.9c-0.3,0-0.5-0.2-0.5-0.5l0-0.8c0-0.3,0.2-0.5,0.5-0.5l5.5,0c0.3,0,0.5,0.2,0.5,0.5l0,0.8
				c0,0.3-0.2,0.5-0.5,0.5L0.8,18.9z"/>
		</g>
		<g>
			<path fill="#FFFFFF" d="M9.8,10.3c-0.2,0.2-0.5,0.2-0.7,0L5.2,6.5C5.1,6.3,5.1,6,5.2,5.8l0.6-0.6c0.2-0.2,0.5-0.2,0.7,0l3.9,3.9
				c0.2,0.2,0.2,0.5,0,0.7L9.8,10.3z"/>
		</g>
		<circle fill="#FFFFFF" cx="17.7" cy="17.2" r="9.5"/>
	</g>
</g>
</svg>
