<?xml version="1.0" encoding="utf-8"?>
<!-- Generator: Adobe Illustrator 18.0.0, SVG Export Plug-In . SVG Version: 6.00 Build 0)  -->
<!DOCTYPE svg PUBLIC "-//W3C//DTD SVG 1.1//EN" "http://www.w3.org/Graphics/SVG/1.1/DTD/svg11.dtd">
<svg version="1.1" id="图层_1" xmlns="http://www.w3.org/2000/svg" xmlns:xlink="http://www.w3.org/1999/xlink" x="0px" y="0px"
	 viewBox="0 0 36 36" enable-background="new 0 0 36 36" xml:space="preserve">
<g>
	<path fill-rule="evenodd" clip-rule="evenodd" fill="#FFFFFF" d="M23.5,17.3c-1-0.1-1.8-0.9-1.8-1.9c0,1-0.8,1.8-1.8,1.9
		c1,0.1,1.8,0.9,1.8,1.9C21.7,18.2,22.5,17.4,23.5,17.3L23.5,17.3z"/>
	<path fill-rule="evenodd" clip-rule="evenodd" fill="#FFFFFF" d="M14.5,21.7c-1-0.1-1.8-0.9-1.8-1.9c0,1-0.8,1.8-1.8,1.9
		c1,0.1,1.8,0.9,1.8,1.9C12.7,22.6,13.5,21.8,14.5,21.7L14.5,21.7z"/>
	<path fill-rule="evenodd" clip-rule="evenodd" fill="#FFFFFF" d="M18.5,6C17.1,5.9,16,4.8,16,3.4c0,1.4-1.1,2.5-2.5,2.6
		C14.9,6.1,16,7.3,16,8.7C16,7.3,17.1,6.1,18.5,6L18.5,6z"/>
	<path fill-rule="evenodd" clip-rule="evenodd" fill="#FFFFFF" d="M25.8,9.2c-1.4-0.1-2.4-1.2-2.5-2.6c0,1.4-1.1,2.5-2.5,2.6
		c1.4,0.1,2.4,1.2,2.5,2.6C23.4,10.5,24.4,9.3,25.8,9.2L25.8,9.2z"/>
	<path fill-rule="evenodd" clip-rule="evenodd" fill="#FFFFFF" d="M32.2,17.4c-3.5,5.5-10.8,7.2-16.3,3.8
		c-5.5-3.5-7.2-10.8-3.8-16.3c0.8-1.3,1.8-2.3,2.9-3.1c-4.4,0.8-8.4,3.4-11,7.5C-0.7,16.9,1.6,27,9.3,31.8
		c7.7,4.8,17.8,2.5,22.6-5.2c2.6-4.1,3.1-8.8,1.9-13.1C33.5,14.8,33,16.1,32.2,17.4z"/>
</g>
</svg>
