<?xml version="1.0" encoding="utf-8"?>
<!-- Generator: Adobe Illustrator 18.0.0, SVG Export Plug-In . SVG Version: 6.00 Build 0)  -->
<!DOCTYPE svg PUBLIC "-//W3C//DTD SVG 1.1//EN" "http://www.w3.org/Graphics/SVG/1.1/DTD/svg11.dtd">
<svg version="1.1" id="图层_1" xmlns="http://www.w3.org/2000/svg" xmlns:xlink="http://www.w3.org/1999/xlink" x="0px" y="0px"
	 viewBox="20 0 100 40" enable-background="new 20 0 100 40" xml:space="preserve">
<path fill="#E72F28" stroke="#E72F28" stroke-miterlimit="10" d="M113.3,39h-80V1H119v32.4C119,36.5,116.4,39,113.3,39z"/>
<path fill="#FFFFFF" stroke="#E72F28" stroke-miterlimit="10" d="M35.2,39H21.9V6.7c0-3.1,2.6-5.7,5.7-5.7h13.3v32.4
	C40.9,36.5,38.3,39,35.2,39z"/>
<g>
	<g>
		<path fill="#FFFFFF" d="M55.8,13.8c-0.3,0.7-0.5,1.3-0.7,2.1h3.5c0-3.2-0.1-5.1-0.3-5.7v-0.1c0-0.1,0.1-0.2,0.2-0.2
			c0.2,0,0.4,0.1,0.6,0.1l1.8,0.5c0.4,0.1,0.6,0.3,0.6,0.5c0,0.2-0.2,0.4-0.7,0.7v4.3h3.9c0.7-0.8,1-1,1.1-1s0.2,0,0.3,0.1
			c1,1,1.4,1.4,1.4,1.5c0,0.2-0.1,0.3-0.4,0.3h-6.4v5.1h2.5c0.8-0.8,1.1-1.1,1.2-1.1c0.1,0.1,0.3,0.1,0.4,0.2
			c0.9,0.9,1.3,1.4,1.3,1.4c0,0.2-0.1,0.3-0.3,0.3h-5v6.8h4.6c0.7-0.8,1.1-1.1,1.2-1.1s0.2,0.1,0.4,0.3c0.8,0.9,1.1,1.3,1.1,1.4
			c0,0.2-0.1,0.3-0.3,0.3H52.5c-0.1,0.1-0.2,0.2-0.4,0.3c-0.3-0.5-0.6-0.9-0.8-1.2c0.5,0,1,0.1,1.4,0.2h5.8v-6.8H55l-0.4,0.4
			c-0.3-0.5-0.6-0.9-0.8-1.2c1,0.1,2.5,0.1,4.8,0.1v-5.1h-3.8c-0.6,1.2-1,2.3-1.5,3.1c-0.1,0.1-0.1,0.2-0.2,0.3l-2.2,2.9
			c-0.1,0-0.2-0.1-0.2-0.2c0-0.1,0-0.1,0-0.1c1.4-3.3,2.4-7,2.9-10.6c0.4,0,1,0.2,1.6,0.4c0.9,0.4,1.2,0.7,1.2,0.9
			C56.5,13.3,56.2,13.5,55.8,13.8z"/>
		<path fill="#FFFFFF" d="M71.9,23.8c0-0.1,0.1-0.2,0.2-0.2h0.3c0.6,0,1-0.4,1.4-1.1c2.2-5.5,3.3-8.3,3.5-8.3c0.1,0,0.2,0.1,0.2,0.2
			L77.1,16c0,0.1-0.1,0.3-0.1,0.4l-0.3,0.8c-0.3,1-0.5,2.2-0.8,3.2l-0.9,3.4c-0.1,0.6,0,2.1,0.4,4.7c0,1-0.4,1.3-1.1,1.3
			c-0.5,0-0.9-0.2-1-0.7c-0.1-0.2-0.2-0.7-0.2-1.4c0.1-0.7,0.2-1.3,0.2-1.9c0-0.7-0.4-1.1-1-1.5C72,24,71.9,23.8,71.9,23.8z
			 M74,16.1c0.7,0.4,1,1,1,1.7c0,0.6-0.3,0.9-0.9,0.9c-0.5,0-0.8-0.2-1-0.6c-0.1-0.2-0.2-0.4-0.3-0.7c-0.2-0.8-0.6-1.3-1-1.8
			c-0.1-0.1-0.1-0.2-0.1-0.2c0.1,0,0.1-0.1,0.1-0.1c0.1,0,0.1,0,0.2,0C72.7,15.3,73.3,15.6,74,16.1z M75.3,11.4c0.7,0.4,1,1,1,1.6
			c0,0.3-0.1,0.6-0.3,0.8c-0.2,0.2-0.5,0.3-0.7,0.3c-0.6,0-1-0.5-1.2-1.3c-0.3-1-0.8-1.7-1.2-2c-0.1,0-0.1-0.1-0.1-0.1
			c0-0.1,0.1-0.1,0.2-0.1s0.2,0,0.2,0C74,10.8,74.7,11,75.3,11.4z M82.2,12.7c-0.5,0-0.9,0-1.2,0l-2.5,0.1c-0.3,0-0.7,0-1,0
			c-0.2,0-0.2-0.1-0.2-0.2c0-0.1,0.4-0.3,1.1-0.4c3.9-0.7,6.5-1.5,7.8-2.5c0.1,0,0.2,0,0.4,0.1c0.5,0.5,1,1,1.3,1.6
			c0,0.1,0.1,0.1,0.1,0.1c0.1,0.2,0.2,0.3,0.2,0.4s-0.1,0.2-0.3,0.3l-2.7,0.1c-0.6,0-1,0-1.6,0.1c0.8,0.2,1.1,0.4,1.1,0.6
			c0,0.1-0.2,0.3-0.6,0.6L84.2,17h2.7c0.7-0.8,1-1,1.1-1c0.1,0,0.2,0.1,0.3,0.2c0.9,0.9,1.3,1.2,1.3,1.3c0,0.1-0.1,0.2-0.3,0.3h-5.1
			l-0.1,3.6h1.4c0.6-0.6,0.9-0.9,1-0.9c0.2,0.1,0.3,0.1,0.4,0.2c1,0.7,1.5,1.1,1.5,1.2c0,0.1-0.1,0.1-0.1,0.2
			c-0.2,0.2-0.5,0.4-0.7,0.6c0,3.5,0,6.1,0.1,7.5c-0.6,0.2-1.2,0.4-2.2,0.4c0-0.5,0.1-1,0.1-1.4h-5v1.2c-0.9,0.3-1.5,0.4-2.1,0.4
			c0-0.5,0-0.9,0.1-1.2c0-5.4,0-8.2-0.1-8.5C78.4,21,78.4,21,78.4,21c0-0.1,0.1-0.2,0.3-0.2c0.3,0,1,0.3,2,0.8
			c0.3,0.1,0.8,0.2,1.5,0.2l0.1-3.6h-3.9c-0.1,0.1-0.2,0.2-0.3,0.4l-1-1.4c1,0.1,2.7,0.1,5,0.1L82.2,12.7z M85.6,28.7v-6.2h-4.8
			c-0.1,0.1-0.2,0.2-0.3,0.3v5.9C80.5,28.7,85.6,28.7,85.6,28.7z"/>
		<path fill="#FFFFFF" d="M93.1,23.9c-0.1,0-0.1-0.1-0.1-0.2c0-0.1,0.1-0.2,0.2-0.2h1c0.5-0.8,1.6-3.1,3.2-7.2
			c0.1-0.3,0.2-0.5,0.3-0.7c0-0.2,0.1-0.3,0.2-0.4c0.6-1.5,1-2.2,1-2.2s0.1,0.1,0.1,0.2s0,0.1,0,0.1c-0.9,2.9-1.6,5.2-2.2,7.3
			c0,0.1,0,0.1,0,0.2c-0.8,2.8-0.9,4.9-0.4,6.2c0.1,0.5,0.2,0.8,0.2,1c0,0.9-0.4,1.3-1.1,1.3c-0.1,0-0.1,0-0.1,0
			c-0.8-0.2-1.1-0.6-1.1-1.3c0.1-2.2,0-3.4-0.3-3.7l-0.4-0.3C93.4,24,93.2,23.9,93.1,23.9z M93.2,15.8c-0.1-0.1-0.1-0.2-0.1-0.2
			c0-0.1,0-0.1,0.1-0.1c0.3,0,0.8,0.2,1.3,0.5c0.9,0.5,1.2,1.1,1.2,1.9c0,0.8-0.4,1.1-1.1,1.1c-0.5,0-0.8-0.2-0.9-0.7
			c0-0.1,0-0.3,0-0.5C93.6,16.7,93.4,16,93.2,15.8z M94,10.8c-0.2-0.2-0.3-0.3-0.3-0.3c0-0.1,0.1-0.1,0.1-0.1c0.7,0,1.3,0.2,2.1,0.6
			c0.8,0.4,1.1,1,1.1,1.6c0,0.2-0.1,0.4-0.2,0.6c-0.3,0.4-0.6,0.6-1,0.6c-0.4,0-0.7-0.2-0.8-0.6c0-0.1,0-0.1,0-0.2
			C94.8,11.9,94.4,11.1,94,10.8z M100,14.9c0-2.1-0.1-3.4-0.3-3.9c0-0.1,0-0.1,0-0.2s0.1-0.1,0.2-0.1c0.3,0,1,0.4,2.5,1h4.9
			c0.7-0.8,1-1,1.2-1c0.2,0,0.4,0.1,0.7,0.4c0.8,0.7,1,1,1,1.2c0,0.2-0.1,0.2-0.3,0.2h-7.5c-0.1,0.1-0.3,0.2-0.4,0.3v15.8h5.1
			c0.6-0.8,1-1.1,1.2-1.1c0.2,0,0.3,0.1,0.5,0.3h0.1c0.9,0.9,1.2,1.3,1.2,1.4c0,0.2-0.1,0.3-0.4,0.3H102c-0.6,0.7-0.9,1-1,1
			s-0.4-0.1-0.6-0.4c-0.7-0.6-1-1-1-1c0-0.1,0.1-0.3,0.4-0.5c0.1-0.1,0.2-0.1,0.3-0.2V14.9z"/>
	</g>
</g>
<g>
	<g>
		<path d="M25.5,8.1V7c0-0.5,0.4-0.9,0.9-0.9h4.3V5.2h2v0.9h4.3c0.5,0,0.9,0.4,0.9,0.9v1.1h-2V7.3c0-0.3-0.2-0.5-0.5-0.5H28
			c-0.3,0-0.5,0.2-0.5,0.5v0.8H25.5z M26.2,8.5H37v0.8h-5l0.8,1.2c0.2,0.4,0.2,0.6,0.2,1V17c0,0.5-0.4,0.9-0.9,0.9h-2.4v-0.7h0.7
			c0.3,0,0.5-0.2,0.5-0.5v-0.6c-1.3,0.8-3.2,1.4-5.1,1.7v-1.5c1.7-0.3,3.8-1,5.1-2v-1c-1.2,0.9-3,1.6-5.1,2v-1.5
			c1.9-0.3,4-1.2,5.1-2.3l-0.5-0.8c-1.2,1-2.8,1.7-4.7,2.1v-1.4c1.6-0.4,2.9-1,3.8-1.9h-3.3V8.5z M33.6,12.8c-0.2-0.4-0.1-0.7,0.2-1
			l1.5-1.7h2.4l-1.9,2.1c-0.2,0.3-0.3,0.5-0.1,0.7l2.3,4.8h-2.1L33.6,12.8z"/>
		<path d="M25.5,22.9h3c0.1-0.5,0.1-1,0.2-1.6h2c-0.1,0.6-0.2,1-0.2,1.6h7.4v0.8h-7.6c-0.1,0.8-0.3,1.4-0.4,2.1h6.6
			c0.7,0,0.9,0.7,0.6,1.1c-0.8,1.3-1.6,2.6-2.6,3.7c1,1.1,2.3,2.3,3.4,3.3h-2.3c-0.8-0.7-1.5-1.3-2.2-2.1c-0.7,0.8-1.3,1.4-2.1,2.1
			h-2.5c1.1-1,2.3-2.2,3.3-3.3c-0.9-1-1.6-1.9-2.4-3h2.1c0.4,0.6,0.9,1.1,1.3,1.6c0.6-0.8,1.1-1.6,1.7-2.4c0.1-0.1,0.1-0.2,0-0.3
			c0-0.1-0.1-0.1-0.2-0.1h-5c-0.6,2.5-1.3,5-2.3,7.3h-2c1.2-3.3,2.3-6.7,2.9-10.3h-2.9L25.5,22.9L25.5,22.9z"/>
	</g>
</g>
</svg>
