<?xml version="1.0" encoding="utf-8"?>
<!-- Generator: Adobe Illustrator 18.0.0, SVG Export Plug-In . SVG Version: 6.00 Build 0)  -->
<!DOCTYPE svg PUBLIC "-//W3C//DTD SVG 1.1//EN" "http://www.w3.org/Graphics/SVG/1.1/DTD/svg11.dtd">
<svg version="1.1" id="图层_1" xmlns="http://www.w3.org/2000/svg" xmlns:xlink="http://www.w3.org/1999/xlink" x="0px" y="0px"
	 viewBox="0 0 82 62" enable-background="new 0 0 82 62" xml:space="preserve">
<g>
	<path fill="#FFFFFF" d="M80.9,8.3c0,0-4.5-3.4-9.2-5.2C66.7,0.9,59.6,1,59.6,1s-5-0.3-10.2,1.8C44.3,5.1,40.5,8,40.5,8
		s-5.2-3.6-9.9-5.5C26,0.6,19.3,1,19.3,1S12.9,1.3,8.9,3C4.8,4.6,1,8.6,1,8.6v50.7c0,0,5.8-4.5,9.2-5.8c3.5-1.3,8.9-1.2,8.9-1.2
		s6.5,0.7,10.3,2.1c3.9,1.4,11.1,6.6,11.1,6.6s4.6-4.4,8.3-6.1c6.3-2.9,12.5-2.5,12.5-2.5s3.8,0.1,9.2,1.9c4.8,1.6,10.5,5,10.5,5
		L80.9,8.3L80.9,8.3z M38.5,55.4c0,0-9.9-7-19.4-6.9c-9,0.1-12.4,2.2-14.8,4.3c0.1-2.5,0-42.4,0-42.4s3.5-5.6,15.1-6
		c9.9-0.7,18.4,5.5,19,6.7C38.6,12.7,38.5,55.4,38.5,55.4L38.5,55.4z M77.2,53.8c-2.3-2.1-8.6-5.2-17.6-5.4c-9.5-0.2-17,7.1-17,7.1
		s-0.1-42.7,0.2-44.3c0.8-1.2,7.3-7.2,19-6.7c10.1,0.4,15.6,5.9,15.6,5.9S77.2,51.3,77.2,53.8L77.2,53.8z M77.2,53.8"/>
</g>
</svg>
