<?xml version="1.0" encoding="utf-8"?>
<!-- Generator: Adobe Illustrator 18.0.0, SVG Export Plug-In . SVG Version: 6.00 Build 0)  -->
<!DOCTYPE svg PUBLIC "-//W3C//DTD SVG 1.1//EN" "http://www.w3.org/Graphics/SVG/1.1/DTD/svg11.dtd">
<svg version="1.1" id="图层_1" xmlns="http://www.w3.org/2000/svg" xmlns:xlink="http://www.w3.org/1999/xlink" x="0px" y="0px"
	 viewBox="0 0 82 62" enable-background="new 0 0 82 62" xml:space="preserve">
<g>
	<g>
		<path fill="#FFFFFF" d="M68,38h-3.2c0-16-2.6-33-23.2-33C25.1,5,16.7,17,16.7,38h-3.2c0-24,9.7-36.2,28-36.2C65.2,1.8,68,22,68,38
			z"/>
		<g>
			<path fill="#FFFFFF" d="M18.8,58.6l-1.3,0.3c-4.3,1-8.2-2.4-9.6-8.5c-1.4-6.1,0.5-10.9,4.9-11.9l1.3-0.3L18.8,58.6z M12.2,41.7
				c-2.1,1.4-2.4,5-1.7,8.3c0.8,3.3,2.6,6.4,5.1,6.7L12.2,41.7z"/>
			<path fill="#FFFFFF" d="M21.2,60.8L21.2,60.8c-2.5,0.6-5-0.9-5.5-3.4l-3.9-16.7c-0.6-2.4,1-4.9,3.4-5.5c2.5-0.6,5,0.9,5.5,3.4
				l3.9,16.7C25.2,57.8,23.7,60.3,21.2,60.8z M15.9,37.9c-1.1,0.3-1.7,1.3-1.5,2.3l3.9,16.7c0.2,1,1.3,1.7,2.3,1.4l0.1,0
				c1-0.2,1.7-1.3,1.4-2.3l-3.9-16.7C18,38.3,16.9,37.6,15.9,37.9z"/>
		</g>
		<g>
			<path fill="#FFFFFF" d="M67.9,38l1.3,0.3c4.3,1,6.3,5.7,4.8,11.8c-1.4,6.1-5.3,9.5-9.6,8.5l-1.3-0.3L67.9,38z M66.3,56.4
				c2.5-0.3,4.4-3.4,5.1-6.7c0.8-3.3,0.5-6.8-1.7-8.2L66.3,56.4z"/>
			<path fill="#FFFFFF" d="M57.1,55.1L61,38.5c0.6-2.4,3-4,5.5-3.4c2.4,0.6,4,3,3.4,5.4L66,57.2c-0.6,2.4-3,4-5.4,3.4l-0.1,0
				C58.1,60,56.6,57.5,57.1,55.1z M63.5,39.1l-3.9,16.6c-0.2,1,0.4,2.1,1.4,2.3l0.1,0c1,0.2,2.1-0.4,2.3-1.4L67.4,40
				c0.2-1-0.4-2.1-1.5-2.3C64.8,37.4,63.8,38.1,63.5,39.1z"/>
		</g>
	</g>
</g>
</svg>
