<?xml version="1.0" encoding="utf-8"?>
<!-- Generator: Adobe Illustrator 18.0.0, SVG Export Plug-In . SVG Version: 6.00 Build 0)  -->
<!DOCTYPE svg PUBLIC "-//W3C//DTD SVG 1.1//EN" "http://www.w3.org/Graphics/SVG/1.1/DTD/svg11.dtd">
<svg version="1.1" id="图层_1" xmlns="http://www.w3.org/2000/svg" xmlns:xlink="http://www.w3.org/1999/xlink" x="0px" y="0px"
	 viewBox="0 0 50 60" enable-background="new 0 0 50 60" xml:space="preserve">
<g>
	<path fill-rule="evenodd" clip-rule="evenodd" fill="#FFFFFF" d="M44.5,23.1c-0.3-0.2-0.7-0.1-1,0.1l-11.2,8.7
		c-0.2,0.2-0.3,0.4-0.3,0.7v4.5c0,0.3,0.2,0.7,0.5,0.8c0.1,0.1,0.3,0.1,0.4,0.1c0.2,0,0.4-0.1,0.6-0.2l11.2-8.7
		c0.2-0.2,0.3-0.4,0.3-0.7v-4.5C45,23.6,44.8,23.3,44.5,23.1L44.5,23.1z M43.2,28l-9.4,7.3v-2.2l9.4-7.3V28L43.2,28z"/>
	<path fill-rule="evenodd" clip-rule="evenodd" fill="#FFFFFF" d="M47.7,11.1c-1.1-0.5-2.4-0.4-3.3,0.3c-0.1,0.1-0.3,0.2-0.5,0.4
		c-2.3,0.1-3.9-1.1-4.5-1.7V8.9c0-0.7-0.5-1.7-1.3-2.2c-0.5-0.2-1.4-0.5-2.6,0.4c-0.3,0.2-3.1,2.1-6.3,4.3V6c0-0.3-0.2-0.6-0.5-0.8
		c-0.3-0.2-0.6-0.1-0.9,0c0,0-0.7,0.5-1.7,1.1c-4.1,0.3-7.1-1.1-8.1-1.7V1.9c0-0.3-0.2-0.6-0.5-0.8c-0.3-0.2-0.6-0.1-0.9,0
		C16.5,1.3,5.4,8.5,3.6,9.5c-3.3,1.9-3.1,5.5-3,5.9v27.4c0,1.2,0.6,2.3,1.8,3.1c1.6,1.1,4.1,1.7,6.6,1.7c1.4,0,2.8-0.2,4-0.6
		c0.1,0,0.2-0.1,0.3-0.2l3.1-2.5v6.9c0,4.8,5.3,7.7,10.4,7.7c2.1,0,4.1-0.5,5.6-1.4c2.7-1.6,15.3-11.4,15.8-11.8
		c0.9-0.6,1.5-1.6,1.5-2.7V13.9C49.5,12.7,48.8,11.6,47.7,11.1L47.7,11.1z M36.6,8.6c0.1-0.1,0.5-0.4,0.7-0.3
		c0.2,0.1,0.3,0.4,0.3,0.5v1.6c0,0.2,0.1,0.4,0.2,0.6c0.1,0.1,1.6,1.7,4,2.3C37.6,16.7,30.8,21.9,29,23c-1.5,0.9-3.1,1.4-4.7,1.4
		c-0.8,0-1.5-0.1-1.9-0.2c-1.3-0.4-2.2-0.9-2.5-1.7c-0.4-0.9,0-1.9,0.1-2.2c0.2-0.2,0.4-0.4,0.7-0.5C22.7,18.1,36.4,8.7,36.6,8.6
		L36.6,8.6z M4.5,11.1c1.5-0.9,8.7-5.5,11.8-7.5v1.6c0,0.3,0.1,0.6,0.4,0.7c0.1,0.1,2.7,1.8,6.8,2.2c-4.3,2.9-10.5,7-12.3,8
		c-3.2,1.9-5.9,2.5-7.4,1.6c-1.1-0.6-1.4-2-1.4-3c0,0,0,0,0,0C2.4,13.9,2.7,12.1,4.5,11.1L4.5,11.1z M12.2,45.4
		c-2.7,0.9-6.9,0.4-8.8-0.9c-0.7-0.5-1-1-1-1.6V19c0.2,0.1,0.3,0.2,0.5,0.3c2.2,1.2,5.5,0.6,9.3-1.7c2.2-1.3,10.7-6.9,14.7-9.6
		c0,0,0.1,0,0.1,0c0.3,0,0.5-0.2,0.6-0.4v4.6c0,0.1,0,0.2,0.1,0.3c-3.5,2.4-6.9,4.8-7.9,5.5c-1.4,1-2.2,2-2.7,3
		c-0.4,0.7-0.7,1.5-0.7,2.3v18.7L12.2,45.4L12.2,45.4z M47.7,43.1c0,0.5-0.2,0.9-0.7,1.2C46.9,44.4,33.9,54.4,31.3,56
		c-1.3,0.8-2.9,1.2-4.7,1.2c-4.2,0-8.6-2.2-8.6-5.8V24.8c0,0,0,0,0,0v-0.2c0-0.5,0-1.1,0.1-1.7c0,0,0,0.1,0.1,0.1
		c0.6,1.3,1.8,2.2,3.7,2.7c0.7,0.2,1.6,0.3,2.4,0.3c1.9,0,3.8-0.5,5.6-1.6c2.3-1.4,12-8.9,15.6-11.7c0.4-0.3,1-0.4,1.4-0.1
		c0.5,0.2,0.8,0.7,0.8,1.2V43.1L47.7,43.1z"/>
</g>
</svg>
