<?xml version="1.0" encoding="utf-8"?>
<!-- Generator: Adobe Illustrator 18.0.0, SVG Export Plug-In . SVG Version: 6.00 Build 0)  -->
<!DOCTYPE svg PUBLIC "-//W3C//DTD SVG 1.1//EN" "http://www.w3.org/Graphics/SVG/1.1/DTD/svg11.dtd">
<svg version="1.1" id="图层_1" xmlns="http://www.w3.org/2000/svg" xmlns:xlink="http://www.w3.org/1999/xlink" x="0px" y="0px"
	 viewBox="0 0 108 120" enable-background="new 0 0 108 120" xml:space="preserve">
<g>
	<path fill-rule="evenodd" clip-rule="evenodd" fill="#DCDDDD" d="M95.3,68.1V55.3c0-18.2-13.1-33.4-30.8-37.7v-0.2
		c0-6.1-4.6-11.1-10.2-11.1c-5.7,0-10.2,5-10.2,11.1v0.3c-17.6,4.3-30.6,19.6-30.6,37.7v10.6h0C13.6,78.9,3.1,81.5,3.1,88.6
		c0,7.1,5.7,9.8,12.8,9.8h17.9c0.2,8.5,9.4,15.3,20.6,15.3c11.2,0,20.3-6.8,20.6-15.3h17.8c7.1,0,12.8-2.8,12.8-9.8
		C105.5,81.9,96.2,79.2,95.3,68.1L95.3,68.1z M54.3,108.6c-8.5,0-15.4-4.5-15.4-10c0-0.1,0-0.1,0-0.2h30.8c0,0.1,0,0.1,0,0.2
		C69.7,104.1,62.8,108.6,54.3,108.6L54.3,108.6z M100.4,89c-0.3,3.3-4.7,4.4-7.5,4.4H15.6c-2.1,0.3-7.5-0.7-7.5-4.3v-0.9
		c0.1-3.2,8-5.9,10.2-17.3v-5h-0.1v-9.7c0-17.4,13.4-31.9,30.7-34.3v-4.3c0-3.4,2.3-6.2,5.1-6.2c2.8,0,5.1,2.8,5.1,6.2v4.3
		c17.4,2.4,30.8,16.8,30.8,34.3v9.7h0v4.5h0c0.1,8.2,10.1,15,10.2,17.4V89L100.4,89L100.4,89z"/>
	<path fill-rule="evenodd" clip-rule="evenodd" fill="#DCDDDD" d="M94.7,65.9L94.7,65.9l0-10.6c0-18.1-13-33.4-30.6-37.7v-0.3
		c0-6.1-4.6-11.1-10.2-11.1c-5.7,0-10.2,5-10.2,11.1v0.2c-17.7,4.3-30.8,19.6-30.8,37.7v12.9C11.8,79.3,2.5,82,2.5,88.6
		c0,7.1,5.7,9.8,12.8,9.8h17.8c0.2,8.5,9.4,15.3,20.6,15.3c11.2,0,20.3-6.8,20.6-15.3h17.9c7.1,0,12.8-2.8,12.8-9.8
		C104.9,81.5,94.4,79,94.7,65.9L94.7,65.9z M53.7,108.6c-8.5,0-15.4-4.5-15.4-10c0-0.1,0-0.1,0-0.2h30.8c0,0.1,0,0.1,0,0.2
		C69.1,104.1,62.2,108.6,53.7,108.6L53.7,108.6z M99.8,89.1c0.1,3.6-5.3,4.6-7.5,4.3H15.1c-2.8,0-7.1-1.1-7.5-4.4v-1.2
		c0.1-2.5,10.1-9.2,10.2-17.4h0v-4.5h0v-9.7c0-17.5,13.4-31.9,30.8-34.3v-4.3c0-3.4,2.3-6.2,5.1-6.2c2.8,0,5.1,2.8,5.1,6.2v4.3
		c17.4,2.4,30.7,16.8,30.7,34.3v9.7h-0.1v5C91.9,82.2,99.7,85,99.8,88.2L99.8,89.1L99.8,89.1L99.8,89.1z"/>
</g>
</svg>
